<svg xmlns="http://www.w3.org/2000/svg" xmlns:xlink="http://www.w3.org/1999/xlink" width="46.5" height="46.5" viewBox="0 0 46.5 46.5">
  <defs>
    <clipPath id="clip-path">
      <rect id="Rectangle_63" data-name="Rectangle 63" width="46" height="46" fill="none"/>
    </clipPath>
  </defs>
  <g id="Group_48" data-name="Group 48" transform="translate(0.25 0.25)">
    <path id="Path_306" data-name="Path 306" d="M.535.535h44.93v44.93H.535ZM0,46H46V0H0Z" fill="#6d1912" stroke="#6d1912" stroke-width="0.5"/>
    <path id="Path_307" data-name="Path 307" d="M89.437,113.5H68.915V91.777H89.437ZM69.7,112.764H88.648V92.512H69.7Z" transform="translate(-56.36 -75.057)" fill="#6d1912"/>
    <rect id="Rectangle_29" data-name="Rectangle 29" width="18.944" height="1.579" transform="translate(13.344 18.709)" fill="#6d1912"/>
    <path id="Path_308" data-name="Path 308" d="M89.167,65.682H77.927V59.367h11.24Zm-9.662-1.332h8.083V60.7H79.506Z" transform="translate(-63.73 -48.551)" fill="#6d1912"/>
    <path id="Path_309" data-name="Path 309" d="M150.6,65.682h-6.125V59.367H150.6Zm-4.546-1.332h2.968V60.7h-2.968Z" transform="translate(-118.153 -48.551)" fill="#6d1912"/>
    <path id="Path_310" data-name="Path 310" d="M135,54.276H130.96V45.421H135Zm-2.462-1.395h.883V46.816h-.883Z" transform="translate(-107.101 -37.146)" fill="#6d1912"/>
    <g id="Group_47" data-name="Group 47">
      <g id="Group_46" data-name="Group 46" clip-path="url(#clip-path)">
        <path id="Path_311" data-name="Path 311" d="M33.878,134.816l-.125-.02a6.59,6.59,0,0,1-2.325-1.477,4.863,4.863,0,0,1-1.118-5.228c-.162-.7-.92-4.321.324-5.914a1.989,1.989,0,0,1,1.58-.778,2.236,2.236,0,0,1,2,.131c1.075.664,1.623,2.32,1.634,4.923.248.644,1.882,5.1.439,7.229a2.719,2.719,0,0,1-2.413,1.134M32.3,122.187a1.238,1.238,0,0,0-1.044.476c-.925,1.185-.424,4.262-.153,5.348l.028.111-.036.109a4.442,4.442,0,0,0,2.849,5.794,1.923,1.923,0,0,0,1.693-.786c1.071-1.581-.032-5.276-.547-6.565l-.028-.146c0-2.933-.684-3.971-1.259-4.327a1.462,1.462,0,0,0-1.327-.056Z" transform="translate(-24.48 -99.137)" fill="#6d1912"/>
        <rect id="Rectangle_30" data-name="Rectangle 30" width="0.789" height="2.368" transform="translate(9.003 35.285)" fill="#6d1912"/>
        <path id="Path_312" data-name="Path 312" d="M188.982,134.816h-.065a2.719,2.719,0,0,1-2.413-1.134c-1.443-2.131.191-6.584.439-7.229.011-2.6.56-4.26,1.634-4.923a2.236,2.236,0,0,1,2-.131,1.989,1.989,0,0,1,1.58.778c1.244,1.592.486,5.215.324,5.914a4.863,4.863,0,0,1-1.118,5.228,6.59,6.59,0,0,1-2.325,1.477Zm.7-12.806a1.3,1.3,0,0,0-.7.2c-.57.358-1.252,1.4-1.252,4.322l-.028.146c-.515,1.29-1.619,4.984-.547,6.565a1.923,1.923,0,0,0,1.693.786,4.442,4.442,0,0,0,2.849-5.794l-.036-.109.028-.112c.27-1.087.771-4.166-.153-5.349a1.241,1.241,0,0,0-1.044-.475l-.176-.042a1.61,1.61,0,0,0-.638-.135" transform="translate(-152.045 -99.137)" fill="#6d1912"/>
        <rect id="Rectangle_31" data-name="Rectangle 31" width="0.789" height="2.368" transform="translate(36.477 35.285)" fill="#6d1912"/>
        <rect id="Rectangle_32" data-name="Rectangle 32" width="34.573" height="1.299" transform="translate(5.846 37.811)" fill="#6d1912"/>
        <rect id="Rectangle_33" data-name="Rectangle 33" width="1.705" height="1.705" transform="translate(14.071 21.014)" fill="#6d1912"/>
        <rect id="Rectangle_34" data-name="Rectangle 34" width="2.368" height="2.368" transform="translate(16.896 20.682)" fill="#6d1912"/>
        <rect id="Rectangle_35" data-name="Rectangle 35" width="2.368" height="2.368" transform="translate(20.054 20.682)" fill="#6d1912"/>
        <rect id="Rectangle_36" data-name="Rectangle 36" width="1.705" height="1.705" transform="translate(23.543 21.014)" fill="#6d1912"/>
        <rect id="Rectangle_37" data-name="Rectangle 37" width="2.368" height="2.368" transform="translate(26.368 20.682)" fill="#6d1912"/>
        <rect id="Rectangle_38" data-name="Rectangle 38" width="2.368" height="2.368" transform="translate(29.525 20.682)" fill="#6d1912"/>
        <rect id="Rectangle_39" data-name="Rectangle 39" width="2.368" height="2.368" transform="translate(13.739 23.839)" fill="#6d1912"/>
        <rect id="Rectangle_40" data-name="Rectangle 40" width="1.705" height="1.705" transform="translate(17.224 24.171)" fill="#6d1912"/>
        <rect id="Rectangle_41" data-name="Rectangle 41" width="1.705" height="1.705" transform="translate(20.385 24.171)" fill="#6d1912"/>
        <rect id="Rectangle_42" data-name="Rectangle 42" width="2.368" height="2.368" transform="translate(23.211 23.839)" fill="#6d1912"/>
        <rect id="Rectangle_43" data-name="Rectangle 43" width="1.705" height="1.705" transform="translate(26.7 24.171)" fill="#6d1912"/>
        <rect id="Rectangle_44" data-name="Rectangle 44" width="2.368" height="2.368" transform="translate(29.525 23.839)" fill="#6d1912"/>
        <rect id="Rectangle_45" data-name="Rectangle 45" width="1.705" height="1.705" transform="translate(14.071 27.328)" fill="#6d1912"/>
        <rect id="Rectangle_46" data-name="Rectangle 46" width="2.368" height="2.368" transform="translate(16.896 26.997)" fill="#6d1912"/>
        <rect id="Rectangle_47" data-name="Rectangle 47" width="2.368" height="2.368" transform="translate(26.368 26.997)" fill="#6d1912"/>
        <rect id="Rectangle_48" data-name="Rectangle 48" width="1.705" height="1.705" transform="translate(29.857 27.328)" fill="#6d1912"/>
        <rect id="Rectangle_49" data-name="Rectangle 49" width="1.705" height="1.705" transform="translate(14.076 30.486)" fill="#6d1912"/>
        <rect id="Rectangle_50" data-name="Rectangle 50" width="2.368" height="2.368" transform="translate(16.896 30.154)" fill="#6d1912"/>
        <rect id="Rectangle_51" data-name="Rectangle 51" width="1.705" height="1.705" transform="translate(26.7 30.486)" fill="#6d1912"/>
        <rect id="Rectangle_52" data-name="Rectangle 52" width="2.368" height="2.368" transform="translate(29.525 30.154)" fill="#6d1912"/>
        <rect id="Rectangle_53" data-name="Rectangle 53" width="2.368" height="2.368" transform="translate(13.739 33.311)" fill="#6d1912"/>
        <rect id="Rectangle_54" data-name="Rectangle 54" width="1.705" height="1.705" transform="translate(17.228 33.643)" fill="#6d1912"/>
        <rect id="Rectangle_55" data-name="Rectangle 55" width="2.368" height="2.368" transform="translate(26.368 33.311)" fill="#6d1912"/>
        <rect id="Rectangle_56" data-name="Rectangle 56" width="1.705" height="1.705" transform="translate(29.857 33.643)" fill="#6d1912"/>
        <rect id="Rectangle_57" data-name="Rectangle 57" width="1.705" height="1.705" transform="translate(14.071 36.8)" fill="#6d1912"/>
        <rect id="Rectangle_58" data-name="Rectangle 58" width="2.368" height="2.368" transform="translate(16.896 36.469)" fill="#6d1912"/>
        <rect id="Rectangle_59" data-name="Rectangle 59" width="2.368" height="2.368" transform="translate(20.054 36.469)" fill="#6d1912"/>
        <rect id="Rectangle_60" data-name="Rectangle 60" width="2.368" height="2.368" transform="translate(23.211 36.469)" fill="#6d1912"/>
        <rect id="Rectangle_61" data-name="Rectangle 61" width="2.368" height="2.368" transform="translate(26.368 36.469)" fill="#6d1912"/>
        <rect id="Rectangle_62" data-name="Rectangle 62" width="2.368" height="2.368" transform="translate(29.525 36.469)" fill="#6d1912"/>
        <path id="Path_313" data-name="Path 313" d="M114.224,157.07h-6.315v-7.9a3.153,3.153,0,0,1,3.15-3.15,3.066,3.066,0,0,1,3.165,3.031Zm-4.736-1.579h3.157V149.05a1.454,1.454,0,0,0-1.452-1.452,1.607,1.607,0,0,0-1.705,1.571Z" transform="translate(-88.25 -119.417)" fill="#6d1912"/>
      </g>
    </g>
  </g>
</svg>
