<svg xmlns="http://www.w3.org/2000/svg" xmlns:xlink="http://www.w3.org/1999/xlink" width="46.5" height="46.5" viewBox="0 0 46.5 46.5">
  <defs>
    <clipPath id="clip-path">
      <rect id="Rectangle_120" data-name="Rectangle 120" width="46" height="46" fill="none"/>
    </clipPath>
  </defs>
  <g id="Group_64" data-name="Group 64" transform="translate(-901.75 -1011.75)">
    <g id="Group_63" data-name="Group 63" transform="translate(902 1012)">
      <path id="Path_337" data-name="Path 337" d="M.535.535h44.93v44.93H.535ZM0,46H46V0H0Z" fill="#6d1912" stroke="#6d1912" stroke-width="0.5"/>
      <path id="Path_338" data-name="Path 338" d="M78.4,142.255H50.9v-2.634H78.4Zm-26.755-.748H77.649v-1.138H51.643Z" transform="translate(-41.646 -114.249)" fill="#6d1912"/>
      <path id="Path_339" data-name="Path 339" d="M83.028,152.723H58.308V150h24.72Zm-23.971-.748H82.279v-1.226H59.056Z" transform="translate(-47.712 -122.742)" fill="#6d1912"/>
      <rect id="Rectangle_108" data-name="Rectangle 108" width="0.748" height="1.615" transform="translate(12.57 27.632)" fill="#6d1912"/>
      <rect id="Rectangle_109" data-name="Rectangle 109" width="0.748" height="1.615" transform="translate(14.566 27.632)" fill="#6d1912"/>
      <rect id="Rectangle_110" data-name="Rectangle 110" width="0.748" height="1.615" transform="translate(16.561 27.632)" fill="#6d1912"/>
      <rect id="Rectangle_111" data-name="Rectangle 111" width="0.748" height="1.615" transform="translate(18.556 27.632)" fill="#6d1912"/>
      <rect id="Rectangle_112" data-name="Rectangle 112" width="0.748" height="1.615" transform="translate(20.551 27.632)" fill="#6d1912"/>
      <rect id="Rectangle_113" data-name="Rectangle 113" width="0.748" height="1.615" transform="translate(22.546 27.632)" fill="#6d1912"/>
      <rect id="Rectangle_114" data-name="Rectangle 114" width="0.748" height="1.615" transform="translate(24.541 27.632)" fill="#6d1912"/>
      <rect id="Rectangle_115" data-name="Rectangle 115" width="0.748" height="1.615" transform="translate(26.536 27.632)" fill="#6d1912"/>
      <rect id="Rectangle_116" data-name="Rectangle 116" width="0.748" height="1.615" transform="translate(28.531 27.632)" fill="#6d1912"/>
      <rect id="Rectangle_117" data-name="Rectangle 117" width="0.748" height="1.615" transform="translate(30.526 27.632)" fill="#6d1912"/>
      <rect id="Rectangle_118" data-name="Rectangle 118" width="0.748" height="1.615" transform="translate(32.521 27.632)" fill="#6d1912"/>
      <path id="Path_340" data-name="Path 340" d="M83.027,168.6h-.748v-6.988H59.056V168.6h-.748v-7.736h24.72Z" transform="translate(-47.712 -131.633)" fill="#6d1912"/>
      <g id="Group_62" data-name="Group 62">
        <g id="Group_61" data-name="Group 61" clip-path="url(#clip-path)">
          <path id="Path_341" data-name="Path 341" d="M56.207,180.958H51.269a.374.374,0,0,1-.374-.374v-1.975a.374.374,0,0,1,.374-.374h2.494a6.883,6.883,0,0,1,4.072-4.469,5.351,5.351,0,0,1,5.7,2.387.374.374,0,0,1-.655.361,4.487,4.487,0,0,0-4.853-2.027,6.246,6.246,0,0,0-3.613,4.208.374.374,0,0,1-.364.287H51.643v1.228h4.216c.1-.937.54-3.384,2.6-4.108a4.229,4.229,0,0,1,4.4,1.452c.036.048.8,1.2,1.765,1.13a.36.36,0,0,1,.4.345.374.374,0,0,1-.345.4c-1.341.1-2.372-1.359-2.413-1.42a3.473,3.473,0,0,0-3.565-1.2c-2.018.711-2.114,3.753-2.115,3.783a.374.374,0,0,1-.374.365" transform="translate(-41.646 -142.089)" fill="#6d1912"/>
          <path id="Path_342" data-name="Path 342" d="M137.82,180.908h-4.938a.375.375,0,0,1-.374-.364c0-.031-.1-3.075-2.125-3.787A3.492,3.492,0,0,0,126.8,178a3.14,3.14,0,0,1-2.385,1.383.374.374,0,0,1-.345-.4.356.356,0,0,1,.4-.345c.917.059,1.728-1.082,1.737-1.093a4.248,4.248,0,0,1,4.417-1.492c2.063.727,2.51,3.174,2.6,4.111h4.216v-1.228h-2.409a.374.374,0,0,1-.364-.288,6.222,6.222,0,0,0-3.665-4.222,4.473,4.473,0,0,0-4.8,2.042.374.374,0,0,1-.655-.361,5.322,5.322,0,0,1,5.651-2.4,6.866,6.866,0,0,1,4.123,4.482h2.494a.374.374,0,0,1,.374.374v1.975a.374.374,0,0,1-.374.374" transform="translate(-101.523 -142.039)" fill="#6d1912"/>
          <rect id="Rectangle_119" data-name="Rectangle 119" width="0.808" height="1.347" transform="translate(22.551 34.006)" fill="#6d1912"/>
          <path id="Path_343" data-name="Path 343" d="M129.912,67.6a.374.374,0,0,1-.374-.374V60.852a.374.374,0,0,1,.374-.374h.614v-.6h-1.062a.374.374,0,0,1-.374-.374V58.7a.374.374,0,0,1,.374-.374h1.062V57.9h-.614a.374.374,0,0,1-.374-.374V56.093a.374.374,0,0,1,.374-.374h.614v-4.28h-3.292v4.19h1.182a.374.374,0,0,1,.374.374V57.35a.374.374,0,0,1-.374.374h-1.182v.149h1.182a.374.374,0,0,1,.374.374V59.5a.374.374,0,0,1-.374.374h-1.182v.778h1.182a.374.374,0,0,1,.374.374v6.195a.374.374,0,1,1-.748,0V61.4H126.86a.374.374,0,0,1-.374-.374V59.5a.374.374,0,0,1,.374-.374h1.182v-.508H126.86a.374.374,0,0,1-.374-.374v-.9a.374.374,0,0,1,.374-.374h1.182v-.6H126.86a.374.374,0,0,1-.374-.374V51.065a.374.374,0,0,1,.374-.374h4.04a.374.374,0,0,1,.374.374v5.028a.374.374,0,0,1-.374.374h-.614v.689h.614a.374.374,0,0,1,.374.374V58.7a.374.374,0,0,1-.374.374h-1.062v.059H130.9a.374.374,0,0,1,.374.374v1.347a.374.374,0,0,1-.374.374h-.614v6a.374.374,0,0,1-.374.374" transform="translate(-103.501 -41.479)" fill="#6d1912"/>
          <path id="Path_344" data-name="Path 344" d="M106.234,60.514h-1.605a.374.374,0,0,1-.374-.374V57.986a.374.374,0,0,1,.374-.374h1.605a.374.374,0,0,1,.374.374V60.14a.374.374,0,0,1-.374.374M105,59.766h.857V58.36H105Z" transform="translate(-85.31 -47.143)" fill="#6d1912"/>
          <path id="Path_345" data-name="Path 345" d="M136.237,60.514H122.411a.374.374,0,0,1-.374-.374V57.986a.374.374,0,0,1,.374-.374h13.826a.374.374,0,0,1,.374.374V60.14a.374.374,0,0,1-.374.374m-13.452-.748h13.078V58.36H122.785Z" transform="translate(-99.86 -47.143)" fill="#6d1912"/>
          <path id="Path_346" data-name="Path 346" d="M99.368,48.252H94.251a.374.374,0,0,1-.374-.374V46.621a.374.374,0,0,1,.374-.374h5.117a.374.374,0,0,1,.374.374v1.257a.374.374,0,0,1-.374.374M94.625,47.5h4.369V47H94.625Z" transform="translate(-76.818 -37.843)" fill="#6d1912"/>
          <path id="Path_347" data-name="Path 347" d="M149.091,104.592a.374.374,0,0,1-.265-.639l5.971-5.97a.375.375,0,0,1,.53.53l-5.971,5.97a.374.374,0,0,1-.265.109" transform="translate(-121.692 -80.088)" fill="#6d1912"/>
          <path id="Path_348" data-name="Path 348" d="M94.845,109.347a.374.374,0,0,1-.265-.109l-4.916-4.915a.375.375,0,1,1,.53-.53l4.916,4.915a.374.374,0,0,1-.265.639" transform="translate(-73.281 -84.843)" fill="#6d1912"/>
        </g>
      </g>
    </g>
  </g>
</svg>
