<svg xmlns="http://www.w3.org/2000/svg" width="46.5" height="46.5" viewBox="0 0 46.5 46.5">
  <g id="Group_66" data-name="Group 66" transform="translate(0.25 0.25)">
    <g id="Group_67" data-name="Group 67">
      <path id="Path_349" data-name="Path 349" d="M53.185,154H51.828a.5.5,0,0,1-.379-.173L44.635,146h-.776l-.408,1.629a.5.5,0,0,1-.15.25l-6.6,5.99a.5.5,0,0,1-.338.13H33.919a.5.5,0,0,1-.5-.5v-3.437a.5.5,0,0,1,.159-.367l7.035-6.573a.5.5,0,0,1,.343-.135h1.355l1.381-.921a.5.5,0,0,1,.644.073l8.188,8.669,3.152-3.152a.5.5,0,0,1,.2-.121l1.508-.5a.5.5,0,0,1,.654.389l.352,1.99a.5.5,0,0,1-.169.47l-4.7,4a.5.5,0,0,1-.325.12M52.057,153H53l4.344-3.694-.2-1.133-.843.281-3.434,3.434a.5.5,0,0,1-.72-.01l-8.252-8.737-1.155.77a.5.5,0,0,1-.279.084H41.152l-6.731,6.289V153h1.746l6.346-5.757.466-1.862a.5.5,0,0,1,.487-.381h1.4a.5.5,0,0,1,.379.173Z" transform="translate(-27.34 -116.169)" fill="#6d1a12"/>
      <path id="Path_350" data-name="Path 350" d="M75.125,94.067a.5.5,0,0,1-.368-.16L61.19,79.334a.5.5,0,0,1,.045-.728l4.382-3.669a.5.5,0,0,1,.69.043L80.015,89.7a.5.5,0,0,1-.059.739l-4.523,3.517a.5.5,0,0,1-.309.106M62.286,79.037,75.18,92.886l3.726-2.9L65.9,76.015Z" transform="translate(-49.954 -61.217)" fill="#6d1a12"/>
      <path id="Path_351" data-name="Path 351" d="M102.216,61.467a.5.5,0,0,1-.357-.857l7.392-7.446V51.814l-1.011.06-5.7,4.778a.5.5,0,0,1-.553.062l-1.045-.538a.5.5,0,0,1-.272-.457l.04-1.934a.5.5,0,0,1,.154-.352l6.68-6.425V45.55l-1.2.054-6.832,6.053a.5.5,0,0,1-.333.126H97.693a.5.5,0,0,1-.45-.278l-.5-1.005a.5.5,0,0,1,.1-.585l6.38-6.189v-1.1l-1.352-.338-7.107,7.183a.5.5,0,0,1-.457.139l-1.737-.352a.5.5,0,0,1-.377-.333l-.5-1.507a.5.5,0,0,1,.121-.514l4.93-4.93.337-1.247h-1.2l-6.4,5.756a.5.5,0,0,1-.672-.747l6.543-5.885a.5.5,0,0,1,.336-.129h2.05a.5.5,0,0,1,.485.634l-.543,2.01a.5.5,0,0,1-.13.224L92.741,47.4l.312.937,1.186.24,7.118-7.194a.5.5,0,0,1,.479-.134l2.01.5a.5.5,0,0,1,.381.487v1.7a.5.5,0,0,1-.153.361L97.8,50.38l.2.4h.986l6.822-6.044a.5.5,0,0,1,.311-.126l1.9-.086a.5.5,0,0,1,.525.5v2.2a.5.5,0,0,1-.154.362l-6.684,6.429-.029,1.413.47.242L107.722,51a.5.5,0,0,1,.293-.116l1.709-.1a.5.5,0,0,1,.374.136.5.5,0,0,1,.158.366v2.091a.5.5,0,0,1-.146.354l-7.538,7.593a.5.5,0,0,1-.357.148" transform="translate(-72.522 -32.501)" fill="#6d1a12"/>
      <path id="Path_352" data-name="Path 352" d="M136.18,108.417a.5.5,0,0,1-.5-.5v-1.357a.5.5,0,0,1,1.005,0v1.357a.5.5,0,0,1-.5.5" transform="translate(-111.008 -86.772)" fill="#6d1a12"/>
      <path id="Path_353" data-name="Path 353" d="M46,46H0V0H46ZM.535,45.465h44.93V.535H.535Z" fill="#6d1912" stroke="#6d1912" stroke-width="0.5"/>
    </g>
  </g>
</svg>
