<svg xmlns="http://www.w3.org/2000/svg" xmlns:xlink="http://www.w3.org/1999/xlink" width="51.359" height="69.594" viewBox="0 0 51.359 69.594">
  <defs>
    <clipPath id="clip-path">
      <rect id="Rectangle_7" data-name="Rectangle 7" width="51.359" height="69.594" fill="none"/>
    </clipPath>
  </defs>
  <g id="Group_15" data-name="Group 15" transform="translate(0 0)">
    <g id="Group_14" data-name="Group 14" transform="translate(0 0)" clip-path="url(#clip-path)">
      <path id="Path_39" data-name="Path 39" d="M46.791,5.476,45.651,6.867l-3.265,3.994Q41.1,12.434,39.8,14.007a1.342,1.342,0,0,1-.893.511l-.216.029-.189-.1c-.029-.015-.059-.029-.088-.042a1.646,1.646,0,0,1-.422-.261q-1.185-1.078-2.358-2.168L30.348,7.094l-.223-.206c-.141-.126-.279-.252-.416-.382a1.234,1.234,0,0,1-.074-1.832c.214-.233.431-.464.643-.7H0V32.29H47.292V4.867c-.168.2-.334.406-.5.609" transform="translate(0 4.378)" fill="#510c76"/>
      <path id="Path_40" data-name="Path 40" d="M4.871,5.479V6.53H3.7v5.312H2.27V6.53H1.11V5.479Z" transform="translate(1.222 6.033)" fill="#fff"/>
      <path id="Path_41" data-name="Path 41" d="M5.465,6.136h.17v1.21h-.49q-.63,0-.63.7v3.072H3.124V6.165h1.37v.71a.959.959,0,0,1,.33-.534.981.981,0,0,1,.641-.206" transform="translate(3.44 6.756)" fill="#fff"/>
      <path id="Path_42" data-name="Path 42" d="M6.725,6.15H8.116V11.1H6.744v-.561a.729.729,0,0,1-.809.561H5.7q-1.172,0-1.172-1.112V6.15h1.4V9.8c0,.166.09.25.271.25h.229c.2,0,.3-.107.3-.321Z" transform="translate(4.981 6.772)" fill="#fff"/>
      <path id="Path_43" data-name="Path 43" d="M8.657,9.912V9.353A.239.239,0,0,0,8.6,9.166a.313.313,0,0,0-.208-.055H7.816c-.834,0-1.25-.366-1.25-1.1V7.26q0-1.109,1.271-1.109h.849q1.27,0,1.271,1.109V7.7H8.617V7.342a.247.247,0,0,0-.061-.187.315.315,0,0,0-.21-.055H8.2a.315.315,0,0,0-.21.055.247.247,0,0,0-.061.187v.6a.241.241,0,0,0,.061.185.3.3,0,0,0,.21.055h.569q1.251,0,1.252,1.091v.721q0,1.113-1.271,1.112H7.856Q6.6,11.1,6.6,9.992V9.561H7.957v.351a.225.225,0,0,0,.258.25h.172c.179,0,.269-.084.269-.25" transform="translate(7.23 6.773)" fill="#fff"/>
      <path id="Path_44" data-name="Path 44" d="M10.927,7.683h-.651v2.591q0,.24.271.24h.38v1.072h-.782q-1.258,0-1.259-1.112V7.683H8.366V6.632h.521v-.92h1.389v.92h.651Z" transform="translate(9.213 6.289)" fill="#fff"/>
      <path id="Path_45" data-name="Path 45" d="M11.06,6.151h1.13q1.27,0,1.269,1.109V9.013h-2.33v.849a.234.234,0,0,0,.061.185.3.3,0,0,0,.208.055h.452a.22.22,0,0,0,.261-.258v-.33h1.338v.479c0,.74-.422,1.112-1.269,1.112H11.06c-.84,0-1.261-.372-1.261-1.112V7.26q0-1.109,1.261-1.109m.069,2.04h.99v-.8a.244.244,0,0,0-.059-.185.3.3,0,0,0-.2-.055H11.4a.313.313,0,0,0-.208.055.237.237,0,0,0-.061.185Z" transform="translate(10.791 6.773)" fill="#fff"/>
      <path id="Path_46" data-name="Path 46" d="M14.032,5.322h1.391v6.692h-1.37v-.561a.731.731,0,0,1-.811.561H13q-1.169,0-1.17-1.112V8.163q0-1.1,1.17-1.1h.24a.721.721,0,0,1,.79.49Zm-.53,5.642h.229c.2,0,.3-.107.3-.319V8.434c0-.214-.1-.321-.3-.321H13.5a.315.315,0,0,0-.21.055.262.262,0,0,0-.059.2v2.351c0,.166.088.25.269.25" transform="translate(13.029 5.86)" fill="#fff"/>
      <path id="Path_47" data-name="Path 47" d="M5.089,11.5H3.647v-1a.225.225,0,0,0-.258-.25H2.977c-.181,0-.269.084-.269.25v3.9a.262.262,0,0,0,.059.2.323.323,0,0,0,.21.055h.412a.3.3,0,0,0,.2-.055.271.271,0,0,0,.059-.2v-.971H5.089v1.1c0,.733-.427,1.1-1.271,1.1H2.538q-1.261,0-1.261-1.1V10.366q0-1.1,1.261-1.1h1.28c.845,0,1.271.368,1.271,1.1Z" transform="translate(1.406 10.202)" fill="#fff"/>
      <path id="Path_48" data-name="Path 48" d="M4.634,9.936H5.826a1.311,1.311,0,0,1,.946.286,1.125,1.125,0,0,1,.284.826v2.732a1.117,1.117,0,0,1-.284.824,1.3,1.3,0,0,1-.946.286H4.634a1.3,1.3,0,0,1-.946-.286,1.125,1.125,0,0,1-.284-.824V11.048a1.134,1.134,0,0,1,.284-.826,1.311,1.311,0,0,1,.946-.286m1.051,3.7V11.186c0-.166-.09-.25-.271-.25h-.37c-.179,0-.269.084-.269.25v2.452c0,.166.09.25.269.25h.37c.181,0,.271-.084.271-.25" transform="translate(3.75 10.941)" fill="#fff"/>
      <path id="Path_49" data-name="Path 49" d="M7.69,9.937h.25q1.169,0,1.17,1.109V14.89h-1.4V11.238c0-.166-.088-.25-.269-.25H7.2c-.2,0-.29.107-.29.319V14.89H5.519V9.937h1.37V10.5a.723.723,0,0,1,.8-.559" transform="translate(6.077 10.942)" fill="#fff"/>
      <path id="Path_50" data-name="Path 50" d="M9.994,11.469H9.343V14.06q0,.24.271.24h.38v1.072H9.213q-1.258,0-1.259-1.112v-2.79H7.433V10.418h.521V9.5H9.343v.92h.651Z" transform="translate(8.185 10.458)" fill="#fff"/>
      <path id="Path_51" data-name="Path 51" d="M11.24,9.922h.17v1.21h-.49q-.63,0-.63.7V14.9H8.9V9.951h1.37v.71a.959.959,0,0,1,.33-.534.97.97,0,0,1,.641-.206" transform="translate(9.8 10.925)" fill="#fff"/>
      <path id="Path_52" data-name="Path 52" d="M12.5,9.936h1.37v4.953H12.475V14.4a.721.721,0,0,1-.79.49h-.24q-1.169,0-1.17-1.112V11.048q0-1.113,1.17-1.112h.24a.731.731,0,0,1,.811.561Zm-.551,3.9h.229c.2,0,.3-.107.3-.319v-2.21c0-.214-.1-.321-.3-.321h-.229c-.181,0-.271.084-.271.25v2.351c0,.166.09.25.271.25" transform="translate(11.315 10.941)" fill="#fff"/>
      <path id="Path_53" data-name="Path 53" d="M15.9,11.717H14.541v-.481c0-.166-.088-.25-.269-.25h-.261c-.181,0-.269.084-.269.25v2.351c0,.168.088.25.269.25h.261c.181,0,.269-.082.269-.25v-.479H15.9v.67q0,1.109-1.271,1.109H13.612q-1.27,0-1.271-1.109V11.046q0-1.109,1.271-1.109h1.019q1.27,0,1.271,1.109Z" transform="translate(13.59 10.942)" fill="#fff"/>
      <path id="Path_54" data-name="Path 54" d="M16.735,11.469h-.651V14.06q0,.24.271.24h.38v1.072h-.78q-1.261,0-1.261-1.112v-2.79h-.521V10.418H14.7V9.5h1.389v.92h.651Z" transform="translate(15.608 10.458)" fill="#fff"/>
      <path id="Path_55" data-name="Path 55" d="M16.848,9.936H18.04a1.311,1.311,0,0,1,.946.286,1.125,1.125,0,0,1,.284.826v2.732a1.117,1.117,0,0,1-.284.824,1.3,1.3,0,0,1-.946.286H16.848A1.3,1.3,0,0,1,15.9,14.6a1.117,1.117,0,0,1-.286-.824V11.048a1.126,1.126,0,0,1,.286-.826,1.311,1.311,0,0,1,.946-.286m1.051,3.7V11.186c0-.166-.09-.25-.271-.25h-.37c-.179,0-.269.084-.269.25v2.452c0,.166.09.25.269.25h.37c.181,0,.271-.084.271-.25" transform="translate(17.197 10.941)" fill="#fff"/>
      <path id="Path_56" data-name="Path 56" d="M20.072,9.922h.17v1.21h-.49q-.63,0-.63.7V14.9H17.731V9.951H19.1v.71a.94.94,0,0,1,.971-.74" transform="translate(19.525 10.925)" fill="#fff"/>
      <path id="Path_57" data-name="Path 57" d="M3.575,18.113V16.961a.245.245,0,0,0-.061-.185.315.315,0,0,0-.21-.055h-.88c-.786,0-1.181-.372-1.181-1.12v-1.45c0-.735.42-1.1,1.261-1.1H3.725c.84,0,1.261.366,1.261,1.1v.83H3.554v-.63c0-.168-.09-.25-.269-.25h-.34c-.181,0-.271.082-.271.25v1.12a.241.241,0,0,0,.061.185.3.3,0,0,0,.21.055H3.8a1.285,1.285,0,0,1,.92.275,1.1,1.1,0,0,1,.282.815v1.5q0,1.113-1.261,1.112H2.535q-1.27,0-1.271-1.112v-.819H2.695v.63c0,.166.09.25.269.25H3.3c.181,0,.271-.084.271-.25" transform="translate(1.369 14.371)" fill="#fff"/>
      <path id="Path_58" data-name="Path 58" d="M4.618,13.723h1.13q1.27,0,1.269,1.109v1.752H4.687v.849a.238.238,0,0,0,.061.185.3.3,0,0,0,.21.055h.45a.22.22,0,0,0,.261-.258v-.332H7.009v.481q0,1.113-1.271,1.112H4.618q-1.261,0-1.261-1.112V14.832q0-1.109,1.261-1.109m.069,2.04h.99v-.8a.244.244,0,0,0-.059-.185.3.3,0,0,0-.2-.055h-.46a.315.315,0,0,0-.21.055.245.245,0,0,0-.061.185Z" transform="translate(3.697 15.111)" fill="#fff"/>
      <path id="Path_59" data-name="Path 59" d="M7.774,13.708h.17v1.21h-.49q-.63,0-.63.7V18.69H5.433V13.737H6.8v.71a.966.966,0,0,1,.33-.534.981.981,0,0,1,.641-.206" transform="translate(5.983 15.094)" fill="#fff"/>
      <path id="Path_60" data-name="Path 60" d="M8.052,13.723l.62,3.551.62-3.551h1.391L9.542,18.675H7.792l-1.13-4.953Z" transform="translate(7.335 15.111)" fill="#fff"/>
      <path id="Path_61" data-name="Path 61" d="M8.766,12.894h1.45v1.08H8.766Zm1.42,6.692H8.8V14.634h1.391Z" transform="translate(9.653 14.198)" fill="#fff"/>
      <path id="Path_62" data-name="Path 62" d="M13.361,15.5H12v-.481c0-.166-.088-.25-.269-.25h-.261c-.181,0-.269.084-.269.25v2.351c0,.168.088.25.269.25h.261c.181,0,.269-.082.269-.25v-.479h1.362v.67q0,1.109-1.271,1.109H11.07q-1.27,0-1.271-1.109V14.832q0-1.109,1.271-1.109h1.019q1.27,0,1.271,1.109Z" transform="translate(10.791 15.111)" fill="#fff"/>
      <path id="Path_63" data-name="Path 63" d="M13.036,13.723h1.13q1.27,0,1.269,1.109v1.752h-2.33v.849a.238.238,0,0,0,.061.185.3.3,0,0,0,.21.055h.45a.22.22,0,0,0,.261-.258v-.332h1.341v.481q0,1.113-1.271,1.112h-1.12q-1.261,0-1.261-1.112V14.832q0-1.109,1.261-1.109m.069,2.04h.99v-.8a.244.244,0,0,0-.059-.185.3.3,0,0,0-.2-.055h-.458a.315.315,0,0,0-.21.055.245.245,0,0,0-.061.185Z" transform="translate(12.967 15.111)" fill="#fff"/>
      <path id="Path_64" data-name="Path 64" d="M.1,22.04A3.994,3.994,0,0,0,4.1,26.034h7.188a7.206,7.206,0,0,1,7.2,7.2V44.88a5.027,5.027,0,1,0,10.054.017l.034-11.687a7.213,7.213,0,0,1,7.2-7.176h7.207a3.994,3.994,0,0,0,3.994-3.994V17.871H.1Z" transform="translate(0.111 19.679)" fill="#510c76"/>
      <path id="Path_65" data-name="Path 65" d="M23.133,18.23a1.966,1.966,0,0,1-.376-.208q-1.38-1.258-2.748-2.526l-4.892-4.52c-.21-.193-.424-.382-.63-.58a.566.566,0,0,1-.042-.891q1.217-1.333,2.448-2.652a1.011,1.011,0,0,1,.38-.273.56.56,0,0,1,.586.168q2.1,1.948,4.211,3.887c.057.053.111.107.17.155a.543.543,0,0,0,.866-.08Q24.48,9.035,25.85,7.354q1.986-2.424,3.971-4.845.9-1.087,1.786-2.183A.623.623,0,0,1,32.628.218c.906.744,1.807,1.494,2.721,2.227.49.393.353.712.042,1.109-.254.328-.521.643-.786.962s-.546.658-.819.985c-.141.168-.284.334-.42.506-.45.553-.893,1.112-1.343,1.664q-1.289,1.576-2.582,3.145-1.633,2-3.263,3.994-1.289,1.573-2.584,3.145a.68.68,0,0,1-.46.271" transform="translate(15.689 0)" fill="#e1251b"/>
    </g>
  </g>
</svg>
