<svg xmlns="http://www.w3.org/2000/svg" xmlns:xlink="http://www.w3.org/1999/xlink" width="25.077" height="25.66" viewBox="0 0 25.077 25.66">
  <defs>
    <clipPath id="clip-path">
      <rect id="Rectangle_5" data-name="Rectangle 5" width="25.077" height="25.66" fill="none"/>
    </clipPath>
  </defs>
  <g id="Group_7" data-name="Group 7" transform="translate(0 0)">
    <g id="Group_6" data-name="Group 6" transform="translate(0 0)" clip-path="url(#clip-path)">
      <path id="Path_1" data-name="Path 1" d="M24.786,13.41a.852.852,0,0,1-1.4-.5c-1.164-6.628-4.346-10.3-9.73-11.224A.851.851,0,0,1,13.946.012C20.039,1.059,23.781,5.3,25.064,12.62a.854.854,0,0,1-.278.79m-4.57-1.045c-.919-4.223-3.159-6.753-6.657-7.52A.851.851,0,1,0,13.2,6.508c2.869.629,4.572,2.605,5.359,6.218a.85.85,0,0,0,1.013.65.851.851,0,0,0,.648-1.011m-1.941,5.288C17.039,16.565,16.151,15.769,15,15.9c-.865.1-1.615.7-2.516,1.985a.854.854,0,0,0,1.4.98c.733-1.059,1.132-1.249,1.31-1.268.393-.052,1.112.587,1.943,1.329.439.387.928.817,1.483,1.27a1.982,1.982,0,0,1,.934,1.523,2.875,2.875,0,0,1-1.268,1.832,2.2,2.2,0,0,1-.733.324,4.081,4.081,0,0,1-2.254-.219,12.228,12.228,0,0,1-2.568-1.293A26,26,0,0,1,10.2,20.5a37.187,37.187,0,0,1-3.37-3.145.868.868,0,0,1-.067-.081,38.015,38.015,0,0,1-3.1-4.572A20.537,20.537,0,0,1,2.306,9.889a8.188,8.188,0,0,1-.6-2.61A2.792,2.792,0,0,1,2.321,5.3,2.9,2.9,0,0,1,4.308,4.283,1.988,1.988,0,0,1,5.691,5.416c.382.614.738,1.151,1.061,1.638.625.921,1.164,1.717,1.059,2.1-.042.173-.282.543-1.433,1.128A.855.855,0,0,0,7.164,11.8c1.394-.721,2.089-1.387,2.3-2.229.286-1.12-.384-2.106-1.3-3.477-.313-.46-.66-.972-1.024-1.569A3.541,3.541,0,0,0,4.45,2.587a4.574,4.574,0,0,0-3.4,1.571A4.034,4.034,0,0,0,.292,5.411a5.286,5.286,0,0,0-.27,2.275,10.2,10.2,0,0,0,.562,2.5A19,19,0,0,0,1.69,12.708c.416.794.871,1.567,1.356,2.319.418.648.859,1.285,1.316,1.906A20.748,20.748,0,0,0,6.042,19c.562.589,1.149,1.153,1.749,1.7.646.591,1.312,1.16,2,1.7a23.744,23.744,0,0,0,2.34,1.628,13.4,13.4,0,0,0,2.482,1.2,6.713,6.713,0,0,0,2.438.43,4.121,4.121,0,0,0,2.2-.7,4.543,4.543,0,0,0,2.01-3.159A3.54,3.54,0,0,0,19.7,18.876c-.545-.441-1.005-.85-1.421-1.222" transform="translate(0 -0.001)" fill="#2a2271"/>
    </g>
  </g>
</svg>
