<svg xmlns="http://www.w3.org/2000/svg" xmlns:xlink="http://www.w3.org/1999/xlink" width="46.499" height="46.5" viewBox="0 0 46.499 46.5">
  <defs>
    <clipPath id="clip-path">
      <rect id="Rectangle_25" data-name="Rectangle 25" width="46" height="46" fill="none"/>
    </clipPath>
    <clipPath id="clip-path-2">
      <path id="Path_305" data-name="Path 305" d="M43.805,94.214h0Z" transform="translate(-43.805 -94.214)" fill="none"/>
    </clipPath>
  </defs>
  <g id="Group_45" data-name="Group 45" transform="translate(0.25 0.25)">
    <path id="Path_72" data-name="Path 72" d="M.535.535h44.93V45.465H.535ZM0,46H46V0H0Z" fill="#6d1912" stroke="#6d1912" stroke-width="0.5"/>
    <g id="Group_40" data-name="Group 40">
      <g id="Group_39" data-name="Group 39" clip-path="url(#clip-path)">
        <path id="Path_73" data-name="Path 73" d="M93.836,71.563a2.173,2.173,0,0,1-.264-.015,2.2,2.2,0,0,1-1.475-.826l-1.471-1.864a2.208,2.208,0,0,1,.365-3.1l11.766-9.285a2.21,2.21,0,0,1,3.1.366l1.471,1.864a2.208,2.208,0,0,1-.365,3.1L95.2,71.088a2.2,2.2,0,0,1-1.364.475m10.289-14.385a1.018,1.018,0,0,0-.634.22L91.726,66.684a1.026,1.026,0,0,0-.171,1.441l1.471,1.864a1.024,1.024,0,0,0,.686.384,1.012,1.012,0,0,0,.755-.213l11.766-9.285a1.026,1.026,0,0,0,.171-1.441l-1.471-1.864a1.025,1.025,0,0,0-.686-.384,1.118,1.118,0,0,0-.122-.007" transform="translate(-73.759 -45.813)" fill="#6d1912"/>
        <path id="Path_74" data-name="Path 74" d="M92.949,70.869a2.411,2.411,0,0,1-1.895-.916L89.585,68.09a2.4,2.4,0,0,1,.4-3.382l11.766-9.285a2.37,2.37,0,0,1,1.773-.5,2.394,2.394,0,0,1,1.608.9l1.469,1.864a2.405,2.405,0,0,1-.4,3.382L94.435,70.352a2.382,2.382,0,0,1-1.486.517M103.233,55.3a2,2,0,0,0-1.241.433L90.226,65.018a2.012,2.012,0,0,0-.333,2.827l1.471,1.864a2.013,2.013,0,0,0,2.827.334l11.766-9.285a2.011,2.011,0,0,0,.333-2.827l-1.471-1.864a2.024,2.024,0,0,0-1.586-.767M92.947,69.685a1.311,1.311,0,0,1-.145-.009,1.217,1.217,0,0,1-.819-.457l-1.471-1.864a1.222,1.222,0,0,1,.2-1.718l11.766-9.285a1.172,1.172,0,0,1,.9-.254,1.219,1.219,0,0,1,.819.457l1.471,1.864a1.223,1.223,0,0,1-.2,1.718L93.7,69.422a1.192,1.192,0,0,1-.754.263m10.29-13.2a.819.819,0,0,0-.512.178L90.96,65.947a.827.827,0,0,0-.137,1.163l1.469,1.864a.833.833,0,0,0,.555.311.815.815,0,0,0,.609-.173l11.767-9.285a.828.828,0,0,0,.137-1.163L103.891,56.8a.832.832,0,0,0-.555-.311c-.032,0-.066-.005-.1-.005" transform="translate(-72.871 -44.922)" fill="#6d1912"/>
        <path id="Path_75" data-name="Path 75" d="M172.879,158.368a1.989,1.989,0,0,1-1.6-.8h0l-4.818-6.5a1.984,1.984,0,0,1,.412-2.777l.2-.15a1.989,1.989,0,0,1,2.778.413l4.819,6.5a1.983,1.983,0,0,1-.413,2.778l-.2.149a1.983,1.983,0,0,1-1.182.389m-1.007-1.24a1.252,1.252,0,0,0,1.75.26l.2-.149a1.248,1.248,0,0,0,.261-1.749l-4.819-6.5a1.25,1.25,0,0,0-1.748-.259l-.2.15a1.246,1.246,0,0,0-.257,1.747Z" transform="translate(-135.876 -120.886)" fill="#6d1912"/>
        <path id="Path_76" data-name="Path 76" d="M171.989,157.675a2.2,2.2,0,0,1-1.757-.88l-4.818-6.5a2.18,2.18,0,0,1,.453-3.053l.2-.15a2.184,2.184,0,0,1,3.054.454l4.819,6.5a2.179,2.179,0,0,1-.455,3.054l-.2.149a2.176,2.176,0,0,1-1.3.429m-4.626-10.619a1.772,1.772,0,0,0-1.059.351l-.2.15a1.788,1.788,0,0,0-.37,2.5l4.818,6.5a1.8,1.8,0,0,0,1.44.721,1.783,1.783,0,0,0,1.065-.351l.2-.149a1.787,1.787,0,0,0,.373-2.5l-4.819-6.5a1.775,1.775,0,0,0-1.175-.7,1.822,1.822,0,0,0-.268-.02m4.628,9.884a1.459,1.459,0,0,1-.217-.016,1.436,1.436,0,0,1-.95-.57l-4.818-6.5a1.442,1.442,0,0,1,.3-2.023l.2-.149a1.448,1.448,0,0,1,2.024.3l4.819,6.5a1.444,1.444,0,0,1-.3,2.025l-.2.148a1.438,1.438,0,0,1-.86.285m-4.625-9.148a1.047,1.047,0,0,0-.624.207l-.2.15a1.051,1.051,0,0,0-.217,1.47l4.819,6.5a1.054,1.054,0,0,0,1.474.218l.2-.148a1.051,1.051,0,0,0,.221-1.473l-4.819-6.5a1.04,1.04,0,0,0-.689-.413,1.083,1.083,0,0,0-.159-.012" transform="translate(-134.986 -119.995)" fill="#6d1912"/>
        <path id="Path_77" data-name="Path 77" d="M95.741,135.772a1.766,1.766,0,0,1-.239-.016,3.28,3.28,0,0,1-2.069-1.6l-3.324-3.872a2.3,2.3,0,0,1-.732-1.8,3.432,3.432,0,0,1,1.3-2.229l.728.934a2.284,2.284,0,0,0-.849,1.372,1.193,1.193,0,0,0,.421.922l3.418,4c.2.331.726,1.036,1.263,1.106.1.011.381.049.8-.366l4.736-4.736a1.661,1.661,0,0,1,2.417,0l1.141,1.087-.817.857-1.152-1.1a.481.481,0,0,0-.757,0l-4.73,4.731a2.171,2.171,0,0,1-1.552.718" transform="translate(-73.123 -103.297)" fill="#6d1912"/>
        <path id="Path_78" data-name="Path 78" d="M94.852,134.728a2.03,2.03,0,0,1-.267-.018,3.462,3.462,0,0,1-2.212-1.7l-3.3-3.841a2.5,2.5,0,0,1-.78-1.944,3.614,3.614,0,0,1,1.38-2.373l.156-.119.968,1.244-.154.121a2.11,2.11,0,0,0-.774,1.229,1.01,1.01,0,0,0,.362.771l3.429,4.008c.234.375.712.983,1.139,1.038.079.006.29.03.629-.31l4.736-4.736a1.856,1.856,0,0,1,2.7,0l1.28,1.219-1.09,1.143-1.293-1.233a.293.293,0,0,0-.486,0l-4.725,4.727a2.377,2.377,0,0,1-1.693.776m-5.091-9.433a3.107,3.107,0,0,0-1.076,1.957,2.091,2.091,0,0,0,.674,1.651l3.335,3.883a3.175,3.175,0,0,0,1.946,1.533,1.515,1.515,0,0,0,.213.015,1.986,1.986,0,0,0,1.412-.661l4.73-4.731a.681.681,0,0,1,1.037,0l1.005.957.544-.571-1-.951a1.474,1.474,0,0,0-2.143,0l-4.734,4.736a1.1,1.1,0,0,1-.954.423c-.681-.089-1.253-.94-1.412-1.2l-3.4-3.971a1.36,1.36,0,0,1-.469-1.061,2.322,2.322,0,0,1,.777-1.385Z" transform="translate(-72.234 -102.056)" fill="#6d1912"/>
        <rect id="Rectangle_24" data-name="Rectangle 24" width="3.157" height="2.368" transform="translate(7.175 8.842)" fill="#6d1912"/>
        <line id="Line_1" data-name="Line 1" x2="6.315" transform="translate(7.965 17.13)" fill="#6d1912"/>
      </g>
    </g>
    <g id="Group_42" data-name="Group 42" transform="translate(2.262 17.13)">
      <g id="Group_41" data-name="Group 41" clip-path="url(#clip-path-2)">
        <path id="Path_79" data-name="Path 79" d="M43.805,94.215" transform="translate(-43.805 -94.214)" fill="#6d1912"/>
        <path id="Path_80" data-name="Path 80" d="M43.96,94.215" transform="translate(-43.805 -94.214)" fill="#6d1912"/>
        <path id="Path_81" data-name="Path 81" d="M44.115,94.215" transform="translate(-43.805 -94.214)" fill="#6d1912"/>
        <path id="Path_82" data-name="Path 82" d="M44.27,94.215" transform="translate(-43.805 -94.214)" fill="#6d1912"/>
        <path id="Path_83" data-name="Path 83" d="M44.425,94.215" transform="translate(-43.805 -94.214)" fill="#6d1912"/>
        <path id="Path_84" data-name="Path 84" d="M44.58,94.215" transform="translate(-43.805 -94.214)" fill="#6d1912"/>
        <path id="Path_85" data-name="Path 85" d="M44.735,94.215" transform="translate(-43.805 -94.214)" fill="#6d1912"/>
        <path id="Path_86" data-name="Path 86" d="M44.89,94.215" transform="translate(-43.805 -94.214)" fill="#6d1912"/>
        <path id="Path_87" data-name="Path 87" d="M45.045,94.215" transform="translate(-43.805 -94.214)" fill="#6d1912"/>
        <path id="Path_88" data-name="Path 88" d="M45.2,94.215" transform="translate(-43.805 -94.214)" fill="#6d1912"/>
        <path id="Path_89" data-name="Path 89" d="M45.355,94.215" transform="translate(-43.805 -94.214)" fill="#6d1912"/>
        <path id="Path_90" data-name="Path 90" d="M45.51,94.215" transform="translate(-43.805 -94.214)" fill="#6d1912"/>
        <path id="Path_91" data-name="Path 91" d="M45.665,94.215" transform="translate(-43.805 -94.214)" fill="#6d1912"/>
        <path id="Path_92" data-name="Path 92" d="M45.82,94.215" transform="translate(-43.805 -94.214)" fill="#6d1912"/>
        <path id="Path_93" data-name="Path 93" d="M45.975,94.215" transform="translate(-43.805 -94.214)" fill="#6d1912"/>
        <path id="Path_94" data-name="Path 94" d="M46.13,94.215" transform="translate(-43.805 -94.214)" fill="#6d1912"/>
        <path id="Path_95" data-name="Path 95" d="M46.285,94.215" transform="translate(-43.805 -94.214)" fill="#6d1912"/>
        <path id="Path_96" data-name="Path 96" d="M46.44,94.215" transform="translate(-43.805 -94.214)" fill="#6d1912"/>
        <path id="Path_97" data-name="Path 97" d="M46.6,94.215" transform="translate(-43.805 -94.214)" fill="#6d1912"/>
        <path id="Path_98" data-name="Path 98" d="M46.75,94.215" transform="translate(-43.805 -94.214)" fill="#6d1912"/>
        <path id="Path_99" data-name="Path 99" d="M46.9,94.215" transform="translate(-43.805 -94.214)" fill="#6d1912"/>
        <path id="Path_100" data-name="Path 100" d="M47.06,94.215" transform="translate(-43.805 -94.214)" fill="#6d1912"/>
        <path id="Path_101" data-name="Path 101" d="M47.215,94.215" transform="translate(-43.805 -94.214)" fill="#6d1912"/>
        <path id="Path_102" data-name="Path 102" d="M47.37,94.215" transform="translate(-43.805 -94.214)" fill="#6d1912"/>
        <path id="Path_103" data-name="Path 103" d="M47.526,94.215" transform="translate(-43.805 -94.214)" fill="#6d1912"/>
        <path id="Path_104" data-name="Path 104" d="M47.681,94.215" transform="translate(-43.805 -94.214)" fill="#6d1912"/>
        <path id="Path_105" data-name="Path 105" d="M47.836,94.215" transform="translate(-43.805 -94.214)" fill="#6d1912"/>
        <path id="Path_106" data-name="Path 106" d="M47.991,94.215" transform="translate(-43.805 -94.214)" fill="#6d1912"/>
        <path id="Path_107" data-name="Path 107" d="M48.146,94.215" transform="translate(-43.805 -94.214)" fill="#6d1912"/>
        <path id="Path_108" data-name="Path 108" d="M48.3,94.215" transform="translate(-43.805 -94.214)" fill="#6d1912"/>
        <path id="Path_109" data-name="Path 109" d="M48.456,94.215" transform="translate(-43.805 -94.214)" fill="#6d1912"/>
        <path id="Path_110" data-name="Path 110" d="M48.611,94.215" transform="translate(-43.805 -94.214)" fill="#6d1912"/>
        <path id="Path_111" data-name="Path 111" d="M48.766,94.215" transform="translate(-43.805 -94.214)" fill="#6d1912"/>
        <path id="Path_112" data-name="Path 112" d="M48.921,94.215" transform="translate(-43.805 -94.214)" fill="#6d1912"/>
        <path id="Path_113" data-name="Path 113" d="M49.076,94.215" transform="translate(-43.805 -94.214)" fill="#6d1912"/>
        <path id="Path_114" data-name="Path 114" d="M49.231,94.215" transform="translate(-43.805 -94.214)" fill="#6d1912"/>
        <path id="Path_115" data-name="Path 115" d="M49.386,94.215" transform="translate(-43.805 -94.214)" fill="#6d1912"/>
        <path id="Path_116" data-name="Path 116" d="M49.541,94.215" transform="translate(-43.805 -94.214)" fill="#6d1912"/>
        <path id="Path_117" data-name="Path 117" d="M49.7,94.215" transform="translate(-43.805 -94.214)" fill="#6d1912"/>
        <path id="Path_118" data-name="Path 118" d="M49.851,94.215" transform="translate(-43.805 -94.214)" fill="#6d1912"/>
        <path id="Path_119" data-name="Path 119" d="M50.006,94.215" transform="translate(-43.805 -94.214)" fill="#6d1912"/>
        <path id="Path_120" data-name="Path 120" d="M50.161,94.215" transform="translate(-43.805 -94.214)" fill="#6d1912"/>
        <path id="Path_121" data-name="Path 121" d="M50.316,94.215" transform="translate(-43.805 -94.214)" fill="#6d1912"/>
        <path id="Path_122" data-name="Path 122" d="M50.471,94.215" transform="translate(-43.805 -94.214)" fill="#6d1912"/>
        <path id="Path_123" data-name="Path 123" d="M50.626,94.215" transform="translate(-43.805 -94.214)" fill="#6d1912"/>
        <path id="Path_124" data-name="Path 124" d="M50.782,94.215" transform="translate(-43.805 -94.214)" fill="#6d1912"/>
        <path id="Path_125" data-name="Path 125" d="M50.937,94.215" transform="translate(-43.805 -94.214)" fill="#6d1912"/>
        <path id="Path_126" data-name="Path 126" d="M51.092,94.215" transform="translate(-43.805 -94.214)" fill="#6d1912"/>
        <path id="Path_127" data-name="Path 127" d="M51.247,94.215" transform="translate(-43.805 -94.214)" fill="#6d1912"/>
        <path id="Path_128" data-name="Path 128" d="M51.4,94.215" transform="translate(-43.805 -94.214)" fill="#6d1912"/>
        <path id="Path_129" data-name="Path 129" d="M51.557,94.215" transform="translate(-43.805 -94.214)" fill="#6d1912"/>
        <path id="Path_130" data-name="Path 130" d="M51.712,94.215" transform="translate(-43.805 -94.214)" fill="#6d1912"/>
        <path id="Path_131" data-name="Path 131" d="M51.867,94.215" transform="translate(-43.805 -94.214)" fill="#6d1912"/>
        <path id="Path_132" data-name="Path 132" d="M52.022,94.215" transform="translate(-43.805 -94.214)" fill="#6d1912"/>
        <path id="Path_133" data-name="Path 133" d="M52.177,94.215" transform="translate(-43.805 -94.214)" fill="#6d1912"/>
        <path id="Path_134" data-name="Path 134" d="M52.332,94.215" transform="translate(-43.805 -94.214)" fill="#6d1912"/>
        <path id="Path_135" data-name="Path 135" d="M52.487,94.215" transform="translate(-43.805 -94.214)" fill="#6d1912"/>
        <path id="Path_136" data-name="Path 136" d="M52.642,94.215" transform="translate(-43.805 -94.214)" fill="#6d1912"/>
        <path id="Path_137" data-name="Path 137" d="M52.8,94.215" transform="translate(-43.805 -94.214)" fill="#6d1912"/>
        <path id="Path_138" data-name="Path 138" d="M52.952,94.215" transform="translate(-43.805 -94.214)" fill="#6d1912"/>
        <path id="Path_139" data-name="Path 139" d="M53.107,94.215" transform="translate(-43.805 -94.214)" fill="#6d1912"/>
        <path id="Path_140" data-name="Path 140" d="M53.262,94.215" transform="translate(-43.805 -94.214)" fill="#6d1912"/>
        <path id="Path_141" data-name="Path 141" d="M53.417,94.215" transform="translate(-43.805 -94.214)" fill="#6d1912"/>
        <path id="Path_142" data-name="Path 142" d="M53.572,94.215" transform="translate(-43.805 -94.214)" fill="#6d1912"/>
        <path id="Path_143" data-name="Path 143" d="M53.727,94.215" transform="translate(-43.805 -94.214)" fill="#6d1912"/>
        <path id="Path_144" data-name="Path 144" d="M53.882,94.215" transform="translate(-43.805 -94.214)" fill="#6d1912"/>
        <path id="Path_145" data-name="Path 145" d="M54.037,94.215" transform="translate(-43.805 -94.214)" fill="#6d1912"/>
        <path id="Path_146" data-name="Path 146" d="M54.193,94.215" transform="translate(-43.805 -94.214)" fill="#6d1912"/>
        <path id="Path_147" data-name="Path 147" d="M54.347,94.215" transform="translate(-43.805 -94.214)" fill="#6d1912"/>
        <path id="Path_148" data-name="Path 148" d="M54.5,94.215" transform="translate(-43.805 -94.214)" fill="#6d1912"/>
        <path id="Path_149" data-name="Path 149" d="M54.658,94.215" transform="translate(-43.805 -94.214)" fill="#6d1912"/>
        <path id="Path_150" data-name="Path 150" d="M54.813,94.215" transform="translate(-43.805 -94.214)" fill="#6d1912"/>
        <path id="Path_151" data-name="Path 151" d="M54.968,94.215" transform="translate(-43.805 -94.214)" fill="#6d1912"/>
        <path id="Path_152" data-name="Path 152" d="M55.123,94.215" transform="translate(-43.805 -94.214)" fill="#6d1912"/>
        <path id="Path_153" data-name="Path 153" d="M55.278,94.215" transform="translate(-43.805 -94.214)" fill="#6d1912"/>
        <path id="Path_154" data-name="Path 154" d="M55.433,94.215" transform="translate(-43.805 -94.214)" fill="#6d1912"/>
        <path id="Path_155" data-name="Path 155" d="M55.588,94.215" transform="translate(-43.805 -94.214)" fill="#6d1912"/>
        <path id="Path_156" data-name="Path 156" d="M55.743,94.215" transform="translate(-43.805 -94.214)" fill="#6d1912"/>
        <path id="Path_157" data-name="Path 157" d="M55.9,94.215" transform="translate(-43.805 -94.214)" fill="#6d1912"/>
        <path id="Path_158" data-name="Path 158" d="M56.053,94.215" transform="translate(-43.805 -94.214)" fill="#6d1912"/>
        <path id="Path_159" data-name="Path 159" d="M56.208,94.215" transform="translate(-43.805 -94.214)" fill="#6d1912"/>
        <path id="Path_160" data-name="Path 160" d="M56.363,94.215" transform="translate(-43.805 -94.214)" fill="#6d1912"/>
        <path id="Path_161" data-name="Path 161" d="M56.518,94.215" transform="translate(-43.805 -94.214)" fill="#6d1912"/>
        <path id="Path_162" data-name="Path 162" d="M56.673,94.215" transform="translate(-43.805 -94.214)" fill="#6d1912"/>
        <path id="Path_163" data-name="Path 163" d="M56.828,94.215" transform="translate(-43.805 -94.214)" fill="#6d1912"/>
        <path id="Path_164" data-name="Path 164" d="M56.983,94.215" transform="translate(-43.805 -94.214)" fill="#6d1912"/>
        <path id="Path_165" data-name="Path 165" d="M57.138,94.215" transform="translate(-43.805 -94.214)" fill="#6d1912"/>
        <path id="Path_166" data-name="Path 166" d="M57.293,94.215" transform="translate(-43.805 -94.214)" fill="#6d1912"/>
        <path id="Path_167" data-name="Path 167" d="M57.448,94.215" transform="translate(-43.805 -94.214)" fill="#6d1912"/>
        <path id="Path_168" data-name="Path 168" d="M57.6,94.215" transform="translate(-43.805 -94.214)" fill="#6d1912"/>
        <path id="Path_169" data-name="Path 169" d="M57.758,94.215" transform="translate(-43.805 -94.214)" fill="#6d1912"/>
        <path id="Path_170" data-name="Path 170" d="M57.914,94.215" transform="translate(-43.805 -94.214)" fill="#6d1912"/>
        <path id="Path_171" data-name="Path 171" d="M58.069,94.215" transform="translate(-43.805 -94.214)" fill="#6d1912"/>
        <path id="Path_172" data-name="Path 172" d="M58.224,94.215" transform="translate(-43.805 -94.214)" fill="#6d1912"/>
        <path id="Path_173" data-name="Path 173" d="M58.379,94.215" transform="translate(-43.805 -94.214)" fill="#6d1912"/>
        <path id="Path_174" data-name="Path 174" d="M58.534,94.215" transform="translate(-43.805 -94.214)" fill="#6d1912"/>
        <path id="Path_175" data-name="Path 175" d="M58.689,94.215" transform="translate(-43.805 -94.214)" fill="#6d1912"/>
        <path id="Path_176" data-name="Path 176" d="M58.844,94.215" transform="translate(-43.805 -94.214)" fill="#6d1912"/>
        <path id="Path_177" data-name="Path 177" d="M59,94.215" transform="translate(-43.805 -94.214)" fill="#6d1912"/>
        <path id="Path_178" data-name="Path 178" d="M59.154,94.215" transform="translate(-43.805 -94.214)" fill="#6d1912"/>
        <path id="Path_179" data-name="Path 179" d="M59.309,94.215" transform="translate(-43.805 -94.214)" fill="#6d1912"/>
        <path id="Path_180" data-name="Path 180" d="M59.464,94.215" transform="translate(-43.805 -94.214)" fill="#6d1912"/>
        <path id="Path_181" data-name="Path 181" d="M59.619,94.215" transform="translate(-43.805 -94.214)" fill="#6d1912"/>
        <path id="Path_182" data-name="Path 182" d="M59.774,94.215" transform="translate(-43.805 -94.214)" fill="#6d1912"/>
        <path id="Path_183" data-name="Path 183" d="M59.929,94.215" transform="translate(-43.805 -94.214)" fill="#6d1912"/>
        <path id="Path_184" data-name="Path 184" d="M60.084,94.215" transform="translate(-43.805 -94.214)" fill="#6d1912"/>
        <path id="Path_185" data-name="Path 185" d="M60.239,94.215" transform="translate(-43.805 -94.214)" fill="#6d1912"/>
        <path id="Path_186" data-name="Path 186" d="M60.394,94.215" transform="translate(-43.805 -94.214)" fill="#6d1912"/>
        <path id="Path_187" data-name="Path 187" d="M60.549,94.215" transform="translate(-43.805 -94.214)" fill="#6d1912"/>
        <path id="Path_188" data-name="Path 188" d="M60.7,94.215" transform="translate(-43.805 -94.214)" fill="#6d1912"/>
        <path id="Path_189" data-name="Path 189" d="M60.859,94.215" transform="translate(-43.805 -94.214)" fill="#6d1912"/>
        <path id="Path_190" data-name="Path 190" d="M61.014,94.215" transform="translate(-43.805 -94.214)" fill="#6d1912"/>
        <path id="Path_191" data-name="Path 191" d="M61.169,94.215" transform="translate(-43.805 -94.214)" fill="#6d1912"/>
        <path id="Path_192" data-name="Path 192" d="M61.325,94.215" transform="translate(-43.805 -94.214)" fill="#6d1912"/>
        <path id="Path_193" data-name="Path 193" d="M61.48,94.215" transform="translate(-43.805 -94.214)" fill="#6d1912"/>
        <path id="Path_194" data-name="Path 194" d="M61.635,94.215" transform="translate(-43.805 -94.214)" fill="#6d1912"/>
        <path id="Path_195" data-name="Path 195" d="M61.79,94.215" transform="translate(-43.805 -94.214)" fill="#6d1912"/>
        <path id="Path_196" data-name="Path 196" d="M61.945,94.215" transform="translate(-43.805 -94.214)" fill="#6d1912"/>
        <path id="Path_197" data-name="Path 197" d="M62.1,94.215" transform="translate(-43.805 -94.214)" fill="#6d1912"/>
        <path id="Path_198" data-name="Path 198" d="M62.255,94.215" transform="translate(-43.805 -94.214)" fill="#6d1912"/>
        <path id="Path_199" data-name="Path 199" d="M62.41,94.215" transform="translate(-43.805 -94.214)" fill="#6d1912"/>
        <path id="Path_200" data-name="Path 200" d="M62.565,94.215" transform="translate(-43.805 -94.214)" fill="#6d1912"/>
        <path id="Path_201" data-name="Path 201" d="M62.72,94.215" transform="translate(-43.805 -94.214)" fill="#6d1912"/>
        <path id="Path_202" data-name="Path 202" d="M62.875,94.215" transform="translate(-43.805 -94.214)" fill="#6d1912"/>
        <path id="Path_203" data-name="Path 203" d="M63.03,94.215" transform="translate(-43.805 -94.214)" fill="#6d1912"/>
        <path id="Path_204" data-name="Path 204" d="M63.185,94.215" transform="translate(-43.805 -94.214)" fill="#6d1912"/>
        <path id="Path_205" data-name="Path 205" d="M63.34,94.215" transform="translate(-43.805 -94.214)" fill="#6d1912"/>
        <path id="Path_206" data-name="Path 206" d="M63.495,94.215" transform="translate(-43.805 -94.214)" fill="#6d1912"/>
        <path id="Path_207" data-name="Path 207" d="M63.65,94.215" transform="translate(-43.805 -94.214)" fill="#6d1912"/>
        <path id="Path_208" data-name="Path 208" d="M63.805,94.215" transform="translate(-43.805 -94.214)" fill="#6d1912"/>
        <path id="Path_209" data-name="Path 209" d="M63.96,94.215" transform="translate(-43.805 -94.214)" fill="#6d1912"/>
        <path id="Path_210" data-name="Path 210" d="M64.115,94.215" transform="translate(-43.805 -94.214)" fill="#6d1912"/>
        <path id="Path_211" data-name="Path 211" d="M64.27,94.215" transform="translate(-43.805 -94.214)" fill="#6d1912"/>
        <path id="Path_212" data-name="Path 212" d="M64.425,94.215" transform="translate(-43.805 -94.214)" fill="#6d1912"/>
        <path id="Path_213" data-name="Path 213" d="M64.58,94.215" transform="translate(-43.805 -94.214)" fill="#6d1912"/>
        <path id="Path_214" data-name="Path 214" d="M64.735,94.215" transform="translate(-43.805 -94.214)" fill="#6d1912"/>
        <path id="Path_215" data-name="Path 215" d="M64.891,94.215" transform="translate(-43.805 -94.214)" fill="#6d1912"/>
        <path id="Path_216" data-name="Path 216" d="M65.046,94.215" transform="translate(-43.805 -94.214)" fill="#6d1912"/>
        <path id="Path_217" data-name="Path 217" d="M65.2,94.215" transform="translate(-43.805 -94.214)" fill="#6d1912"/>
        <path id="Path_218" data-name="Path 218" d="M65.356,94.215" transform="translate(-43.805 -94.214)" fill="#6d1912"/>
        <path id="Path_219" data-name="Path 219" d="M65.511,94.215" transform="translate(-43.805 -94.214)" fill="#6d1912"/>
        <path id="Path_220" data-name="Path 220" d="M65.666,94.215" transform="translate(-43.805 -94.214)" fill="#6d1912"/>
        <path id="Path_221" data-name="Path 221" d="M65.821,94.215" transform="translate(-43.805 -94.214)" fill="#6d1912"/>
        <path id="Path_222" data-name="Path 222" d="M65.976,94.215" transform="translate(-43.805 -94.214)" fill="#6d1912"/>
        <path id="Path_223" data-name="Path 223" d="M66.131,94.215" transform="translate(-43.805 -94.214)" fill="#6d1912"/>
        <path id="Path_224" data-name="Path 224" d="M66.286,94.215" transform="translate(-43.805 -94.214)" fill="#6d1912"/>
        <path id="Path_225" data-name="Path 225" d="M66.441,94.215" transform="translate(-43.805 -94.214)" fill="#6d1912"/>
        <path id="Path_226" data-name="Path 226" d="M66.6,94.215" transform="translate(-43.805 -94.214)" fill="#6d1912"/>
        <path id="Path_227" data-name="Path 227" d="M66.751,94.215" transform="translate(-43.805 -94.214)" fill="#6d1912"/>
        <path id="Path_228" data-name="Path 228" d="M66.906,94.215" transform="translate(-43.805 -94.214)" fill="#6d1912"/>
        <path id="Path_229" data-name="Path 229" d="M67.061,94.215" transform="translate(-43.805 -94.214)" fill="#6d1912"/>
        <path id="Path_230" data-name="Path 230" d="M67.216,94.215" transform="translate(-43.805 -94.214)" fill="#6d1912"/>
        <path id="Path_231" data-name="Path 231" d="M67.371,94.215" transform="translate(-43.805 -94.214)" fill="#6d1912"/>
        <path id="Path_232" data-name="Path 232" d="M67.526,94.215" transform="translate(-43.805 -94.214)" fill="#6d1912"/>
        <path id="Path_233" data-name="Path 233" d="M67.681,94.215" transform="translate(-43.805 -94.214)" fill="#6d1912"/>
        <path id="Path_234" data-name="Path 234" d="M67.836,94.215" transform="translate(-43.805 -94.214)" fill="#6d1912"/>
        <path id="Path_235" data-name="Path 235" d="M67.991,94.215" transform="translate(-43.805 -94.214)" fill="#6d1912"/>
        <path id="Path_236" data-name="Path 236" d="M68.146,94.215" transform="translate(-43.805 -94.214)" fill="#6d1912"/>
        <path id="Path_237" data-name="Path 237" d="M68.3,94.215" transform="translate(-43.805 -94.214)" fill="#6d1912"/>
        <path id="Path_238" data-name="Path 238" d="M68.457,94.215" transform="translate(-43.805 -94.214)" fill="#6d1912"/>
        <path id="Path_239" data-name="Path 239" d="M68.612,94.215" transform="translate(-43.805 -94.214)" fill="#6d1912"/>
        <path id="Path_240" data-name="Path 240" d="M68.767,94.215" transform="translate(-43.805 -94.214)" fill="#6d1912"/>
        <path id="Path_241" data-name="Path 241" d="M68.922,94.215" transform="translate(-43.805 -94.214)" fill="#6d1912"/>
        <path id="Path_242" data-name="Path 242" d="M69.077,94.215" transform="translate(-43.805 -94.214)" fill="#6d1912"/>
        <path id="Path_243" data-name="Path 243" d="M69.232,94.215" transform="translate(-43.805 -94.214)" fill="#6d1912"/>
        <path id="Path_244" data-name="Path 244" d="M69.387,94.215" transform="translate(-43.805 -94.214)" fill="#6d1912"/>
        <path id="Path_245" data-name="Path 245" d="M69.542,94.215" transform="translate(-43.805 -94.214)" fill="#6d1912"/>
        <path id="Path_246" data-name="Path 246" d="M69.7,94.215" transform="translate(-43.805 -94.214)" fill="#6d1912"/>
        <path id="Path_247" data-name="Path 247" d="M69.852,94.215" transform="translate(-43.805 -94.214)" fill="#6d1912"/>
        <path id="Path_248" data-name="Path 248" d="M70.007,94.215" transform="translate(-43.805 -94.214)" fill="#6d1912"/>
        <path id="Path_249" data-name="Path 249" d="M70.162,94.215" transform="translate(-43.805 -94.214)" fill="#6d1912"/>
        <path id="Path_250" data-name="Path 250" d="M70.317,94.215" transform="translate(-43.805 -94.214)" fill="#6d1912"/>
        <path id="Path_251" data-name="Path 251" d="M70.472,94.215" transform="translate(-43.805 -94.214)" fill="#6d1912"/>
        <path id="Path_252" data-name="Path 252" d="M70.627,94.215" transform="translate(-43.805 -94.214)" fill="#6d1912"/>
        <path id="Path_253" data-name="Path 253" d="M70.782,94.215" transform="translate(-43.805 -94.214)" fill="#6d1912"/>
        <path id="Path_254" data-name="Path 254" d="M70.937,94.215" transform="translate(-43.805 -94.214)" fill="#6d1912"/>
        <path id="Path_255" data-name="Path 255" d="M71.092,94.215" transform="translate(-43.805 -94.214)" fill="#6d1912"/>
        <path id="Path_256" data-name="Path 256" d="M71.247,94.215" transform="translate(-43.805 -94.214)" fill="#6d1912"/>
        <path id="Path_257" data-name="Path 257" d="M71.4,94.215" transform="translate(-43.805 -94.214)" fill="#6d1912"/>
        <path id="Path_258" data-name="Path 258" d="M71.557,94.215" transform="translate(-43.805 -94.214)" fill="#6d1912"/>
        <path id="Path_259" data-name="Path 259" d="M71.713,94.215" transform="translate(-43.805 -94.214)" fill="#6d1912"/>
        <path id="Path_260" data-name="Path 260" d="M71.868,94.215" transform="translate(-43.805 -94.214)" fill="#6d1912"/>
        <path id="Path_261" data-name="Path 261" d="M72.023,94.215" transform="translate(-43.805 -94.214)" fill="#6d1912"/>
        <path id="Path_262" data-name="Path 262" d="M72.178,94.215" transform="translate(-43.805 -94.214)" fill="#6d1912"/>
        <path id="Path_263" data-name="Path 263" d="M72.333,94.215" transform="translate(-43.805 -94.214)" fill="#6d1912"/>
        <path id="Path_264" data-name="Path 264" d="M72.488,94.215" transform="translate(-43.805 -94.214)" fill="#6d1912"/>
        <path id="Path_265" data-name="Path 265" d="M72.643,94.215" transform="translate(-43.805 -94.214)" fill="#6d1912"/>
        <path id="Path_266" data-name="Path 266" d="M72.8,94.215" transform="translate(-43.805 -94.214)" fill="#6d1912"/>
        <path id="Path_267" data-name="Path 267" d="M72.953,94.215" transform="translate(-43.805 -94.214)" fill="#6d1912"/>
        <path id="Path_268" data-name="Path 268" d="M73.108,94.215" transform="translate(-43.805 -94.214)" fill="#6d1912"/>
        <path id="Path_269" data-name="Path 269" d="M73.263,94.215" transform="translate(-43.805 -94.214)" fill="#6d1912"/>
        <path id="Path_270" data-name="Path 270" d="M73.418,94.215" transform="translate(-43.805 -94.214)" fill="#6d1912"/>
        <path id="Path_271" data-name="Path 271" d="M73.573,94.215" transform="translate(-43.805 -94.214)" fill="#6d1912"/>
        <path id="Path_272" data-name="Path 272" d="M73.728,94.215" transform="translate(-43.805 -94.214)" fill="#6d1912"/>
        <path id="Path_273" data-name="Path 273" d="M73.883,94.215" transform="translate(-43.805 -94.214)" fill="#6d1912"/>
        <path id="Path_274" data-name="Path 274" d="M74.038,94.215" transform="translate(-43.805 -94.214)" fill="#6d1912"/>
        <path id="Path_275" data-name="Path 275" d="M74.193,94.215" transform="translate(-43.805 -94.214)" fill="#6d1912"/>
        <path id="Path_276" data-name="Path 276" d="M74.348,94.215" transform="translate(-43.805 -94.214)" fill="#6d1912"/>
        <path id="Path_277" data-name="Path 277" d="M74.5,94.215" transform="translate(-43.805 -94.214)" fill="#6d1912"/>
        <path id="Path_278" data-name="Path 278" d="M74.658,94.215" transform="translate(-43.805 -94.214)" fill="#6d1912"/>
        <path id="Path_279" data-name="Path 279" d="M74.813,94.215" transform="translate(-43.805 -94.214)" fill="#6d1912"/>
        <path id="Path_280" data-name="Path 280" d="M74.968,94.215" transform="translate(-43.805 -94.214)" fill="#6d1912"/>
        <path id="Path_281" data-name="Path 281" d="M75.123,94.215" transform="translate(-43.805 -94.214)" fill="#6d1912"/>
        <path id="Path_282" data-name="Path 282" d="M75.279,94.215" transform="translate(-43.805 -94.214)" fill="#6d1912"/>
        <path id="Path_283" data-name="Path 283" d="M75.434,94.215" transform="translate(-43.805 -94.214)" fill="#6d1912"/>
        <path id="Path_284" data-name="Path 284" d="M75.589,94.215" transform="translate(-43.805 -94.214)" fill="#6d1912"/>
        <path id="Path_285" data-name="Path 285" d="M75.744,94.215" transform="translate(-43.805 -94.214)" fill="#6d1912"/>
        <path id="Path_286" data-name="Path 286" d="M75.9,94.215" transform="translate(-43.805 -94.214)" fill="#6d1912"/>
        <path id="Path_287" data-name="Path 287" d="M76.054,94.215" transform="translate(-43.805 -94.214)" fill="#6d1912"/>
        <path id="Path_288" data-name="Path 288" d="M76.209,94.215" transform="translate(-43.805 -94.214)" fill="#6d1912"/>
        <path id="Path_289" data-name="Path 289" d="M76.364,94.215" transform="translate(-43.805 -94.214)" fill="#6d1912"/>
        <path id="Path_290" data-name="Path 290" d="M76.519,94.215" transform="translate(-43.805 -94.214)" fill="#6d1912"/>
        <path id="Path_291" data-name="Path 291" d="M76.674,94.215" transform="translate(-43.805 -94.214)" fill="#6d1912"/>
        <path id="Path_292" data-name="Path 292" d="M76.829,94.215" transform="translate(-43.805 -94.214)" fill="#6d1912"/>
        <path id="Path_293" data-name="Path 293" d="M76.984,94.215" transform="translate(-43.805 -94.214)" fill="#6d1912"/>
        <path id="Path_294" data-name="Path 294" d="M77.139,94.215" transform="translate(-43.805 -94.214)" fill="#6d1912"/>
        <path id="Path_295" data-name="Path 295" d="M77.294,94.215" transform="translate(-43.805 -94.214)" fill="#6d1912"/>
        <path id="Path_296" data-name="Path 296" d="M77.449,94.215" transform="translate(-43.805 -94.214)" fill="#6d1912"/>
        <path id="Path_297" data-name="Path 297" d="M77.6,94.215" transform="translate(-43.805 -94.214)" fill="#6d1912"/>
        <path id="Path_298" data-name="Path 298" d="M77.759,94.215" transform="translate(-43.805 -94.214)" fill="#6d1912"/>
        <path id="Path_299" data-name="Path 299" d="M77.914,94.215" transform="translate(-43.805 -94.214)" fill="#6d1912"/>
        <path id="Path_300" data-name="Path 300" d="M78.069,94.215" transform="translate(-43.805 -94.214)" fill="#6d1912"/>
        <path id="Path_301" data-name="Path 301" d="M78.224,94.215" transform="translate(-43.805 -94.214)" fill="#6d1912"/>
        <path id="Path_302" data-name="Path 302" d="M78.379,94.215" transform="translate(-43.805 -94.214)" fill="#6d1912"/>
        <path id="Path_303" data-name="Path 303" d="M78.535,94.215" transform="translate(-43.805 -94.214)" fill="#6d1912"/>
        <path id="Path_304" data-name="Path 304" d="M78.535,94.215" transform="translate(-43.805 -94.214)" fill="#6d1912"/>
      </g>
    </g>
    <g id="Group_44" data-name="Group 44">
      <g id="Group_43" data-name="Group 43" clip-path="url(#clip-path)">
        <rect id="Rectangle_26" data-name="Rectangle 26" width="6.315" height="2.368" transform="translate(7.964 15.946)" fill="#6d1912"/>
        <rect id="Rectangle_27" data-name="Rectangle 27" width="12.894" height="2.368" transform="translate(11.646 8.842)" fill="#6d1912"/>
      </g>
    </g>
  </g>
</svg>
