<svg xmlns="http://www.w3.org/2000/svg" width="178.738" height="34.617" viewBox="0 0 178.738 34.617">
  <g id="Group_80" data-name="Group 80" transform="translate(0 0)">
    <g id="Group_81" data-name="Group 81" transform="translate(0 0)">
      <path id="Path_413" data-name="Path 413" d="M154.831,0H18.023A13.561,13.561,0,0,0,9.562,2.945,14.328,14.328,0,0,1,14.9,14.095a14.289,14.289,0,0,1-4.426,10.334A13.586,13.586,0,0,0,18.023,26.7H154.831a13.436,13.436,0,0,0,13.523-13.35A13.436,13.436,0,0,0,154.831,0" transform="translate(10.384 0)" fill="#462e83"/>
      <path id="Path_414" data-name="Path 414" d="M9.1,18.254a7.561,7.561,0,1,1,7.649-7.562A7.614,7.614,0,0,1,9.1,18.254m0-13.648a6.089,6.089,0,1,0,6.177,6.087A6.139,6.139,0,0,0,9.1,4.606" transform="translate(1.574 3.403)" fill="#462e83"/>
      <path id="Path_415" data-name="Path 415" d="M16.747,24.514,9.1,20.112l-7.649,4.4V9.3L2.694,10.5a9.269,9.269,0,0,0,12.808,0L16.747,9.3ZM2.922,12.586v9.383L9.1,18.415l6.177,3.554V12.586a10.989,10.989,0,0,1-12.353,0" transform="translate(1.574 10.103)" fill="#462e83"/>
      <path id="Path_416" data-name="Path 416" d="M10.672,22.791A10.62,10.62,0,0,1,0,12.247a10.673,10.673,0,0,1,21.344,0A10.62,10.62,0,0,1,10.672,22.791m0-19.616a9.146,9.146,0,0,0-9.2,9.072,9.2,9.2,0,0,0,18.4,0,9.146,9.146,0,0,0-9.2-9.072" transform="translate(0 1.849)" fill="#462e83"/>
      <path id="Path_417" data-name="Path 417" d="M25.836,4.888V15.234H23.915V4.888H21.872V3.177h6.022v1.71Z" transform="translate(23.753 3.451)" fill="#fff"/>
      <path id="Path_418" data-name="Path 418" d="M30.022,15.234l-1.6-4.946H27.346v4.946H25.425V3.177h3.087c2.23,0,3.123,1.066,3.123,3.557,0,1.489-.309,2.557-1.425,3.15l1.819,5.351ZM28.529,4.887H27.346V8.58h1.183c1.03,0,1.185-.847,1.185-1.846s-.154-1.846-1.185-1.846" transform="translate(27.611 3.451)" fill="#fff"/>
      <path id="Path_419" data-name="Path 419" d="M34.61,14.489a3.054,3.054,0,0,1-2.263.88,2.953,2.953,0,0,1-3.123-3.1V3.177h1.921v9.195a1.165,1.165,0,0,0,1.2,1.287,1.153,1.153,0,0,0,1.183-1.287V3.177h1.921v9.095a3.091,3.091,0,0,1-.841,2.217" transform="translate(31.736 3.451)" fill="#fff"/>
      <path id="Path_420" data-name="Path 420" d="M38.481,14.609a3.388,3.388,0,0,1-2.386.795,3.251,3.251,0,0,1-2.365-.795,3.3,3.3,0,0,1-.788-2.591h1.921a1.9,1.9,0,0,0,.342,1.354,1.166,1.166,0,0,0,.891.323,1.138,1.138,0,0,0,.928-.34,1.9,1.9,0,0,0,.325-1.337c0-1.287-.207-1.608-1.149-1.982l-1.458-.592c-1.235-.507-1.7-1.168-1.7-3.031a3.271,3.271,0,0,1,1-2.557,3.1,3.1,0,0,1,2.092-.728,3.055,3.055,0,0,1,2.2.728,3.424,3.424,0,0,1,.857,2.626H37.263a1.992,1.992,0,0,0-.292-1.289,1.189,1.189,0,0,0-1.679-.015,1.766,1.766,0,0,0-.327,1.185c0,.982.154,1.287,1.012,1.625l1.441.576c1.458.592,1.852,1.354,1.852,3.388a3.409,3.409,0,0,1-.788,2.658" transform="translate(35.773 3.397)" fill="#fff"/>
      <path id="Path_421" data-name="Path 421" d="M40.381,4.888V15.234H38.46V4.888H36.42V3.177h6.02v1.71Z" transform="translate(39.551 3.451)" fill="#fff"/>
      <path id="Path_422" data-name="Path 422" d="M39.971,15.234V3.177H45.1v1.71H41.894V8.309h2.76v1.71h-2.76v3.5H45.1v1.71Z" transform="translate(43.407 3.451)" fill="#fff"/>
      <path id="Path_423" data-name="Path 423" d="M48.7,14.235a2.948,2.948,0,0,1-2.365,1H43.228V3.177h3.108a2.948,2.948,0,0,1,2.365,1c.824.9.893,2.234.893,5.013s-.069,4.147-.893,5.046M47.26,5.378a1.111,1.111,0,0,0-.978-.49H45.151v8.636h1.131a1.113,1.113,0,0,0,.978-.492c.38-.559.413-1.744.413-3.842s-.033-3.252-.413-3.811" transform="translate(46.944 3.451)" fill="#fff"/>
      <path id="Path_424" data-name="Path 424" d="M51.652,10.509H50.5v4.725H48.581V3.177h3.071c2.213,0,3.139,1.151,3.139,3.675s-.926,3.657-3.139,3.657m-.069-5.622H50.5V8.8h1.081c1.028,0,1.287-.728,1.287-1.946s-.259-1.965-1.287-1.965" transform="translate(52.757 3.451)" fill="#fff"/>
      <path id="Path_425" data-name="Path 425" d="M57.325,15.233l-.5-2.386H54l-.48,2.386H51.491l3-12.055h1.869l2.968,12.055Zm-1.9-9.143-1.047,5.046h2.092Z" transform="translate(55.918 3.452)" fill="#fff"/>
      <path id="Path_426" data-name="Path 426" d="M60.39,15.234l-1.6-4.946H57.716v4.946H55.793V3.177H58.88C61.112,3.177,62,4.243,62,6.734c0,1.489-.309,2.557-1.423,3.15L62.4,15.234ZM58.9,4.887H57.716V8.58H58.9c1.028,0,1.183-.847,1.183-1.846S59.927,4.887,58.9,4.887" transform="translate(60.589 3.451)" fill="#fff"/>
      <path id="Path_427" data-name="Path 427" d="M63.158,4.888V15.234H61.237V4.888H59.2V3.177h6.02v1.71Z" transform="translate(64.286 3.451)" fill="#fff"/>
      <path id="Path_428" data-name="Path 428" d="M67.552,15.234,64.672,8.071v7.163H62.748V3.177h1.717l2.866,7.163V3.177H69.25V15.234Z" transform="translate(68.143 3.451)" fill="#fff"/>
      <path id="Path_429" data-name="Path 429" d="M66.852,15.234V3.177h5.129v1.71H68.775V8.309h2.76v1.71h-2.76v3.5h3.206v1.71Z" transform="translate(72.599 3.451)" fill="#fff"/>
      <path id="Path_430" data-name="Path 430" d="M74.706,15.234l-1.6-4.946H72.032v4.946H70.109V3.177H73.2c2.232,0,3.123,1.066,3.123,3.557,0,1.489-.309,2.557-1.423,3.15l1.819,5.351ZM73.215,4.887H72.032V8.58h1.183c1.028,0,1.183-.847,1.183-1.846s-.154-1.846-1.183-1.846" transform="translate(76.136 3.451)" fill="#fff"/>
    </g>
  </g>
</svg>
