<svg xmlns="http://www.w3.org/2000/svg" xmlns:xlink="http://www.w3.org/1999/xlink" width="46.5" height="46.5" viewBox="0 0 46.5 46.5">
  <defs>
    <clipPath id="clip-path">
      <rect id="Rectangle_84" data-name="Rectangle 84" width="46" height="46" fill="none"/>
    </clipPath>
  </defs>
  <g id="Group_54" data-name="Group 54" transform="translate(0.25 0.25)">
    <path id="Path_320" data-name="Path 320" d="M.535.535h44.93v44.93H.535ZM0,46H46V0H0Z" fill="#6d1912" stroke="#6d1912" stroke-width="0.5"/>
    <path id="Path_321" data-name="Path 321" d="M64.626,154.572l-13.141-9.856.947-1.263,12.117,9.088L76.7,141.913l1.039,1.189Z" transform="translate(-42.129 -116.124)" fill="#6d1912"/>
    <path id="Path_322" data-name="Path 322" d="M172.276,142.09H170.7v-4.428l-4.753.664-.219-1.563,6.551-.915Z" transform="translate(-135.609 -111.16)" fill="#6d1912"/>
    <g id="Group_53" data-name="Group 53">
      <g id="Group_52" data-name="Group 52" clip-path="url(#clip-path)">
        <path id="Path_323" data-name="Path 323" d="M70.483,76.1c-.065,0-.131,0-.2,0a4,4,0,0,1-3.74-2.8c-.586-1.926.2-3.945.837-5.3.02-.042,2.343-4.305,3.011-4.341l.356-.019.185.307c.407.676.8,1.3,1.173,1.885,1.844,2.9,3.174,5,2.041,7.835A3.842,3.842,0,0,1,70.483,76.1M70.4,65.337c-.674,1.051-1.827,2.913-1.949,3.164-.555,1.174-1.241,2.912-.776,4.446a2.844,2.844,0,0,0,2.658,1.964,2.665,2.665,0,0,0,2.713-1.69c.91-2.276-.162-3.964-1.939-6.762-.228-.358-.466-.732-.708-1.123" transform="translate(-54.286 -52.07)" fill="#6d1912"/>
        <path id="Path_324" data-name="Path 324" d="M118.348,116.4c-.048,0-.094,0-.142,0a3.041,3.041,0,0,1-2.844-2.135,5.614,5.614,0,0,1,.612-3.93c.014-.03,1.662-3.19,2.314-3.218l.351-.015.182.3c.291.484.575.93.842,1.35,1.3,2.05,2.331,3.669,1.483,5.791a2.965,2.965,0,0,1-2.8,1.858m-.054-7.6c-.481.758-1.161,1.859-1.25,2.039a4.346,4.346,0,0,0-.549,3.078,1.882,1.882,0,0,0,1.762,1.295,1.764,1.764,0,0,0,1.788-1.111c.624-1.559-.131-2.748-1.383-4.717l-.369-.584" transform="translate(-94.271 -87.638)" fill="#6d1912"/>
        <rect id="Rectangle_83" data-name="Rectangle 83" width="27.247" height="1.184" transform="translate(8.63 36.841)" fill="#6d1912"/>
      </g>
    </g>
  </g>
</svg>
