<svg xmlns="http://www.w3.org/2000/svg" xmlns:xlink="http://www.w3.org/1999/xlink" width="46.5" height="46.5" viewBox="0 0 46.5 46.5">
  <defs>
    <clipPath id="clip-path">
      <rect id="Rectangle_107" data-name="Rectangle 107" width="46" height="46" fill="none"/>
    </clipPath>
  </defs>
  <g id="Group_60" data-name="Group 60" transform="translate(0.25 0.25)">
    <path id="Path_331" data-name="Path 331" d="M.535.535h44.93v44.93H.535ZM0,46H46V0H0Z" fill="#6d1912" stroke="#6d1912" stroke-width="0.5"/>
    <path id="Path_332" data-name="Path 332" d="M67.606,63.826H55.431V34.863H77.049V47.978H76.1V35.812H56.38V62.877H67.606Z" transform="translate(-45.358 -28.527)" fill="#6d1912"/>
    <g id="Group_59" data-name="Group 59">
      <g id="Group_58" data-name="Group 58" clip-path="url(#clip-path)">
        <path id="Path_333" data-name="Path 333" d="M79.6,79.824H70.093V56.974a2.44,2.44,0,0,1,2.437-2.436h10.69a2.14,2.14,0,0,1,2.138,2.138V64.42h-.744V56.676a1.394,1.394,0,0,0-1.393-1.393H72.53a1.693,1.693,0,0,0-1.692,1.691v22.1H79.6Z" transform="translate(-57.356 -44.627)" fill="#6d1912"/>
        <path id="Path_334" data-name="Path 334" d="M136.51,155.7a1.819,1.819,0,0,1-.346-.033c-1.309-.252-2.143-1.857-2.751-3.03l-2.055-3.906-3,1.768a2.449,2.449,0,0,1-1.629.022,1.46,1.46,0,0,1-.987-.963,2,2,0,0,1,.481-1.723h0a2.979,2.979,0,0,1,.736-.675c.735-.46,1.472-.912,2.21-1.364l4.862-2.993c.108-.067.223-.144.342-.223a2.913,2.913,0,0,1,2.218-.731,1.644,1.644,0,0,1,1.027.774,2.88,2.88,0,0,1,.224,2.1l-.039.151-3.2,1.841,1.883,2.728c.108.157.26.351.432.575,1.048,1.354,2.8,3.622,1.236,4.97a2.55,2.55,0,0,1-1.645.716m-4.858-8.007,2.421,4.6c.508.979,1.276,2.458,2.231,2.641a1.635,1.635,0,0,0,1.365-.515c.951-.82-.193-2.469-1.339-3.951-.183-.236-.342-.443-.456-.608l-2.342-3.394,3.625-2.084A2.113,2.113,0,0,0,136.98,143a.887.887,0,0,0-.569-.431c-.5-.13-1.1.273-1.621.627-.128.085-.251.168-.367.239l-4.864,2.994c-.736.451-1.472.9-2.2,1.361a2.191,2.191,0,0,0-.546.5,1.321,1.321,0,0,0-.351,1.06.765.765,0,0,0,.53.468,1.9,1.9,0,0,0,1,.032l3.331-1.964Z" transform="translate(-102.851 -116.033)" fill="#6d1912"/>
        <path id="Path_335" data-name="Path 335" d="M117.6,118.68a.372.372,0,0,1-.306-.16l-4.365-6.282a.372.372,0,0,1,.252-.58l2.118-.311.579-1.478a.373.373,0,0,1,.347-.237h1.153l.825-1.539a.37.37,0,0,1,.433-.181l1.146.336.548-1.163a.373.373,0,0,1,.595-.11L121.99,108a.4.4,0,0,1,.058.073l3.29,5.322a.372.372,0,0,1-.117.51l-5.095,3.239a.374.374,0,0,1-.5-.1l-3.285-4.553v.166l3.079,4.476a.374.374,0,0,1-.107.526l-1.512.961a.375.375,0,0,1-.2.059m-3.717-6.374,3.819,5.5.885-.562-2.926-4.253a.374.374,0,0,1-.065-.211v-.72Zm2.327-1.247a.362.362,0,0,1,.059.065l3.753,5.2.443-.282-3.025-4.4a.373.373,0,0,1-.065-.211v-1.061h-.9Zm1.91.262,2.894,4.207.181-.111-3.075-4.262Zm-.019-1.464,3.8,5.273.5-.321-2.976-4.327a.375.375,0,0,1-.065-.211V108.9l-.653-.192Zm2.011.3,2.894,4.208.181-.111-3.075-4.262Zm.155-1.222,3.58,4.963.664-.423-3.072-4.97-.658-.633-.462.982a.378.378,0,0,1-.051.081" transform="translate(-92.353 -87.449)" fill="#6d1912"/>
        <path id="Path_336" data-name="Path 336" d="M88.142,109.868h-.954v-.954h-.854v.954h-.954v.854h.954v.953h.854v-.953h.954Z" transform="translate(-69.865 -89.123)" fill="#6d1912"/>
      </g>
    </g>
  </g>
</svg>
