<svg xmlns="http://www.w3.org/2000/svg" xmlns:xlink="http://www.w3.org/1999/xlink" width="46.5" height="46.5" viewBox="0 0 46.5 46.5">
  <defs>
    <clipPath id="clip-path">
      <rect id="Rectangle_106" data-name="Rectangle 106" width="46" height="46" fill="none"/>
    </clipPath>
  </defs>
  <g id="Group_57" data-name="Group 57" transform="translate(0.25 0.25)">
    <path id="Path_325" data-name="Path 325" d="M.535.535h44.93V45.465H.535ZM0,46H46V0H0Z" fill="#6d1912" stroke="#6d1912" stroke-width="0.5"/>
    <path id="Path_326" data-name="Path 326" d="M57.477,130.058H37.527v-19.95h19.95Zm-18.826-1.125h17.7v-17.7h-17.7Z" transform="translate(-30.708 -90.099)" fill="#6d1912"/>
    <path id="Path_327" data-name="Path 327" d="M136.6,130.39h-4.983V110.63H136.6Zm-4.048-.934h3.114V111.564h-3.114Z" transform="translate(-107.703 -90.526)" fill="#6d1912"/>
    <path id="Path_328" data-name="Path 328" d="M131.1,33.246V48.339h1.125V34.371H143.85v29.24h-10.5v-.058h-1.124v1.182h12.753V33.246Z" transform="translate(-107.274 -27.205)" fill="#6d1912"/>
    <g id="Group_56" data-name="Group 56">
      <g id="Group_55" data-name="Group 55" clip-path="url(#clip-path)">
        <path id="Path_329" data-name="Path 329" d="M59.99,73.814H42.177a4.725,4.725,0,1,1,0-9.45H59.99a4.725,4.725,0,1,1,0,9.45m-17.814-8.3a3.574,3.574,0,0,0,0,7.149H59.99a3.574,3.574,0,0,0,0-7.149Z" transform="translate(-30.645 -52.668)" fill="#6d1912"/>
        <path id="Path_330" data-name="Path 330" d="M53.873,78.272a3.055,3.055,0,1,1,3.056-3.055,3.059,3.059,0,0,1-3.056,3.055m0-4.96a1.9,1.9,0,1,0,1.9,1.9,1.906,1.906,0,0,0-1.9-1.9" transform="translate(-41.582 -59.048)" fill="#6d1912"/>
        <rect id="Rectangle_85" data-name="Rectangle 85" width="1.031" height="2.429" transform="translate(10.105 23.962)" fill="#6d1912"/>
        <rect id="Rectangle_86" data-name="Rectangle 86" width="2.429" height="1.031" transform="translate(9.406 24.661)" fill="#6d1912"/>
        <rect id="Rectangle_87" data-name="Rectangle 87" width="1.031" height="2.429" transform="translate(15.191 23.962)" fill="#6d1912"/>
        <rect id="Rectangle_88" data-name="Rectangle 88" width="2.429" height="1.031" transform="translate(14.492 24.661)" fill="#6d1912"/>
        <rect id="Rectangle_89" data-name="Rectangle 89" width="1.138" height="2.682" transform="translate(15.264 29.351)" fill="#6d1912"/>
        <rect id="Rectangle_90" data-name="Rectangle 90" width="2.682" height="1.138" transform="translate(14.492 30.123)" fill="#6d1912"/>
        <rect id="Rectangle_91" data-name="Rectangle 91" width="1.138" height="2.682" transform="translate(10.545 29.351)" fill="#6d1912"/>
        <rect id="Rectangle_92" data-name="Rectangle 92" width="2.682" height="1.138" transform="translate(9.773 30.123)" fill="#6d1912"/>
        <rect id="Rectangle_93" data-name="Rectangle 93" width="1.159" height="2.733" transform="translate(10.344 35.424)" fill="#6d1912"/>
        <rect id="Rectangle_94" data-name="Rectangle 94" width="2.733" height="1.159" transform="translate(9.558 36.211)" fill="#6d1912"/>
        <rect id="Rectangle_95" data-name="Rectangle 95" width="1.138" height="2.682" transform="translate(15.264 35.576)" fill="#6d1912"/>
        <rect id="Rectangle_96" data-name="Rectangle 96" width="2.682" height="1.138" transform="translate(14.492 36.348)" fill="#6d1912"/>
        <rect id="Rectangle_97" data-name="Rectangle 97" width="1.872" height="1.872" transform="translate(19.78 23.725)" fill="#6d1912"/>
        <rect id="Rectangle_98" data-name="Rectangle 98" width="1.67" height="1.67" transform="translate(12.164 27.074)" fill="#6d1912"/>
        <rect id="Rectangle_99" data-name="Rectangle 99" width="1.872" height="1.872" transform="translate(17.756 26.973)" fill="#6d1912"/>
        <rect id="Rectangle_100" data-name="Rectangle 100" width="2.379" height="2.379" transform="translate(21.906 26.644)" fill="#6d1912"/>
        <rect id="Rectangle_101" data-name="Rectangle 101" width="2.379" height="2.379" transform="translate(21.956 32.362)" fill="#6d1912"/>
        <rect id="Rectangle_102" data-name="Rectangle 102" width="1.67" height="1.67" transform="translate(17.503 32.717)" fill="#6d1912"/>
        <rect id="Rectangle_103" data-name="Rectangle 103" width="1.67" height="1.67" transform="translate(12.164 32.717)" fill="#6d1912"/>
        <rect id="Rectangle_104" data-name="Rectangle 104" width="1.872" height="1.872" transform="translate(19.78 29.756)" fill="#6d1912"/>
        <rect id="Rectangle_105" data-name="Rectangle 105" width="2.379" height="3.416" transform="translate(19.527 34.741)" fill="#6d1912"/>
      </g>
    </g>
  </g>
</svg>
