<svg xmlns="http://www.w3.org/2000/svg" xmlns:xlink="http://www.w3.org/1999/xlink" width="46.5" height="46.5" viewBox="0 0 46.5 46.5">
  <defs>
    <clipPath id="clip-path">
      <rect id="Rectangle_138" data-name="Rectangle 138" width="46" height="46" fill="#6d1912"/>
    </clipPath>
  </defs>
  <g id="Group_75" data-name="Group 75" transform="translate(0.25 0.25)">
    <path id="Path_398" data-name="Path 398" d="M.535.535h44.93v44.93H.535ZM0,46H46V0H0Z" fill="#6d1912" stroke="#6d1912" stroke-width="0.5"/>
    <path id="Path_399" data-name="Path 399" d="M124.974,56.347H106.063V48.359h18.911ZM106.59,55.82h17.858V48.886H106.59Z" transform="translate(-86.789 -39.571)" fill="#6d1912"/>
    <path id="Path_400" data-name="Path 400" d="M124.974,96.461H106.063V89.418h18.911Zm-18.384-.527h17.858v-5.99H106.59Z" transform="translate(-86.789 -73.169)" fill="#6d1912"/>
    <rect id="Rectangle_131" data-name="Rectangle 131" width="1.049" height="13.694" transform="translate(30.786 9.051)" fill="#6d1912"/>
    <rect id="Rectangle_132" data-name="Rectangle 132" width="1.049" height="6.233" transform="translate(34.186 16.512)" fill="#6d1912"/>
    <rect id="Rectangle_133" data-name="Rectangle 133" width="3.001" height="1.049" transform="translate(33.032 13.721)" fill="#6d1912"/>
    <rect id="Rectangle_134" data-name="Rectangle 134" width="5.97" height="1.049" transform="translate(22.759 12.257)" fill="#6d1912"/>
    <rect id="Rectangle_135" data-name="Rectangle 135" width="2.099" height="7.461" transform="translate(24.695 9.051)" fill="#6d1912"/>
    <rect id="Rectangle_136" data-name="Rectangle 136" width="2.109" height="2.833" transform="translate(20.23 18.495)" fill="#6d1912"/>
    <path id="Path_401" data-name="Path 401" d="M104.625,140.757v.525h13.058v.525h5.326v3.4h-5.326v1.049h6.375v-5.495Z" transform="translate(-85.612 -115.179)" fill="#6d1912"/>
    <path id="Path_402" data-name="Path 402" d="M104.625,46.921V64.5h1.049V47.97h17.335V76.624h-5.326v.525H104.625v.525h19.434V46.921Z" transform="translate(-85.612 -38.394)" fill="#6d1912"/>
    <path id="Path_403" data-name="Path 403" d="M106.063,125.278v3.338h12.8v.263h6.114v-3.6Zm18.384,3.074H106.59V125.8h17.858Z" transform="translate(-86.789 -102.512)" fill="#6d1912"/>
    <path id="Path_404" data-name="Path 404" d="M77.082,66.764H75.2V64.882H74.054v1.882H72.172V67.91h1.882v1.882H75.2V67.91h1.882Z" transform="translate(-59.057 -53.091)" fill="#6d1912"/>
    <path id="Path_405" data-name="Path 405" d="M46.591,105.742H44.709V103.86H43.562v1.882H41.681v1.147h1.882v1.882h1.147v-1.882h1.882Z" transform="translate(-34.106 -84.986)" fill="#6d1912"/>
    <path id="Path_406" data-name="Path 406" d="M67.046,152.519H41.567V137.87H67.046ZM42.616,151.47H66v-12.55H42.616Z" transform="translate(-34.013 -112.816)" fill="#6d1912"/>
    <path id="Path_407" data-name="Path 407" d="M45.235,173.286H42.12v-9.915h3.115Zm-2.266-.848h1.418v-8.218H42.968Z" transform="translate(-34.466 -133.683)" fill="#6d1912"/>
    <path id="Path_408" data-name="Path 408" d="M166.584,173.242h-3.266V163.3h3.266Zm-2.393-.873h1.52v-8.193h-1.52Z" transform="translate(-133.64 -133.627)" fill="#6d1912"/>
    <path id="Path_409" data-name="Path 409" d="M75.342,179.843H54.8v-3.8H75.342Zm-19.77-.773h19v-2.25h-19Z" transform="translate(-44.841 -144.056)" fill="#6d1912"/>
    <path id="Path_410" data-name="Path 410" d="M75.592,195.719h-20.4v-2.646h20.4Zm-19.771-.631h19.14V193.7H55.821Z" transform="translate(-45.162 -157.988)" fill="#6d1912"/>
    <rect id="Rectangle_137" data-name="Rectangle 137" width="1.889" height="3.022" transform="translate(19.537 32.378)" fill="#6d1912"/>
    <g id="Group_77" data-name="Group 77">
      <g id="Group_76" data-name="Group 76" clip-path="url(#clip-path)">
        <path id="Path_411" data-name="Path 411" d="M75.685,155.358H69.977v-4.344a1.366,1.366,0,0,1,1.364-1.364h2.98a1.366,1.366,0,0,1,1.364,1.364Zm-4.659-1.049h3.609v-3.295a.315.315,0,0,0-.315-.315h-2.98a.315.315,0,0,0-.315.315Z" transform="translate(-57.261 -122.455)" fill="#6d1912"/>
        <path id="Path_412" data-name="Path 412" d="M130.95,155.358h-5.708v-4.344a1.366,1.366,0,0,1,1.364-1.364h2.98a1.366,1.366,0,0,1,1.364,1.364Zm-4.659-1.049H129.9v-3.295a.315.315,0,0,0-.315-.315h-2.98a.315.315,0,0,0-.315.315Z" transform="translate(-102.483 -122.455)" fill="#6d1912"/>
      </g>
    </g>
  </g>
</svg>
