<svg xmlns="http://www.w3.org/2000/svg" xmlns:xlink="http://www.w3.org/1999/xlink" width="46.5" height="46.5" viewBox="0 0 46.5 46.5">
  <defs>
    <clipPath id="clip-path">
      <rect id="Rectangle_121" data-name="Rectangle 121" width="46" height="46" fill="none"/>
    </clipPath>
  </defs>
  <g id="Group_70" data-name="Group 70" transform="translate(0.25 0.25)">
    <path id="Path_354" data-name="Path 354" d="M.535.535h44.93v44.93H.535ZM0,46H46V0H0Z" fill="#C9A04E" stroke="#C9A04E" stroke-width="0.5"/>
    <g id="Group_69" data-name="Group 69">
      <g id="Group_68" data-name="Group 68" clip-path="url(#clip-path)">
        <path id="Path_355" data-name="Path 355" d="M54.135,131.536a28.509,28.509,0,0,1-4.053-.684,19,19,0,0,1-3.608-1.335.277.277,0,0,0-.255.493,19.227,19.227,0,0,0,3.727,1.38,29.161,29.161,0,0,0,4.144.7.277.277,0,0,0,.046-.553" transform="translate(-37.677 -105.896)" fill="#C9A04E"/>
        <path id="Path_356" data-name="Path 356" d="M63.141,71.892a10.119,10.119,0,0,0-.028-3.141.278.278,0,0,0-.249-.208l-10.847-.786c-.014-.209-.028-.328-.03-.343a.276.276,0,0,0-.25-.243l-3.716-.338a.278.278,0,0,0-.3.232c-.028.175-.06.689-.108,1.467v.014l-3.982-.313.027-.389a.28.28,0,0,0-.221-.291l-2.108-.43a8.092,8.092,0,0,0-1.244-3.085l.488-1.921a1.414,1.414,0,0,1,.669-.923,3.51,3.51,0,0,1,2.267-.174l.407.41a.277.277,0,0,0,.21.081l1.684-.076a.277.277,0,0,0,.238-.159c.064-.137.125-.288.183-.45l6.741,1.656.841.573a.278.278,0,0,0,.385-.073.281.281,0,0,0,.04-.088l.5-1.978a.277.277,0,0,0-.2-.337.256.256,0,0,0-.056-.008l-.988-.041-6.681-2.114c.037-.219.058-.363.061-.384a.278.278,0,0,0-.092-.248c-.1-.091-2.619-2.245-8.22-3.667-6.59-1.673-7.463.969-7.541,1.276a2.394,2.394,0,0,0,.67,2.711,1.762,1.762,0,0,1,.707,1.472l-.6,2.352a12.078,12.078,0,0,0-2.676,2.139h0a4.605,4.605,0,0,0-1.384,2.418l-.554,2.182c-.044.171.064.384.289.621l-.521.374a.591.591,0,0,0-.241.4.574.574,0,0,0,.122.441c.529.658,2.062,1.925,6.391,3.025s6.282.717,7.06.391a.572.572,0,0,0,.318-.329.591.591,0,0,0-.021-.466L40.521,73l2.439.466a.277.277,0,0,0,.324-.22c0-.011,0-.022,0-.034l.024-.357,3.941.326c-.059.551-.124,1.082-.2,1.563a.277.277,0,0,0,.206.311.323.323,0,0,0,.046.008l3.782.309a.278.278,0,0,0,.3-.23c0-.005.021-.128.054-.329l10.819.817a.277.277,0,0,0,.29-.211,28.693,28.693,0,0,0,.59-3.526M53.8,62.377l-.395-.269.257-1.012.458.019Zm-.685-1.382-.228.9L46.4,60.3c.13-.455.236-.931.314-1.33ZM43.86,56.633a43.961,43.961,0,0,1-6.718-1.382l-.245-.062a13.04,13.04,0,0,1-3.022-1,12.663,12.663,0,0,1,4.551.471,27.05,27.05,0,0,1,5.435,1.975M33.032,54.358a11.887,11.887,0,0,0,3.728,1.368l.417.106c1.123.285,2.841.716,4.343,1.013,1.959.387,2.791.4,3.14.211A13.278,13.278,0,0,1,46.3,58.111c-.04.249-.129.77-.258,1.334-1.079-.2-5.32-.992-8.248-1.735a55.042,55.042,0,0,1-6.268-2.049c.01-.043.019-.086.03-.129.1-.4.533-.893,1.474-1.175m-.979,3.329a1.6,1.6,0,0,1-.621-1.467,55.686,55.686,0,0,0,6.227,2.029c2.916.74,7.117,1.528,8.251,1.737a7.6,7.6,0,0,1-.3.906l-1.39.062-.376-.379a.281.281,0,0,0-.125-.072,4.135,4.135,0,0,0-2.759.214,1.969,1.969,0,0,0-.927,1.266l-.481,1.894a7.694,7.694,0,0,1-3.617-.335,9.337,9.337,0,0,1-3.589-1.512l.592-2.335a2.284,2.284,0,0,0-.887-2.007M32,62.457a9.781,9.781,0,0,0,3.8,1.621,8.255,8.255,0,0,0,3.868.343,7.351,7.351,0,0,1,1.107,2.732c-.459.126-2.055.385-5.769-.558-3.46-.878-4.861-1.933-5.294-2.334A11.123,11.123,0,0,1,32,62.457m8.087,10.912.249-.121-.261.163c-.575.241-2.38.682-6.709-.417s-5.705-2.348-6.1-2.834l.009-.042.627-.451a17.838,17.838,0,0,0,5.769,2.39c3.32.843,4.7.662,5.024.594l1.145.219Zm-1.341-1.274a.29.29,0,0,0-.131.007c-.012,0-1.221.327-4.8-.582-4.128-1.048-5.907-2.426-6.076-2.756l.543-2.138a3.76,3.76,0,0,1,1.056-1.959c.508.476,1.984,1.565,5.538,2.467,4.158,1.056,5.8.653,6.205.506l2.013.411-.332,4.811Zm4.608.207.242-3.513,3.985.313c-.064,1.012-.151,2.292-.269,3.527Zm4.3,2.232c.267-1.907.424-4.428.519-5.966.03-.482.056-.9.077-1.157l3.212.292a19.34,19.34,0,0,1-.041,2.929c-.131,1.607-.425,3.5-.534,4.165Zm3.879-.271c.137-.894.338-2.323.441-3.584a22.09,22.09,0,0,0,.074-2.363l10.567.766a11.848,11.848,0,0,1-.02,2.756,28.5,28.5,0,0,1-.525,3.221Z" transform="translate(-21.842 -43.81)" fill="#C9A04E"/>
        <path id="Path_357" data-name="Path 357" d="M56.7,108.078a.278.278,0,0,0-.39.044l-.98,1.229a.277.277,0,0,0,.434.346l.98-1.229a.278.278,0,0,0-.044-.39" transform="translate(-45.197 -88.339)" fill="#C9A04E"/>
        <path id="Path_358" data-name="Path 358" d="M64.559,110.752a.277.277,0,0,0-.37.125v0l-.638,1.3a.277.277,0,0,0,.127.371h0a.3.3,0,0,0,.055.02.277.277,0,0,0,.317-.147l.638-1.3a.277.277,0,0,0-.127-.371Z" transform="translate(-51.95 -90.552)" fill="#C9A04E"/>
        <path id="Path_359" data-name="Path 359" d="M72.348,114.464l.362-1.425a.277.277,0,0,0-.538-.136l-.362,1.426a.277.277,0,1,0,.538.136" transform="translate(-58.721 -92.162)" fill="#C9A04E"/>
        <path id="Path_360" data-name="Path 360" d="M80.222,116.04a.278.278,0,0,0,.209.273.273.273,0,0,0,.064.008.277.277,0,0,0,.281-.273h0l.021-1.413a.277.277,0,0,0-.555-.008Z" transform="translate(-65.607 -93.521)" fill="#C9A04E"/>
        <path id="Path_361" data-name="Path 361" d="M88.035,117.24a.277.277,0,0,0,.55-.072l-.2-1.49a.277.277,0,1,0-.55.072Z" transform="translate(-71.835 -94.405)" fill="#C9A04E"/>
        <path id="Path_362" data-name="Path 362" d="M62.577,87.769a11.609,11.609,0,0,0,2.656.99,10.593,10.593,0,0,0,2.82.37.278.278,0,0,0,.256-.209l.5-1.964a.278.278,0,0,0-.2-.337.289.289,0,0,0-.046-.007,18.751,18.751,0,0,1-2.734-.482,18.224,18.224,0,0,1-2.5-.846.277.277,0,0,0-.38.186l-.506,1.992a.277.277,0,0,0,.132.309m.833-1.854a18.7,18.7,0,0,0,2.282.75,19.8,19.8,0,0,0,2.5.464l-.367,1.445a11.059,11.059,0,0,1-2.455-.354,12.145,12.145,0,0,1-2.333-.838Z" transform="translate(-51.061 -69.726)" fill="#C9A04E"/>
        <path id="Path_363" data-name="Path 363" d="M95.354,117.763a.277.277,0,0,0,.53-.163v0l-.457-1.442a.277.277,0,0,0-.529.168Z" transform="translate(-77.599 -94.836)" fill="#C9A04E"/>
        <path id="Path_364" data-name="Path 364" d="M49.735,105.182a.278.278,0,0,0-.392-.027l-1.229,1.07a.277.277,0,0,0,.365.418l1.228-1.07a.277.277,0,0,0,.027-.392" transform="translate(-39.272 -85.942)" fill="#C9A04E"/>
      </g>
    </g>
  </g>
</svg>
