<svg xmlns="http://www.w3.org/2000/svg" xmlns:xlink="http://www.w3.org/1999/xlink" width="46.5" height="46.5" viewBox="0 0 46.5 46.5">
  <defs>
    <clipPath id="clip-path">
      <rect id="Rectangle_123" data-name="Rectangle 123" width="46" height="46" fill="none"/>
    </clipPath>
  </defs>
  <g id="Group_73" data-name="Group 73" transform="translate(0.25 0.25)">
    <path id="Path_365" data-name="Path 365" d="M.535.535H45.465v44.93H.535ZM0,46H46V0H0Z" fill="#6d1912" stroke="#6d1912" stroke-width="0.5"/>
    <g id="Group_72" data-name="Group 72">
      <g id="Group_71" data-name="Group 71" clip-path="url(#clip-path)">
        <path id="Path_366" data-name="Path 366" d="M48.8,74.5H46.918a.417.417,0,0,1-.416-.416V70.313a.417.417,0,0,1,.416-.416H48.8a.417.417,0,0,1,.416.416v3.768a.417.417,0,0,1-.416.416m-1.884-4.239a.054.054,0,0,0-.054.054v3.768a.054.054,0,0,0,.054.054H48.8a.054.054,0,0,0,.054-.054V70.313a.054.054,0,0,0-.054-.054Z" transform="translate(-38.053 -57.197)" fill="#6d1a12"/>
        <path id="Path_367" data-name="Path 367" d="M59.275,122.337V121.4h-.943v1.315L60.619,125a.235.235,0,0,1,.069.167v7.527a.53.53,0,0,1-.138.363c-.477.588-2.137.954-4.8,1.059-2.68-.1-4.338-.471-4.816-1.059a.532.532,0,0,1-.139-.363v-7.527a.234.234,0,0,1,.069-.167l2.286-2.286V121.4h-.942v.942a.235.235,0,0,1-.069.167l-2.051,2.051v9.4a15.128,15.128,0,0,0,11.3,0v-9.4l-2.05-2.051a.234.234,0,0,1-.069-.167" transform="translate(-40.989 -99.338)" fill="#6d1a12"/>
        <path id="Path_368" data-name="Path 368" d="M76.437,90.356H73.72V87.075l.06-.054a2.278,2.278,0,0,1,1.3-.325,2.254,2.254,0,0,1,1.3.325l.059.054Zm-2.355-.362h1.993V87.253a2.653,2.653,0,0,0-1.993,0Z" transform="translate(-60.326 -70.945)" fill="#6d1a12"/>
        <path id="Path_369" data-name="Path 369" d="M127.574,108.208h-1.353a.653.653,0,0,1-.652-.652v-3.073l.695.057Zm-1.643-3.332v2.68a.29.29,0,0,0,.29.29h.839L126,104.882Z" transform="translate(-102.754 -85.499)" fill="#6d1a12"/>
        <path id="Path_370" data-name="Path 370" d="M63.643,109.684H54.694a.417.417,0,0,1-.417-.416v-1.413a.417.417,0,0,1,.417-.416h8.949a.417.417,0,0,1,.416.416v1.413a.416.416,0,0,1-.416.416M54.694,107.8a.055.055,0,0,0-.055.054v1.413a.055.055,0,0,0,.055.054h8.949a.054.054,0,0,0,.054-.054v-1.413a.054.054,0,0,0-.054-.054Z" transform="translate(-44.415 -87.917)" fill="#6d1a12"/>
        <path id="Path_371" data-name="Path 371" d="M157.8,162.829a1.123,1.123,0,1,1,1.123-1.123,1.125,1.125,0,0,1-1.123,1.123m0-1.884a.761.761,0,1,0,.761.761.762.762,0,0,0-.761-.761" transform="translate(-128.209 -131.406)" fill="#6d1a12"/>
        <path id="Path_372" data-name="Path 372" d="M68.39,77.788H67v-.181c0-.243-.64-.525-1.465-.525s-1.47.282-1.47.525v.181H62.055V75.079h6.163l-.048.219a4.274,4.274,0,0,0-.1.9,3.994,3.994,0,0,0,.234,1.344Zm-1.06-.362h.554a4.344,4.344,0,0,1-.176-1.223,4.506,4.506,0,0,1,.067-.761H62.417v1.984h1.32c.174-.46,1.009-.706,1.8-.706s1.62.246,1.794.706" transform="translate(-50.78 -61.438)" fill="#6d1a12"/>
        <path id="Path_373" data-name="Path 373" d="M121.68,50.416v-.657a.653.653,0,0,1,.652-.652h2.826a.647.647,0,0,1,.545.3l.144.226Zm.652-.947a.29.29,0,0,0-.29.29v.221l2.737-.511Z" transform="translate(-99.571 -40.185)" fill="#6d1a12"/>
        <path id="Path_374" data-name="Path 374" d="M58.927,121.4v1.413a.233.233,0,0,1-.069.166l-2.286,2.286v1.551H60.34V121.4Z" transform="translate(-46.293 -99.339)" fill="#6d1a12"/>
        <rect id="Rectangle_122" data-name="Rectangle 122" width="0.471" height="5.417" transform="translate(14.518 22.057)" fill="#6d1a12"/>
        <path id="Path_375" data-name="Path 375" d="M88.854,125.261l-2.286-2.286a.238.238,0,0,1-.069-.166V121.4H85.086v5.417h3.768Z" transform="translate(-69.626 -99.338)" fill="#6d1a12"/>
        <path id="Path_376" data-name="Path 376" d="M56.57,159.217v0c.024.063.388.776,4.484.938,4.079-.162,4.442-.875,4.465-.938V153.8H56.57Z" transform="translate(-46.292 -125.855)" fill="#6d1a12"/>
        <path id="Path_377" data-name="Path 377" d="M187.721,57.882h-.235v7.065h.235a.236.236,0,0,0,.236-.236V58.117a.236.236,0,0,0-.236-.235" transform="translate(-153.421 -47.365)" fill="#6d1a12"/>
        <path id="Path_378" data-name="Path 378" d="M144.712,60.971v.887a3.2,3.2,0,0,0,3.3,3.09h4V57.882h-4a3.2,3.2,0,0,0-3.3,3.089m6.594,3.034h-4.239a.235.235,0,1,1,0-.471h4.239a.235.235,0,1,1,0,.471m0-1.177h-4.239a.236.236,0,0,1,0-.471h4.239a.236.236,0,0,1,0,.471m0-1.178h-4.239a.235.235,0,1,1,0-.471h4.239a.235.235,0,1,1,0,.471m0-1.178h-4.239a.235.235,0,1,1,0-.471h4.239a.235.235,0,1,1,0,.471m.235-1.412a.236.236,0,0,1-.235.235h-4.239a.236.236,0,0,1,0-.471h4.239a.236.236,0,0,1,.235.236" transform="translate(-118.419 -47.365)" fill="#6d1a12"/>
        <path id="Path_379" data-name="Path 379" d="M190.012,192.731l.135-.32a1.927,1.927,0,0,0-.02-1.542l-.135-.3,3.023.432v1.086Zm.556-1.714a2.29,2.29,0,0,1,.019,1.22l2.066-.443v-.479Z" transform="translate(-155.472 -155.944)" fill="#6d1a12"/>
        <path id="Path_380" data-name="Path 380" d="M110.769,57.728c-.077,0-.151,0-.225-.009l-11.288-.93a4.039,4.039,0,0,1-3.5-3.961,4.278,4.278,0,0,1,3.493-4.187l11.287-2.107c1.912-.143,4.734,1.525,5.131,3.487l.062.3a6.017,6.017,0,0,1,.172,1.821,5.79,5.79,0,0,1-.17,1.768l-.064.316c-.376,1.857-3.041,3.5-4.9,3.5m.013-10.842c-.068,0-.135,0-.2.007L99.31,49a3.91,3.91,0,0,0-3.192,3.83,3.676,3.676,0,0,0,3.18,3.6l11.275.929c1.717.13,4.38-1.425,4.739-3.2l.064-.317a5.431,5.431,0,0,0,.163-1.7,5.653,5.653,0,0,0-.165-1.749l.178-.037-.178.036-.062-.3c-.344-1.7-2.812-3.209-4.529-3.209m1.875,9.421h-4.71A3.854,3.854,0,0,1,104,52.565v-.887a3.854,3.854,0,0,1,3.949-3.741h4.71a.888.888,0,0,1,.888.887v6.594a.889.889,0,0,1-.888.888m-4.71-8.007a3.492,3.492,0,0,0-3.587,3.379v.887a3.492,3.492,0,0,0,3.587,3.379h4.71a.526.526,0,0,0,.526-.526V48.825a.526.526,0,0,0-.526-.525Z" transform="translate(-78.358 -38.072)" fill="#6d1a12"/>
        <path id="Path_381" data-name="Path 381" d="M138.781,198.65h-7.536a1.839,1.839,0,0,1-1.809-1.569l-.03-.207H140.62l-.03.207a1.838,1.838,0,0,1-1.809,1.569m-8.941-1.413a1.475,1.475,0,0,0,1.4,1.051h7.536a1.475,1.475,0,0,0,1.405-1.051Z" transform="translate(-105.894 -161.104)" fill="#6d1a12"/>
        <path id="Path_382" data-name="Path 382" d="M139.214,119.577h-6.007l-.912-8.43-2.248-6.3,8.549.706a4.463,4.463,0,0,0,1.826-.3l.487-.176-.272.441c-.231.376-.5.766-.832,1.236-.962,1.378-1.956,2.8-1.733,3.918Zm-5.682-.362H138.8l-1.087-8.48c-.252-1.256.787-2.744,1.792-4.182.207-.295.389-.557.553-.8a4.437,4.437,0,0,1-1.493.166l-7.989-.66,2.056,5.757a.415.415,0,0,1,.022.1Zm2.477-1.522A1.594,1.594,0,1,1,137.6,116.1a1.6,1.6,0,0,1-1.594,1.594m0-2.827a1.232,1.232,0,1,0,1.232,1.232,1.234,1.234,0,0,0-1.232-1.232m-1.177-4.239a1.594,1.594,0,1,1,1.594-1.594,1.6,1.6,0,0,1-1.594,1.594m0-2.826a1.232,1.232,0,1,0,1.232,1.232,1.233,1.233,0,0,0-1.232-1.232" transform="translate(-106.418 -85.799)" fill="#6d1a12"/>
        <path id="Path_383" data-name="Path 383" d="M140.62,188.279H129.406l.03-.207a1.838,1.838,0,0,1,1.809-1.569h7.536a1.838,1.838,0,0,1,1.809,1.569Zm-10.78-.362h10.346a1.474,1.474,0,0,0-1.4-1.051h-7.536a1.476,1.476,0,0,0-1.406,1.051" transform="translate(-105.894 -152.617)" fill="#6d1a12"/>
      </g>
    </g>
  </g>
</svg>
