<svg width="160" height="165" viewBox="0 0 160 165" fill="none" xmlns="http://www.w3.org/2000/svg">
<path d="M44.6474 100.174C42.9778 102.637 40.0978 104.181 36.8004 104.181C30.4977 104.181 26.7412 99.0055 26.7412 93.5794C26.7412 87.6941 30.456 83.1028 36.8004 83.1028C39.3882 83.1028 42.2682 84.0628 43.8543 85.6489V87.2767H43.3952C41.7256 85.2315 39.7222 84.1463 37.4265 84.1463C33.2108 84.1463 30.0386 87.4854 30.0386 93.5794C30.0386 99.1307 33.5865 102.971 37.51 103.138C39.6387 103.221 41.7674 102.428 43.4787 100.174H44.6057H44.6474Z" fill="white"/>
<path d="M25.6562 103.347L13.4266 75.2986L0.904785 104.141H1.78128L18.4353 94.9161L22.1084 103.347H25.6562ZM3.70132 100.718L12.2996 80.8499L18.1432 94.29L3.6596 100.718H3.70132Z" fill="white"/>
<path d="M77.2046 104.014C73.3228 104.014 68.9819 100.383 68.9819 94.4562C68.9819 87.4439 73.1976 84.063 78.2481 83.5204C80.0429 83.3535 81.9629 83.5204 83.9664 84.23V75.2143L87.1386 73.7952V99.4231C87.1386 101.26 87.5977 102.261 89.3508 102.261V103.347C85.8447 103.347 84.0081 102.136 84.0081 98.964V97.1275C82.6725 101.969 79.9176 103.973 77.2463 104.014M79.0411 84.5639C75.535 85.2317 72.4046 88.9883 72.4046 94.0805C72.4046 99.1727 75.3681 102.261 78.1229 102.136C80.502 102.053 83.0064 99.5901 84.0081 94.0805V85.8161C82.3386 84.6474 80.5855 84.23 79.0411 84.4805" fill="white"/>
<path d="M64.9329 99.4234V88.8633C64.9329 85.5241 61.5938 83.0615 56.5433 83.0615C54.5399 83.0615 52.2859 83.4789 49.865 84.272V85.4407C51.9102 84.5641 53.8303 84.2302 55.3746 84.2302C59.3399 84.2302 61.719 86.3589 61.719 88.905V92.0355C61.719 92.0355 60.3416 91.785 60.0077 91.7433C56.5851 91.2842 52.4528 91.4094 49.5311 93.4546C46.6093 95.4999 46.2754 99.5486 48.7798 102.095C51.0337 104.39 55.1242 104.766 57.9207 103.514C59.3816 102.888 60.5921 102.053 61.7608 100.634C61.7608 100.592 61.8442 100.509 61.886 100.467C62.4703 102.512 64.2651 103.347 67.0616 103.347V102.262C65.3086 102.262 64.8912 101.26 64.8912 99.4234M61.0094 100.342C58.5885 102.387 54.4146 103.347 51.8268 101.009C49.4059 98.839 50.4911 95.1242 53.1625 93.7051C55.9173 92.2442 58.7555 92.3694 61.719 93.2877V98.9642C61.719 99.1729 61.719 99.4234 61.719 99.632C61.3433 100.008 60.9677 100.342 60.9677 100.342" fill="white"/>
<path d="M109.886 99.3812C107.883 102.72 104.21 104.181 101.33 104.181C95.987 104.181 91.3123 100.091 91.3123 93.5794C91.3123 87.6941 95.027 83.1028 100.996 83.1028C105.796 83.1028 109.177 86.4002 109.177 90.1985H95.0688C94.7349 91.7428 94.5679 93.4959 94.8183 95.1237C95.194 99.9238 98.074 102.887 101.914 103.012C104.46 103.054 107.131 101.802 108.676 99.4229H109.886V99.3812ZM106.338 89.0298C106.171 86.3167 103.834 84.0628 101.204 84.1045C98.5749 84.1463 96.5297 85.9828 95.361 89.1967L106.338 89.0298Z" fill="white"/>
<path d="M124.912 103.346V89.0716C124.912 85.649 123.368 84.2716 121.489 84.4385C119.361 84.522 117.107 86.6925 116.272 89.489V103.346H113.1V83.6037H116.272V87.1933C117.691 84.8559 119.486 83.6455 121.698 83.3116C124.411 82.8107 127.041 83.8959 127.834 87.1933C129.503 84.6055 131.34 83.3951 133.636 83.1864C136.808 82.8942 139.604 84.9394 139.604 89.1968V103.346H136.432V89.0716C136.432 85.7742 135.013 84.4385 133.26 84.4385C131.215 84.3968 129.086 86.2751 128.042 88.8212V103.346H124.87H124.912Z" fill="white"/>
<path d="M158.221 83.605L152.127 102.179L145.366 83.605H142.11L148.079 99.5077C148.496 100.509 149.79 103.389 151.668 103.389C150.792 105.936 150.082 109.024 148.287 110.443C147.286 111.195 145.992 111.529 144.072 111.236L143.988 112.322C144.656 112.489 145.199 112.53 145.741 112.53C147.202 112.53 148.246 112.03 149.122 111.195C151.042 109.4 151.96 105.936 152.837 103.348L159.515 83.605H158.221Z" fill="white"/>
<path d="M146.575 34.0593C145.865 33.2662 144.655 32.2227 143.445 31.5966L83.5486 1.08516C81.4616 -6.57737e-05 78.999 -6.57737e-05 76.912 1.08516L17.016 31.5966C15.8056 32.2227 14.6369 33.2662 13.8856 34.0593C11.2142 37.0228 10.2542 41.155 10.9638 45.1202L15.263 67.8264C15.7638 70.456 17.2247 70.456 17.2247 70.456L16.9742 67.8264L14.7621 44.4941C14.4699 41.4889 15.3882 39.2767 16.6821 38.1497C17.0995 37.7741 17.6421 37.4819 18.143 37.2732L78.4146 10.4348C79.5416 9.93391 80.8355 9.93391 81.9625 10.4348L142.234 37.2732C142.777 37.5236 143.278 37.7741 143.695 38.1497C145.031 39.2767 145.949 41.5306 145.615 44.4941L142.359 73.67L142.067 76.2995C142.067 76.2995 143.528 76.2995 144.029 73.67L147.702 54.0942L149.413 45.1202C150.165 41.1967 149.163 37.0645 146.492 34.0593" fill="white"/>
<path d="M130.463 110.693C129.545 112.864 128.46 114.951 127.166 116.912C116.439 133.483 101.329 149.678 80.2507 161.156C59.1306 149.636 44.0627 133.441 33.3357 116.912C32.0835 114.951 30.9565 112.864 30.0382 110.693H24.7373C25.739 112.989 26.9495 115.201 28.3687 117.288C40.2644 134.818 56.9184 151.932 80.2925 164.12C103.625 151.932 120.321 134.818 132.216 117.288C133.635 115.201 134.846 112.989 135.848 110.693H130.547H130.463Z" fill="white"/>
<path d="M71.8614 64.6127H70.9848V59.9379H64.8909V64.6127H64.0562V54.8457H64.8909V59.1866H70.9848V54.8457H71.8614V64.6127Z" fill="white"/>
<path d="M78.2056 64.7797C75.4508 64.7797 73.6143 62.9849 73.6143 59.7292C73.6143 56.4735 75.4926 54.6787 78.2056 54.6787C80.9187 54.6787 82.7969 56.4735 82.7969 59.7292C82.7969 62.9849 80.9187 64.7797 78.2056 64.7797ZM78.2056 55.4718C75.9517 55.4718 74.4908 57.0161 74.4908 59.7292C74.4908 62.4422 75.9934 63.9866 78.2473 63.9866C80.5013 63.9866 81.9621 62.484 81.9621 59.7292C81.9621 56.9744 80.5013 55.4718 78.2056 55.4718Z" fill="white"/>
<path d="M94.6935 64.6127H93.8169V56.5153L90.0604 64.6127H89.2256L85.469 56.5153V64.6127H84.5925V54.8457H85.5942L89.643 63.444H89.6847L93.6917 54.8457H94.6935V64.6127Z" fill="white"/>
<path d="M103.041 55.597H97.8233V59.1866H102.582V59.9379H97.8233V63.8197H103.208V64.6127H96.9468V54.8457H103.041V55.597Z" fill="white"/>
<path d="M110.345 56.2646C109.927 56.0141 109.134 55.4298 107.757 55.4298C106.379 55.4298 105.336 55.9306 105.336 57.0159C105.336 58.2263 106.254 58.602 108.133 59.228C110.011 59.8541 111.054 60.6472 111.054 62.1081C111.054 63.7776 109.76 64.7794 107.59 64.7794C105.753 64.7794 104.793 64.1116 104.334 63.7776L104.668 62.9846C105.086 63.2768 106.004 63.9446 107.632 63.9446C109.259 63.9446 110.178 63.3603 110.178 62.1916C110.178 61.0229 109.343 60.522 107.506 59.8959C105.67 59.2698 104.459 58.6437 104.459 57.0576C104.459 55.4715 105.795 54.6367 107.715 54.6367C109.385 54.6367 110.178 55.2211 110.637 55.5132L110.303 56.2646H110.345Z" fill="white"/>
<path d="M67.4376 50.922H64.0149V41.155H67.2706C69.7332 41.155 70.7767 42.0316 70.7767 43.5342C70.7767 44.8698 69.9419 45.6211 68.7732 45.8298C70.2341 45.9968 71.2358 46.8733 71.2358 48.2925C71.2358 49.8786 69.9837 50.922 67.4376 50.922ZM67.2288 41.9481H64.8914V45.5377H67.2288C69.1071 45.5377 69.9419 44.7863 69.9419 43.6594C69.9419 42.5324 69.1071 41.9481 67.2288 41.9481ZM67.3958 46.289H64.8914V50.1707H67.3958C69.441 50.1707 70.3593 49.5029 70.3593 48.2925C70.3593 47.082 69.3575 46.3307 67.3541 46.3307" fill="white"/>
<path d="M79.1238 41.9486H73.8646V45.5382H78.6646V46.2895H73.8646V50.1295H79.2907V50.9226H73.0298V41.1973H79.1238V41.9486Z" fill="white"/>
<path d="M88.9757 50.922H88.0575L86.7218 47.4994H82.5062L81.2122 50.922H80.3357L84.2174 41.155H85.094L88.9757 50.922ZM84.6766 42.0733L82.8818 46.7898H86.5131L84.7183 42.0733H84.6766Z" fill="white"/>
<path d="M97.656 46.6651C97.656 49.6704 96.3621 51.1312 93.6491 51.1312C90.936 51.1312 89.6838 49.7121 89.6838 46.6651V41.1973H90.5186V46.6651C90.5186 49.2112 91.5621 50.3382 93.6908 50.3382C95.8195 50.3382 96.7795 49.253 96.7795 46.6651V41.1973H97.6143V46.6651H97.656Z" fill="white"/>
<path d="M107.381 41.9486H103.541V50.9226H102.707V41.9486H98.9082V41.1973H107.381V41.9486Z" fill="white"/>
<path d="M109.553 41.1973H108.718V50.9643H109.553V41.1973Z" fill="white"/>
<path d="M118.026 41.9486H112.766V45.9973H117.525V46.7486H112.766V50.9226H111.89V41.1973H118.026V41.9486Z" fill="white"/>
<path d="M127.25 46.6651C127.25 49.6704 125.956 51.1312 123.243 51.1312C120.53 51.1312 119.278 49.7121 119.278 46.6651V41.1973H120.113V46.6651C120.113 49.2112 121.156 50.3382 123.285 50.3382C125.413 50.3382 126.374 49.253 126.374 46.6651V41.1973H127.208V46.6651H127.25Z" fill="white"/>
<path d="M130.297 50.1295H135.723V50.9226H129.42V41.1973H130.297V50.1295Z" fill="white"/>
<path d="M52.7032 46.3312C54.0806 46.3312 55.2075 46.9573 55.9171 47.3747C55.9171 47.3747 53.7884 44.9121 49.698 44.8286C47.0266 44.7869 43.5622 46.5817 42.2266 50.1712C41.8509 49.9208 41.4753 49.6704 41.0997 49.4617C40.9744 46.7069 39.2214 44.4529 38.2614 43.6182C37.3013 42.7416 35.5065 41.3642 32.2509 41.1973C32.2509 41.1973 32.1257 41.1973 32.0004 41.1973C32.0004 41.1973 34.0457 41.5312 35.59 42.8251C37.0927 44.0773 37.844 45.7886 37.9274 47.5834C37.9274 47.6669 37.9274 47.7504 37.9274 47.8338C37.9274 47.8338 37.9274 48.0008 37.9274 48.0843C37.9274 48.0843 37.9274 48.2512 37.9274 48.3347C37.9274 48.3347 37.9274 48.5017 37.9274 48.5851C37.9274 48.5851 37.9274 48.7521 37.9274 48.8356C37.9274 48.8356 37.9274 48.8356 37.9274 48.8773V49.0443C37.9274 49.0443 37.9274 49.0443 37.9274 49.086C37.9274 49.1277 37.9274 49.2112 37.9274 49.2947C37.9274 49.2947 37.9274 49.2947 37.9274 49.3365C37.9274 49.4199 37.9275 49.5034 37.8857 49.5869C37.8857 49.5869 37.844 49.8373 37.8022 49.9208V50.0878C37.8022 50.0878 37.7187 50.1712 37.7187 50.2547C37.7187 50.3382 37.677 50.4217 37.6353 50.5051C37.6353 50.5051 37.6353 50.5469 37.6353 50.5886C37.6353 50.6721 37.5935 50.7556 37.5518 50.8391C36.2579 54.2617 32.9187 56.0148 30.2057 56.0565C29.2039 56.0565 28.1187 55.7643 27.2004 55.2635C27.2004 55.2635 27.9935 55.973 28.7448 56.3904C29.7883 56.933 31.124 57.4339 33.2109 57.4339C35.757 57.4339 39.0544 55.8478 40.4735 52.8008C40.9327 53.093 41.3918 53.3852 41.8092 53.6774V62.3591C41.8092 62.3591 41.7675 64.8218 44.8562 64.6131V55.6391C44.8562 55.1382 44.8562 54.6791 44.8562 54.3034C44.8562 54.3034 44.8562 54.053 44.8562 53.9278C44.8562 53.9278 44.8562 53.7191 44.8562 53.5939C44.8562 53.5104 44.8562 53.4686 44.8562 53.4269C44.8562 53.3017 44.8562 53.1765 44.8562 53.093C44.8562 53.0513 44.8562 52.9678 44.8562 52.926C44.9397 52.3834 45.0231 52.1747 45.0231 52.1747C46.1918 48.293 49.9066 46.373 52.6614 46.4147" fill="white"/>
<path d="M27.8271 45.0786C28.4532 44.9116 30.4984 43.1586 35.1315 44.4525C35.1315 44.4525 35.841 44.6612 36.801 45.0786C36.801 45.0786 36.1749 43.8264 34.7141 42.9499C34.088 42.5742 33.921 42.5325 33.2532 42.282C32.5854 42.0316 31.7924 41.8229 31.1245 41.6977C29.9976 41.489 29.0375 41.5725 28.6619 41.6977C28.4114 41.7394 28.1192 41.8229 27.8688 41.9064C27.2427 42.1151 26.7419 42.3655 26.408 42.5324C26.408 42.5324 26.7836 45.3707 27.8271 45.0786Z" fill="white"/>
<path d="M53.2049 55.8479C51.8275 55.8479 50.5336 55.681 48.4883 54.4288L48.3214 54.3453C47.2362 53.7192 46.4431 53.1349 45.9422 52.7592H45.9005C45.9005 52.7592 45.65 52.5088 45.4831 52.3835C45.3996 52.6757 45.2327 53.594 45.2327 55.5975V55.8479C45.6918 56.0984 46.2344 56.3905 46.8188 56.5992C49.5318 57.7262 53.1631 57.6427 55.2084 56.1401C55.8345 55.681 56.3771 54.9714 56.2936 55.0549C56.1684 55.1801 55.0832 55.8479 53.2049 55.8062" fill="white"/>
<path d="M27.4092 47.2073C26.9918 47.4577 26.491 48.0004 26.491 48.0004C26.491 48.0004 29.4962 45.7464 34.2962 48.7517C34.2962 48.7517 35.4649 49.5447 37.051 50.5882C37.1762 50.2543 37.2597 49.8786 37.3432 49.503C37.5101 48.7517 37.5519 48.0421 37.4684 47.3325C37.051 47.1238 36.5084 46.8734 35.9658 46.6647C33.2527 45.5795 29.8718 45.5795 27.4092 47.249" fill="white"/>
<path d="M57.5445 51.1724C57.5028 50.4629 57.1272 49.4194 56.5428 48.835C56.2089 48.4594 56.0002 48.2924 55.6662 48.042C55.2906 47.7915 54.6228 47.3324 53.8715 47.082C52.995 46.8315 52.3688 46.8315 52.0767 46.8315C51.5758 46.8315 51.1167 46.915 50.908 46.9985C54.2888 48.1672 54.4558 51.7985 53.1619 53.8855C52.7863 54.5116 52.2853 54.9707 51.8679 55.2629C53.2036 55.3881 54.7063 55.2629 55.8332 54.5951C56.8767 53.9272 57.461 52.9672 57.5445 51.715C57.5445 51.4229 57.5445 51.2977 57.5445 51.2142" fill="white"/>
<path d="M28.1191 55.0125C28.9539 55.3882 29.8304 55.5969 30.9156 55.5134C30.9991 55.5134 31.2912 55.4717 31.333 55.4299C30.8738 55.2212 30.5399 54.9708 30.5399 54.9708C28.9538 53.5934 28.3695 51.3395 29.5799 49.0021C29.6634 48.8351 29.9973 48.3342 30.6234 47.7916C29.1625 47.5412 27.7016 47.9586 26.6999 48.6682C25.9486 49.2108 25.4894 49.8369 25.3225 50.463C25.2807 50.6717 25.1973 51.0473 25.1973 51.3812C25.1973 51.6317 25.1973 51.9656 25.3225 52.2995C25.5729 53.2595 26.4077 54.0108 27.2425 54.5534C27.4095 54.6786 27.7434 54.8456 28.1191 55.0125Z" fill="white"/>
<path d="M44.3968 64.3622C43.562 64.3622 42.9359 64.1535 42.4767 63.6944C41.8924 63.11 41.9342 62.317 41.9342 62.317V53.51L41.8089 53.4265C41.3916 53.1343 40.9324 52.8422 40.4733 52.55L40.2645 52.383L40.1393 52.6335C39.4715 54.0109 38.428 55.1796 37.0089 56.0143C35.7567 56.7239 34.3793 57.1413 33.0854 57.1413C30.9984 57.1413 29.7045 56.5987 28.7445 56.0978C28.7445 56.0978 28.661 56.0978 28.661 56.0561C29.1201 56.1813 29.5793 56.2231 30.0384 56.2231H30.1219C32.7932 56.2231 36.3411 54.47 37.6767 50.8804L37.7602 50.5882V50.5048C37.7602 50.5048 37.8437 50.3378 37.8437 50.2543C37.8437 50.2126 37.8437 50.1708 37.8854 50.0874C37.8854 50.0874 37.8854 49.9621 37.9272 49.9204C37.9272 49.7952 37.9689 49.67 38.0106 49.5447C38.0106 49.4613 38.0106 49.3778 38.0524 49.2943C38.0524 49.2943 38.0524 49.0856 38.0524 49.0439C38.0524 49.0439 38.0524 48.8769 38.0524 48.7934C38.0524 48.7934 38.0524 48.6265 38.0524 48.543C38.0524 48.543 38.0524 48.376 38.0524 48.2926C38.0524 48.2926 38.0524 48.1256 38.0524 48.0421V47.7917C38.0524 47.7917 38.0524 47.6247 38.0524 47.5413C37.9689 45.5795 37.1341 43.8682 35.6315 42.616C35.1723 42.2404 34.6715 41.9065 34.1706 41.6978C36.0072 42.1569 37.1759 43.0334 37.9689 43.743C38.9289 44.6195 40.5985 46.8317 40.7237 49.4195V49.5447L40.8489 49.6282C41.2246 49.8787 41.6002 50.1291 41.9759 50.3378L42.2263 50.5048L42.3515 50.2543C43.6037 46.8734 46.9011 45.0786 49.489 45.0786H49.5725C51.576 45.0786 53.0786 45.7465 54.0803 46.3308C53.6212 46.2056 53.1203 46.1221 52.6194 46.1221H52.5359C49.6142 46.1221 45.8994 48.2091 44.7307 52.0491C44.7307 52.0909 44.6472 52.3413 44.5637 52.8422C44.5637 52.8839 44.5637 52.9674 44.5637 53.0091C44.5637 53.0091 44.5637 53.2596 44.5637 53.3848C44.5637 53.4265 44.5637 53.51 44.5637 53.5517C44.5637 53.6352 44.5637 53.7604 44.5637 53.8439C44.5637 53.8439 44.5637 54.0944 44.5637 54.2196C44.5637 54.637 44.5637 55.0961 44.5637 55.597V64.3622H44.4385M27.701 44.8699C27.701 44.8699 27.7428 44.8699 27.7845 44.8699C27.868 44.8699 27.9932 44.7865 28.1602 44.703C28.7862 44.3691 29.9967 43.743 32.0002 43.743C33.0019 43.743 34.1289 43.9099 35.2558 44.2438C35.2558 44.2438 35.6733 44.3691 36.2576 44.5778C35.7567 43.9099 35.1306 43.4508 34.6715 43.1586C34.1289 42.8247 33.9619 42.783 33.4193 42.5743L33.2106 42.4908C32.6263 42.2821 31.9585 42.0734 31.1237 41.9482C30.6645 41.8647 30.2054 41.823 29.7463 41.823C29.2037 41.823 28.8697 41.8647 28.7028 41.9064C28.4941 41.9482 28.2019 42.0317 27.9514 42.1151C27.4506 42.2821 26.9914 42.4908 26.6992 42.616C26.8662 43.576 27.2419 44.8282 27.7427 44.8282M55.1238 55.9726C55.1238 55.9726 55.249 55.8474 55.3325 55.8057C54.8316 55.9726 54.2055 56.0561 53.4125 56.0561C53.329 56.0561 53.2455 56.0561 53.2038 56.0561C51.7846 56.0144 50.4907 55.8891 48.4038 54.5952L48.2368 54.5117C47.3603 53.9691 46.5255 53.4265 45.8159 52.9256H45.7742C45.7742 52.9256 45.6907 52.8422 45.649 52.8004C45.5655 53.2596 45.482 54.1361 45.482 55.597V55.7222C45.9828 55.9726 46.4837 56.2231 46.9429 56.4318C48.0698 56.9326 49.4472 57.1831 50.8246 57.1831C52.5359 57.1831 54.0803 56.7657 55.1655 56.0143M37.1759 49.4613C37.3011 48.7934 37.3428 48.1256 37.3011 47.4995C36.842 47.2491 36.3828 47.0404 35.9654 46.8734C34.755 46.4143 33.4193 46.1639 32.1672 46.1639C30.6645 46.1639 29.2871 46.4978 28.1184 47.1656C28.5358 47.0821 29.0367 46.9986 29.6211 46.9986C31.2072 46.9986 32.835 47.5413 34.5463 48.5847C34.5463 48.5847 35.5898 49.2943 37.0507 50.2543C37.1341 50.0039 37.2176 49.7535 37.2593 49.503M52.9116 55.1378C54.122 55.1378 55.1238 54.8874 55.8334 54.4283C56.8351 53.8022 57.3777 52.9256 57.4612 51.7152C57.4612 51.4648 57.4612 51.3395 57.4612 51.2561C57.4195 50.5882 57.0856 49.5865 56.5429 49.0021C56.209 48.6682 56.0421 48.5013 55.7082 48.2508C55.3743 48.0004 54.7064 47.5413 53.9968 47.3326C53.4542 47.1656 52.9533 47.0821 52.4524 47.0821C52.369 47.0821 52.3273 47.0821 52.2438 47.0821C52.1186 47.0821 51.9933 47.0821 51.8681 47.0821C53.162 47.75 53.7464 48.7517 54.0386 49.5447C54.5394 50.9639 54.3308 52.7169 53.5377 54.0109C53.2873 54.4283 52.9951 54.7622 52.6611 55.0543C52.7446 55.0543 52.8281 55.0543 52.9534 55.0543M30.5393 55.2213C30.5393 55.2213 30.7063 55.2213 30.7898 55.2213C30.6645 55.1378 30.6228 55.0961 30.6228 55.0961C28.828 53.5517 28.4524 51.0891 29.6211 48.8352C29.7045 48.71 29.9132 48.3343 30.3306 47.8752C30.2054 47.8752 30.1219 47.8752 29.9967 47.8752C28.9532 47.8752 27.868 48.2091 27.0749 48.7934C26.4071 49.2943 25.9479 49.8369 25.781 50.463C25.7392 50.6717 25.6558 51.0056 25.6558 51.3395C25.6558 51.5065 25.6558 51.8404 25.781 52.2161C25.9897 52.9674 26.5741 53.6769 27.5758 54.303C27.7845 54.4283 28.1184 54.5952 28.4523 54.7622C29.1619 55.0961 29.8297 55.2631 30.581 55.2631" fill="white"/>
</svg>
