<svg width="102" height="82" viewBox="0 0 102 82" fill="none" xmlns="http://www.w3.org/2000/svg">
<path d="M100.7 1H1V80.96H100.7V1Z" stroke="#C9A04E" stroke-width="1.5" stroke-miterlimit="10"/>
<path d="M30.4721 72.1923V66.0229H30.3092C29.9836 66.0229 29.6579 66.0229 29.3322 66.0229C29.0066 66.0229 28.6809 66.0229 28.396 66.0229C27.9482 66.0229 27.5004 66.0229 27.0526 66.0229C26.9712 66.0229 26.8898 66.0229 26.8084 66.0229C26.3606 66.0229 25.9128 66.0229 25.4651 65.9011C24.1217 65.5764 23.2669 64.4805 23.2669 62.9787C23.2669 62.2887 23.2669 61.6393 23.2669 60.9493C23.2669 57.9052 23.2262 54.7798 23.2669 51.6951C23.3483 49.3816 24.1624 47.3927 25.6686 45.8909C27.1748 44.3892 29.2101 43.5368 31.6119 43.3339C32.9552 43.2121 34.3392 43.0903 35.6826 42.928C36.2932 42.8468 36.9038 42.8062 37.5144 42.725H37.6365V42.6033C37.8808 41.7915 37.6365 41.2233 36.9445 40.655C33.6879 38.2197 31.8968 34.9726 31.6119 30.9544C31.5711 30.305 31.6119 29.6961 31.6119 29.0061C31.6119 28.6814 31.6119 28.3567 31.6119 28.032V27.8696H30.2278C29.9836 27.8696 29.78 27.8696 29.5358 27.8696C28.1924 27.8696 27.419 27.0985 27.3783 25.759C27.3783 25.3126 27.3783 24.8255 27.3783 24.2167C27.3783 22.7961 28.1517 22.0655 29.5765 22.0249C29.6579 22.0249 29.7393 22.0249 29.8207 22.0249H30.4721V21.5784C30.4721 21.3755 30.4721 21.2131 30.4721 21.0102C30.5128 15.6119 33.6879 11.1472 38.7356 9.36127C39.5091 9.07715 40.486 8.79303 41.463 8.75244C41.8701 8.75244 42.2772 8.75244 42.6842 8.75244C43.417 8.75244 44.1904 8.75244 44.9638 8.75244C46.6735 8.75244 47.9762 8.83362 49.1974 8.99597C54.0008 9.64539 58.2751 14.0695 58.9264 19.0213C59.0078 19.6708 59.0485 20.2796 59.0892 20.9696C59.0892 21.2943 59.0892 21.5784 59.1299 21.9031V22.0249H59.2928C59.4149 22.0249 59.5777 22.0249 59.6998 22.0249C59.9848 22.0249 60.2697 22.0249 60.514 22.1061C61.491 22.2684 62.1423 22.9584 62.1423 23.9326C62.1423 24.582 62.1423 25.2314 62.1423 25.962C62.1423 27.0579 61.3688 27.8291 60.2697 27.8696C60.0662 27.8696 59.822 27.8696 59.537 27.8696C59.3335 27.8696 59.1299 27.8696 58.9264 27.8696C58.6822 27.8696 58.4786 27.8696 58.2344 27.8696H58.0716V28.6408C58.0716 29.0467 58.0716 29.4526 58.0716 29.8585C58.0716 32.0503 57.6238 33.9985 56.7689 35.7438C55.7105 37.895 54.2451 39.5997 52.4133 40.8174C51.7619 41.2233 51.8434 41.7915 51.8841 42.238V42.3192C51.9248 42.6033 52.454 42.725 52.6168 42.7656C53.5938 42.8874 54.6114 42.9686 55.5884 43.0498C56.6875 43.1715 57.7866 43.2527 58.9264 43.3745C60.9211 43.5774 62.7529 44.5515 64.1369 46.0533C65.521 47.5551 66.2944 49.4627 66.3351 51.4516C66.3351 52.8316 66.3351 54.171 66.3351 55.5916C66.3351 56.241 66.3351 56.8904 66.3351 57.5399V57.7022L68.1262 57.7834C69.3068 57.824 70.528 57.8646 71.7085 57.9052C72.889 57.9457 74.0695 57.9863 75.2907 58.0269H76.7155V60.9899C76.7155 61.3552 76.7155 61.7205 76.7155 62.0452C76.7155 63.0599 76.7155 64.1152 76.7155 65.1299C76.7155 65.3329 76.5526 65.617 76.3898 65.7387C75.7792 66.1852 75.1279 66.5911 74.5173 66.997C74.0288 67.3217 73.5403 67.6464 73.0518 67.9711C72.9297 68.0523 72.8076 68.0929 72.7262 68.0929C72.6447 68.0929 72.5226 68.0523 72.4005 67.9711C72.0341 67.687 71.6271 67.4435 71.2607 67.1999C70.8943 66.9564 70.4873 66.7129 70.1209 66.4288C69.9581 66.307 69.7952 66.2258 69.6324 66.2258C69.4696 66.2258 69.3068 66.307 69.1032 66.4288C68.7776 66.6723 68.4519 66.8752 68.1262 67.0782C67.6785 67.3623 67.2307 67.6464 66.8236 67.9711C66.5794 68.1741 66.3758 68.5394 66.3758 68.8235C66.3758 69.6758 66.3758 70.5282 66.3758 71.34C66.3758 71.5835 66.3758 71.827 66.3758 72.0706H30.4721V72.1923ZM59.3742 67.7276C59.3742 67.7276 59.2928 67.7276 59.2521 67.7276C59.2521 67.7276 59.2114 67.7276 59.1707 67.7276H59.0485V67.8899C59.0485 67.8899 59.0485 68.2146 59.0485 68.377C59.0485 68.8641 59.0485 69.3917 59.0485 69.9194C59.0485 70.1223 59.3335 70.4064 59.537 70.4064C60.5547 70.4064 61.5724 70.4064 62.4272 70.4064H64.544V70.2441C64.544 69.9194 64.544 69.6352 64.544 69.3105C64.544 68.5799 64.544 67.9305 64.544 67.2405C64.544 66.7535 63.852 66.3476 63.3228 66.3476C63.16 66.3476 62.9971 66.3882 62.875 66.4693C62.7122 66.5911 62.5494 66.6723 62.3865 66.794C61.9795 67.0376 61.5317 67.3217 61.1653 67.6464C60.7582 67.9711 60.4733 68.0929 60.229 68.0929C59.9848 68.0929 59.7406 67.9711 59.537 67.7276H59.4963L59.4149 67.687L59.3742 67.7276ZM32.2632 70.4064H57.2981V66.104L57.0539 66.2664C56.7689 66.4287 56.5247 66.6317 56.2804 66.794C55.6291 67.1999 55.0185 67.6058 54.4079 68.0523C54.2858 68.1335 54.1637 68.1741 54.0823 68.1741C54.0008 68.1741 53.8787 68.1741 53.7566 68.0523C53.1053 67.6058 52.454 67.1593 51.8026 66.7535C51.5584 66.5911 51.2735 66.4287 51.0292 66.2664H50.9478H50.8664C50.5407 66.4693 50.2151 66.7129 49.8894 66.9158C49.116 67.4435 48.3832 67.9711 47.6098 68.4176C47.162 68.7017 46.47 69.0264 45.778 69.067C45.2081 69.1076 44.5975 69.1076 43.8647 69.1076C43.2541 69.1076 42.6435 69.1076 42.0736 69.1076H41.6258C40.1604 69.1076 39.0613 68.1335 38.7763 66.6723C38.7763 66.5505 38.7356 66.4693 38.6949 66.3476L38.6135 66.0635H32.2225V70.447L32.2632 70.4064ZM43.824 56.7281C43.132 56.7281 42.5214 56.7281 41.9515 56.7281C41.6665 56.7281 41.3002 56.7281 41.0966 56.931C40.8117 57.1746 40.6489 57.5399 40.5674 57.824C40.486 58.1081 41.1781 58.3922 41.1781 58.3922C42.6435 59.001 43.5798 60.4622 43.5798 62.0046C43.5798 63.5876 42.6028 65.0487 41.1373 65.6576C40.771 65.8199 40.5674 66.0229 40.5674 66.307C40.5674 66.5505 40.6896 66.8346 40.9745 67.0376C41.2188 67.2405 41.6258 67.3623 41.9922 67.3623C42.5214 67.3623 43.0913 67.3623 43.7426 67.3623C44.3125 67.3623 44.8824 67.3623 45.4523 67.3623H45.5337C46.5921 67.3623 46.9992 66.9158 47.0399 65.8605C47.0399 64.9676 47.0399 64.0746 47.0399 63.1817V62.0452V60.8681C47.0399 59.9752 47.0399 59.0822 47.0399 58.1487C47.0399 57.0934 46.5921 56.6875 45.5744 56.6469C45.0045 56.6469 44.4346 56.6469 43.8647 56.6469L43.824 56.7281ZM50.9885 64.1558C50.9885 64.1558 51.1513 64.1558 51.2734 64.2776C51.6398 64.5617 52.0469 64.8052 52.4133 65.0487C52.7796 65.2923 53.1867 65.5764 53.5938 65.8199C53.7566 65.9417 53.9194 65.9823 54.0823 65.9823C54.2451 65.9823 54.4079 65.9417 54.5707 65.8199C54.8964 65.617 55.2221 65.3734 55.5477 65.1705C55.9548 64.8864 56.4026 64.6023 56.8096 64.3181C56.9725 64.1964 57.0946 64.1558 57.176 64.1558C57.2574 64.1558 57.4202 64.1964 57.5831 64.3181C57.9494 64.5617 58.3158 64.8052 58.6415 65.0487C59.0078 65.2923 59.3742 65.4952 59.6998 65.7793C59.9034 65.9417 60.1069 66.0229 60.2697 66.0229C60.4326 66.0229 60.6361 65.9417 60.7989 65.8199C61.206 65.5358 61.6131 65.2517 62.0202 65.0082C62.3458 64.8052 62.7122 64.5617 63.0378 64.3181C63.16 64.237 63.2821 64.1964 63.3635 64.1964C63.4449 64.1964 63.567 64.1964 63.6892 64.3181C64.0555 64.6023 64.4626 64.8458 64.8697 65.0893C65.236 65.3329 65.6024 65.5764 65.9688 65.8199C66.1723 65.9417 66.3351 66.0229 66.498 66.0229C66.6608 66.0229 66.8236 65.9823 66.9864 65.8199C67.3528 65.5764 67.7599 65.2923 68.1262 65.0487C68.4926 64.8052 68.8997 64.5617 69.266 64.2776C69.3882 64.1964 69.5103 64.1558 69.5917 64.1558C69.6731 64.1558 69.7952 64.1964 69.9174 64.2776C70.6094 64.7646 71.3421 65.2517 72.0748 65.6982C72.2377 65.7793 72.5633 65.9823 72.8076 65.9823C72.8076 65.9823 72.9704 65.9823 73.0111 65.9011C73.2146 65.7387 73.4589 65.617 73.7031 65.4952C74.2323 65.2517 74.8022 64.9676 74.8836 64.2776C75.0058 63.3034 74.9651 62.3293 74.9244 61.274C74.9244 60.8275 74.9244 60.3811 74.9244 59.9346V59.7722L48.831 58.7981V65.4952L49.0753 65.3329C49.0753 65.3329 49.4416 65.0893 49.6045 65.0082C50.0115 64.7646 50.3779 64.5211 50.7036 64.2776C50.8257 64.1964 50.9071 64.1558 50.9885 64.1558ZM25.0173 55.9163C25.0173 56.5657 25.0173 57.2557 25.0173 57.9052C25.0173 59.6911 25.0173 61.3958 25.0173 63.1411C25.0173 63.8311 25.5058 64.2776 26.3199 64.2776C28.4367 64.2776 30.5535 64.2776 32.6702 64.2776C35.1941 64.2776 37.433 64.2776 39.6312 64.2776C40.5674 64.2776 41.3816 63.7093 41.7073 62.8164C41.9515 62.1264 41.8701 61.3958 41.463 60.8275C41.0559 60.2187 40.3639 59.894 39.5905 59.894C38.5321 59.894 37.3516 59.894 35.9268 59.894C35.1127 59.894 34.3392 59.894 33.5251 59.894C32.7109 59.894 31.9375 59.894 31.1234 59.894H30.4313V55.7946H24.9766V55.9569L25.0173 55.9163ZM32.2632 45.0386V58.0675H37.6772V44.5109L32.2632 45.0386ZM59.0892 57.4993L64.544 57.7022V55.7946H59.0892V57.4993ZM51.8841 57.2963H57.2981V45.0386L51.8841 44.4704V57.2557V57.2963ZM43.6205 55.0234C44.4346 55.0234 45.2488 55.0234 45.9815 55.0234C46.9992 55.0234 47.7726 55.5104 48.2204 56.3222C48.5054 56.8499 48.8717 57.0934 49.4416 57.0934C49.4416 57.0934 49.7266 57.0934 49.9301 57.0934H50.0522V46.7027L49.808 46.8651C48.139 47.961 46.4293 48.5292 44.7603 48.5292C43.0913 48.5292 41.4223 47.961 39.7533 46.8651L39.5091 46.7027V55.6322H39.7126C39.9161 55.5104 40.1197 55.4293 40.3232 55.3887C40.7303 55.2263 41.1374 55.1045 41.5444 55.064C42.1957 55.064 42.8878 55.0234 43.6612 55.0234H43.6205ZM59.4149 45.4039C59.4149 45.4039 59.2928 45.4039 59.2521 45.4039H59.0892V53.9275H64.4626V53.8057C64.8697 51.5328 64.1776 48.9351 62.7122 47.1898C61.7352 46.0533 60.5954 45.4445 59.4149 45.4445V45.4039ZM30.2278 45.2821C26.4013 46.2157 24.366 49.5033 25.058 53.7651V53.8869H30.4313V45.2415H30.2278V45.2821ZM39.4684 42.4815C39.3462 43.3745 39.5498 43.9427 40.1604 44.7545C41.1781 46.0127 42.8878 46.7839 44.7603 46.7839C46.6328 46.7839 48.3425 46.0127 49.3195 44.7545C49.7673 44.1456 50.2558 43.4556 50.0115 42.4815V42.3192L49.808 42.4003C48.139 43.0498 46.4293 43.3745 44.7603 43.3745C43.0913 43.3745 41.3816 43.0498 39.7126 42.4003L39.5091 42.3192V42.5221L39.4684 42.4815ZM33.2808 28.0726C32.8331 33.7144 34.8684 37.7732 39.3055 40.168C41.1373 41.1421 43.0099 41.6697 44.8417 41.6697C47.2027 41.6697 49.523 40.858 51.6805 39.2344C55.1406 36.6774 56.6061 33.0244 56.199 28.032V27.8696H54.2044V26.1243H60.3512V23.8108H29.1287V26.1243H51.7619V27.9102H33.2808V28.0726ZM41.6258 10.4977C38.9799 10.6601 36.4153 12.0401 34.5835 14.1913C32.7517 16.3831 31.9375 19.1025 32.2632 21.8219V21.9437H57.2167V21.8219C57.5831 19.1837 56.484 16.0584 54.3672 13.6637C52.5761 11.6342 50.4186 10.4977 48.4239 10.4977C48.1797 10.4977 47.9762 10.4977 47.7726 10.5383H47.6505V19.6302H45.9408V10.4572H43.5391V19.6302H41.8294V10.4977H41.6665H41.6258Z" fill="#C9A04E"/>
</svg>
