<svg width="537" height="41" viewBox="0 0 537 41" fill="none" xmlns="http://www.w3.org/2000/svg">
<g clip-path="url(#clip0_3_388)">
<g opacity="0.6">
<path d="M537 0.378052H516.519L467.383 41H487.863L537 0.378052Z" fill="#CC9F46"/>
<path d="M0 0V41H454.661L503.755 0.378074L0 0Z" fill="#CC9F46"/>
</g>
<path d="M69.8258 31.0861H66.906V8.90576H69.8258V31.0861Z" fill="#FFEDD4"/>
<path d="M79.3779 31.0861V8.90576H82.8817C85.3844 8.90576 88.5962 9.15781 88.5962 14.8709C88.5962 19.3658 86.8443 21.4662 82.2977 21.2982V31.1281H79.3779V31.0861ZM82.2977 11.3842V18.7357C84.8004 18.9037 85.5095 17.5174 85.5095 15.039C85.5095 13.0226 84.9256 11.3422 82.7148 11.3422H82.2977V11.3842Z" fill="#FFEDD4"/>
<path d="M90.6818 8.90576H94.1856C96.3129 8.90576 99.6499 9.03179 99.6499 14.5769C99.6499 16.6773 99.0242 19.8279 96.6049 20.29L100.651 31.0861H97.606L93.6434 20.248H93.6017V31.0861H90.6818V8.90576ZM96.5632 15.249C96.5632 13.1486 96.3129 11.3842 94.0605 11.4263H93.6017V18.7357C95.8124 18.9037 96.5632 17.4754 96.5632 15.249Z" fill="#FFEDD4"/>
<path d="M113.749 19.9959C113.749 23.9867 113.707 31.3801 108.034 31.3801C102.361 31.3801 102.319 23.9867 102.319 19.9959C102.319 16.0051 102.361 8.61169 108.034 8.61169C113.707 8.61169 113.749 16.0051 113.749 19.9959ZM105.406 19.9959C105.406 24.7008 105.74 28.6076 108.034 28.6076C110.328 28.6076 110.662 24.7008 110.662 19.9959C110.662 15.291 110.328 11.3842 108.034 11.3842C105.74 11.3842 105.406 15.291 105.406 19.9959Z" fill="#FFEDD4"/>
<path d="M117.92 8.90576L120.422 25.583H120.464L120.631 24.1967L121.799 16.7193L123.134 8.90576H125.928L121.59 31.0861H119.255L115 8.90576H117.92Z" fill="#FFEDD4"/>
<path d="M130.809 31.0861H127.889V8.90576H130.809V31.0861Z" fill="#FFEDD4"/>
<path d="M137.608 8.90576C141.07 8.90576 144.991 9.15781 144.991 20.374C144.991 30.624 141.612 31.0861 136.356 31.0861H134.354V8.90576H137.608ZM137.274 11.4263V28.6076C142.113 28.7756 141.904 24.1547 141.904 20.416C141.904 17.0133 142.238 11.1322 137.274 11.4263Z" fill="#FFEDD4"/>
<path d="M155.794 8.90576V11.4683H150.872V18.4416H155.294V21.0041H150.872V28.5236H155.794V31.0861H147.952V8.90576H155.794Z" fill="#FFEDD4"/>
<path d="M171.937 8.90576V11.4683H167.015V18.4416H171.436V21.0041H167.015V28.5236H171.937V31.0861H164.095V8.90576H171.937Z" fill="#FFEDD4"/>
<path d="M176.275 8.90576L177.693 12.8545C178.152 14.1988 178.611 15.5431 178.861 16.9293H178.903L179.695 13.8627L181.238 8.90576H184.2L180.154 19.8279L184.2 31.0861H181.238L179.904 27.2213C179.403 25.7931 178.861 24.3228 178.694 22.8105H178.652C178.652 23.6926 178.36 24.5328 178.11 25.373L176.316 31.1281H173.146L177.318 19.8699L173.397 8.94777H176.275V8.90576Z" fill="#FFEDD4"/>
<path d="M194.67 11.9304C194.086 11.6363 193.46 11.3843 192.793 11.3843C188.705 11.3843 188.663 17.3915 188.663 20.164C188.663 23.1046 188.914 28.6496 192.918 28.6496C193.544 28.6496 194.128 28.4816 194.67 28.1876V30.7921C193.961 31.2542 193.168 31.4222 192.334 31.4222C186.369 31.4222 185.577 25.0369 185.577 20.374C185.577 15.7111 186.119 8.65375 192.125 8.65375C193.126 8.65375 193.836 8.82178 194.67 9.28387V11.9724V11.9304Z" fill="#FFEDD4"/>
<path d="M204.764 8.90576V11.4683H199.842V18.4416H204.264V21.0041H199.842V28.5236H204.764V31.0861H196.922V8.90576H204.764Z" fill="#FFEDD4"/>
<path d="M209.978 8.90576V28.5236H214.9V31.0861H207.058V8.90576H209.978Z" fill="#FFEDD4"/>
<path d="M219.614 8.90576V28.5236H224.536V31.0861H216.694V8.90576H219.614Z" fill="#FFEDD4"/>
<path d="M234.213 8.90576V11.4683H229.291V18.4416H233.712V21.0041H229.291V28.5236H234.213V31.0861H226.371V8.90576H234.213Z" fill="#FFEDD4"/>
<path d="M239.01 15.501L239.427 22.9365V31.0861H236.507V8.90576H239.302L244.432 25.751H244.474L243.765 16.8033V8.90576H246.685V31.0861H243.973L238.843 13.9888H238.801L238.968 15.501H239.01Z" fill="#FFEDD4"/>
<path d="M258.072 8.90576V11.4683H254.777V31.0861H251.857V11.4683H248.395V8.90576H258.072Z" fill="#FFEDD4"/>
<path d="M272.921 8.90576V11.4683H267.916V18.4416H272.421V21.0041H267.916V31.0861H264.996V8.90576H272.921Z" fill="#FFEDD4"/>
<path d="M277.927 31.0861H275.007V8.90576H277.927V31.0861Z" fill="#FFEDD4"/>
<path d="M283.933 15.501L284.392 22.9365V31.0861H281.472V8.90576H284.267L289.398 25.751H289.439L288.73 16.8033V8.90576H291.65V31.0861H288.939L283.808 13.9888H283.767L283.933 15.501Z" fill="#FFEDD4"/>
<path d="M298.157 31.0861H295.237V8.90576H298.157V31.0861Z" fill="#FFEDD4"/>
<path d="M308.502 12.3084C307.751 11.7623 307 11.3843 305.999 11.3843C304.414 11.3843 303.413 12.7285 303.413 14.2408C303.413 15.207 303.663 15.8791 304.247 16.6353L306.458 19.0718C308.46 21.0881 309.586 22.5584 309.586 25.583C309.586 28.6076 307.668 31.3802 304.414 31.3802C303.288 31.3802 302.12 31.0441 301.202 30.3299V27.3474C302.078 27.9775 302.954 28.4816 304.08 28.4816C305.874 28.4816 306.666 27.0533 306.666 25.373C306.666 20.9621 300.493 20.0799 300.493 14.2408C300.493 11.1322 302.12 8.5697 305.415 8.5697C306.541 8.5697 307.584 8.73774 308.502 9.28384V12.2664V12.3084Z" fill="#FFEDD4"/>
<path d="M315.009 8.90576V17.5594H319.43V8.90576H322.35V31.0861H319.43V20.122H315.009V31.0861H312.089V8.90576H315.009Z" fill="#FFEDD4"/>
<path d="M338.952 8.90576V11.4683H335.656V31.0861H332.736V11.4683H329.274V8.90576H338.952Z" fill="#FFEDD4"/>
<path d="M343.54 8.90576V17.5594H347.961V8.90576H350.881V31.0861H347.961V20.122H343.54V31.0861H340.62V8.90576H343.54Z" fill="#FFEDD4"/>
<path d="M354.427 8.90576H357.93C360.058 8.90576 363.395 9.03179 363.395 14.5769C363.395 16.6773 362.769 19.8279 360.35 20.29L364.396 31.0861H361.351L357.388 20.248H357.346V31.0861H354.427V8.90576ZM360.308 15.249C360.308 13.1486 360.058 11.3842 357.805 11.4263H357.346V18.7357C359.557 18.9037 360.308 17.4754 360.308 15.249Z" fill="#FFEDD4"/>
<path d="M377.452 19.9959C377.452 23.9867 377.41 31.3801 371.737 31.3801C366.064 31.3801 366.023 23.9867 366.023 19.9959C366.023 16.0051 366.064 8.61169 371.737 8.61169C377.41 8.61169 377.452 16.0051 377.452 19.9959ZM369.109 19.9959C369.109 24.7008 369.443 28.6076 371.737 28.6076C374.031 28.6076 374.365 24.7008 374.365 19.9959C374.365 15.291 374.031 11.3842 371.737 11.3842C369.443 11.3842 369.109 15.291 369.109 19.9959Z" fill="#FFEDD4"/>
<path d="M383.375 8.90576V25.1629C383.375 28.0195 384.209 28.6076 385.419 28.6076C387.421 28.6076 387.629 27.3054 387.629 25.499V8.90576H390.549V24.6588C390.549 27.5574 390.549 31.3801 385.502 31.3801C380.872 31.3801 380.455 28.1875 380.455 24.1967V8.90576H383.375Z" fill="#FFEDD4"/>
<path d="M404.648 19.3658V19.7019C404.648 23.9447 405.274 31.3381 399.392 31.3381C394.178 31.3381 393.552 26.2552 393.552 19.9959C393.552 13.7367 394.053 8.5697 399.142 8.5697C402.27 8.5697 403.772 10.166 404.523 13.1066L401.728 14.2408C401.436 12.7705 401.019 11.3422 399.225 11.3422C396.848 11.3422 396.639 14.6189 396.639 19.9959C396.639 27.6834 397.932 28.6076 399.225 28.6076C400.435 28.6076 401.728 28.4396 401.728 23.1465V21.9283H399.267V19.3658H404.648Z" fill="#FFEDD4"/>
<path d="M410.446 8.90576V17.5594H414.867V8.90576H417.787V31.0861H414.867V20.122H410.446V31.0861H407.526V8.90576H410.446Z" fill="#FFEDD4"/>
</g>
<defs>
<clipPath id="clip0_3_388">
<rect width="537" height="41" fill="white"/>
</clipPath>
</defs>
</svg>
