<svg width="677" height="41" viewBox="0 0 677 41" fill="none" xmlns="http://www.w3.org/2000/svg">
<g clip-path="url(#clip0_3_108)">
<g opacity="0.6">
<path d="M677 0.378082H656.559L607.518 41H627.959L677 0.378082Z" fill="#CC9F46"/>
<path d="M0 0V41H594.821L643.82 0.378074L0 0Z" fill="#CC9F46"/>
</g>
<path d="M70.3144 8.98976L73.4367 24.9949H73.4783L73.5616 24.0707L74.4358 18.7357L76.3509 8.94775H78.932L80.9719 31.1281H78.0994L77.5582 22.8525L77.3916 18.7357V15.8371H77.2667L76.7672 19.0297L74.4775 31.1701H72.4792L69.6483 15.8791H69.6067L68.7741 31.1701H65.9848L67.7749 8.98976H70.2728H70.3144Z" fill="#FFEDD4"/>
<path d="M84.8436 8.98976L87.5079 19.2398H87.5496L88.0075 16.3832L89.8809 8.94775H93.0032L88.9234 21.5502V31.1281H86.0092V21.5502L81.6796 8.94775H84.8436V8.98976Z" fill="#FFEDD4"/>
<path d="M107.949 8.98978V11.5523H103.036V18.5256H107.449V21.0881H103.036V28.6076H107.949V31.1701H100.122V8.98978H107.949Z" fill="#FFEDD4"/>
<path d="M112.278 8.98978L113.694 12.9385C114.152 14.2828 114.61 15.6271 114.859 17.0133H114.901L115.692 13.9467L117.232 8.98978H120.188L116.15 19.9119L120.188 31.1701H117.232L115.9 27.3053C115.401 25.8771 114.859 24.4068 114.693 22.8945H114.651C114.651 23.7767 114.36 24.6168 114.11 25.457L112.32 31.2121H109.156L113.319 19.9539L109.406 9.03178H112.278V8.98978Z" fill="#FFEDD4"/>
<path d="M122.686 31.2121V8.98978H126.183C128.681 8.98978 131.886 9.24183 131.886 14.9549C131.886 19.4498 130.138 21.5502 125.6 21.3822V31.2121H122.686ZM125.6 11.5103V18.8617C128.098 19.0297 128.806 17.6435 128.806 15.165C128.806 13.1486 128.223 11.4683 126.016 11.4683H125.6V11.5103Z" fill="#FFEDD4"/>
<path d="M141.836 8.98978V11.5523H136.924V18.5256H141.337V21.0881H136.924V28.6076H141.836V31.1701H134.01V8.98978H141.836Z" fill="#FFEDD4"/>
<path d="M144.084 8.98978H147.581C149.704 8.98978 153.035 9.1158 153.035 14.6609C153.035 16.7613 152.41 19.9119 149.996 20.374L154.034 31.1701H150.995L147.04 20.332H146.998V31.1701H144.084V8.98978ZM149.954 15.333C149.954 13.2326 149.704 11.4683 147.456 11.5103H146.998V18.8197C149.205 18.9877 149.954 17.5594 149.954 15.333Z" fill="#FFEDD4"/>
<path d="M163.776 8.98978V11.5523H160.487V31.1701H157.573V11.5523H154.117V8.98978H163.776Z" fill="#FFEDD4"/>
<path d="M168.355 31.2121H165.441V8.98978H168.355V31.1701V31.2121Z" fill="#FFEDD4"/>
<path d="M178.679 12.4344C177.93 11.8883 177.181 11.5103 176.223 11.5103C174.6 11.5103 173.642 12.8545 173.642 14.3668C173.642 15.333 173.892 16.0051 174.475 16.7613L176.681 19.1978C178.679 21.2142 179.803 22.6844 179.803 25.709C179.803 28.7336 177.888 31.5062 174.641 31.5062C173.517 31.5062 172.352 31.1701 171.436 30.456V27.4734C172.31 28.1035 173.184 28.6076 174.308 28.6076C176.098 28.6076 176.889 27.1793 176.889 25.499C176.889 21.0881 170.728 20.206 170.728 14.3668C170.728 11.2582 172.352 8.69571 175.64 8.69571C176.764 8.69571 177.805 8.86374 178.721 9.40985V12.3924L178.679 12.4344Z" fill="#FFEDD4"/>
<path d="M190.086 8.98978V11.5523H185.174V18.5256H189.587V21.0881H185.174V28.6076H190.086V31.1701H182.26V8.98978H190.086Z" fill="#FFEDD4"/>
<path d="M201.618 22.4744V24.7008H196.414V22.4744H201.618Z" fill="#FFEDD4"/>
<path d="M217.354 8.98978V11.5523H214.066V31.1701H211.151V11.5523H207.696V8.98978H217.354Z" fill="#FFEDD4"/>
<path d="M219.02 8.98978H222.517C224.64 8.98978 227.97 9.1158 227.97 14.6609C227.97 16.7613 227.346 19.9119 224.931 20.374L228.969 31.1701H225.93L221.975 20.332H221.934V31.1701H219.02V8.98978ZM224.89 15.333C224.89 13.2326 224.64 11.4683 222.392 11.5103H221.934V18.8197C224.14 18.9877 224.89 17.5594 224.89 15.333Z" fill="#FFEDD4"/>
<path d="M236.546 8.98978L241.25 31.1701H238.295L237.462 26.8433H233.091L232.258 31.1701H229.386L234.173 8.98978H236.463H236.546ZM236.505 21.3402L235.381 13.2746H235.339L233.59 24.5328H237.087L236.505 21.3402Z" fill="#FFEDD4"/>
<path d="M246.121 31.2121H243.207V8.98978H246.121V31.1701V31.2121Z" fill="#FFEDD4"/>
<path d="M252.158 15.5851L252.616 23.0205V31.1701H249.701V8.98978H252.491L257.611 25.8351H257.653L256.945 16.8873V8.98978H259.859V31.1701H257.153L252.033 14.0728H251.991L252.158 15.5851Z" fill="#FFEDD4"/>
<path d="M271.266 8.98978V11.5523H266.354V18.5256H270.767V21.0881H266.354V28.6076H271.266V31.1701H263.44V8.98978H271.266Z" fill="#FFEDD4"/>
<path d="M276.803 8.98978C280.259 8.98978 284.13 9.24182 284.13 20.458C284.13 30.708 280.758 31.1701 275.513 31.1701H273.514V8.98978H276.762H276.803ZM276.47 11.5103V28.6916C281.299 28.8597 281.091 24.2388 281.091 20.5C281.091 17.0974 281.424 11.2162 276.47 11.5103Z" fill="#FFEDD4"/>
<path d="M297.993 8.98978L302.698 31.1701H299.742L298.909 26.8433H294.538L293.705 31.1701H290.833L295.62 8.98978H297.91H297.993ZM297.952 21.3402L296.828 13.2746H296.786L295.037 24.5328H298.534L297.952 21.3402Z" fill="#FFEDD4"/>
<path d="M311.856 8.98978V11.5523H308.567V31.1701H305.653V11.5523H302.198V8.98978H311.856Z" fill="#FFEDD4"/>
<path d="M318.767 31.2121V8.98978H322.431C326.385 8.98978 327.509 11.2162 327.509 14.9549C327.509 17.1394 327.052 19.2398 324.72 19.8699C327.218 20.7101 327.801 22.6844 327.801 25.1209C327.801 29.1957 326.302 31.1701 322.264 31.1701H318.767V31.2121ZM322.014 11.5103H321.515V18.7777C324.221 18.9037 324.595 17.1814 324.595 14.8289C324.595 13.1066 324.013 11.4683 322.014 11.5103ZM321.515 28.6916C324.054 28.8176 324.679 27.4734 324.679 25.0369C324.679 22.6004 324.179 21.0461 321.515 21.1301V28.6916Z" fill="#FFEDD4"/>
<path d="M338.791 8.98978V11.5523H333.879V18.5256H338.292V21.0881H333.879V28.6076H338.791V31.1701H330.965V8.98978H338.791Z" fill="#FFEDD4"/>
<path d="M346.493 8.98978L351.197 31.1701H348.242L347.409 26.8433H343.038L342.205 31.1701H339.333L344.12 8.98978H346.41H346.493ZM346.452 21.3402L345.327 13.2746H345.286L343.537 24.5328H347.034L346.452 21.3402Z" fill="#FFEDD4"/>
<path d="M355.694 8.98978V25.247C355.694 28.1035 356.526 28.6916 357.733 28.6916C359.732 28.6916 359.94 27.3894 359.94 25.583V8.98978H362.854V24.7429C362.854 27.6414 362.854 31.4642 357.817 31.4642C353.196 31.4642 352.779 28.2715 352.779 24.2808V8.98978H355.694Z" fill="#FFEDD4"/>
<path d="M374.136 8.98978V11.5523H370.847V31.1701H367.933V11.5523H364.478V8.98978H374.136Z" fill="#FFEDD4"/>
<path d="M378.715 31.2121H375.801V8.98978H378.715V31.1701V31.2121Z" fill="#FFEDD4"/>
<path d="M390.164 8.98978V11.5523H385.168V18.5256H389.664V21.0881H385.168V31.1701H382.254V8.98978H390.164Z" fill="#FFEDD4"/>
<path d="M395.16 8.98978V25.247C395.16 28.1035 395.992 28.6916 397.199 28.6916C399.198 28.6916 399.406 27.3894 399.406 25.583V8.98978H402.32V24.7429C402.32 27.6414 402.32 31.4642 397.283 31.4642C392.662 31.4642 392.245 28.2715 392.245 24.2808V8.98978H395.16Z" fill="#FFEDD4"/>
<path d="M408.773 8.98978V28.6076H413.685V31.1701H405.859V8.98978H408.773Z" fill="#FFEDD4"/>
<path d="M423.677 8.98978V17.6435H428.089V8.98978H431.004V31.1701H428.089V20.206H423.677V31.1701H420.762V8.98978H423.677Z" fill="#FFEDD4"/>
<path d="M445.45 20.0799C445.45 24.0707 445.408 31.4642 439.746 31.4642C434.084 31.4642 434.043 24.0707 434.043 20.0799C434.043 16.0892 434.084 8.69571 439.746 8.69571C445.408 8.69571 445.45 16.0892 445.45 20.0799ZM437.123 20.0799C437.123 24.7848 437.456 28.6916 439.746 28.6916C442.036 28.6916 442.369 24.7848 442.369 20.0799C442.369 15.375 442.036 11.4683 439.746 11.4683C437.456 11.4683 437.123 15.375 437.123 20.0799Z" fill="#FFEDD4"/>
<path d="M451.652 8.98976L454.775 24.9949H454.816L454.9 24.0707L455.774 18.7357L457.689 8.94775H460.27L462.31 31.1281H459.437L458.896 22.8525L458.73 18.7357V15.8371H458.605L458.105 19.0297L455.816 31.1701H453.817L450.986 15.8791H450.945L450.112 31.1701H447.323L449.113 8.98976H451.611H451.652Z" fill="#FFEDD4"/>
<path d="M472.634 8.98978V11.5523H467.722V18.5256H472.135V21.0881H467.722V28.6076H472.634V31.1701H464.808V8.98978H472.634Z" fill="#FFEDD4"/>
<path d="M481.668 12.4344C480.919 11.8883 480.17 11.5103 479.212 11.5103C477.588 11.5103 476.631 12.8545 476.631 14.3668C476.631 15.333 476.881 16.0051 477.464 16.7613L479.67 19.1978C481.668 21.2142 482.792 22.6844 482.792 25.709C482.792 28.7336 480.877 31.5062 477.63 31.5062C476.506 31.5062 475.34 31.1701 474.425 30.456V27.4734C475.299 28.1035 476.173 28.6076 477.297 28.6076C479.087 28.6076 479.878 27.1793 479.878 25.499C479.878 21.0881 473.717 20.206 473.717 14.3668C473.717 11.2582 475.34 8.69571 478.629 8.69571C479.753 8.69571 480.794 8.86374 481.71 9.40985V12.3924L481.668 12.4344Z" fill="#FFEDD4"/>
<path d="M496.073 8.98978L500.777 31.1701H497.821L496.988 26.8433H492.617L491.785 31.1701H488.912L493.7 8.98978H495.989H496.073ZM496.031 21.3402L494.907 13.2746H494.865L493.117 24.5328H496.614L496.031 21.3402Z" fill="#FFEDD4"/>
<path d="M511.06 12.0564C510.477 11.7623 509.852 11.5103 509.186 11.5103C505.106 11.5103 505.065 17.5174 505.065 20.29C505.065 23.2305 505.315 28.7756 509.311 28.7756C509.936 28.7756 510.518 28.6076 511.06 28.3135V30.918C510.352 31.3801 509.561 31.5482 508.728 31.5482C502.775 31.5482 501.984 25.1629 501.984 20.5C501.984 15.8371 502.525 8.77972 508.52 8.77972C509.519 8.77972 510.227 8.94776 511.06 9.40985V12.0984V12.0564Z" fill="#FFEDD4"/>
<path d="M518.72 8.98978L523.424 31.1701H520.468L519.636 26.8433H515.264L514.432 31.1701H511.559L516.347 8.98978H518.636H518.72ZM518.678 21.3402L517.554 13.2746H517.512L515.764 24.5328H519.261L518.678 21.3402Z" fill="#FFEDD4"/>
<path d="M528.628 8.98978C532.083 8.98978 535.955 9.24182 535.955 20.458C535.955 30.708 532.583 31.1701 527.337 31.1701H525.339V8.98978H528.628ZM528.295 11.5103V28.6916C533.124 28.8597 532.916 24.2388 532.916 20.5C532.916 17.0974 533.249 11.2162 528.295 11.5103Z" fill="#FFEDD4"/>
<path d="M546.779 8.98978V11.5523H541.867V18.5256H546.279V21.0881H541.867V28.6076H546.779V31.1701H538.952V8.98978H546.779Z" fill="#FFEDD4"/>
<path d="M552.274 8.98976L555.397 24.9949H555.438L555.521 24.0707L556.396 18.7357L558.311 8.94775H560.892L562.932 31.1281H560.059L559.518 22.8525L559.351 18.7357V15.8371H559.227L558.727 19.0297L556.437 31.1701H554.439L551.608 15.8791H551.567L550.734 31.1701H547.945L549.735 8.98976H552.233H552.274Z" fill="#FFEDD4"/>
<path d="M566.845 8.98976L569.509 19.2398H569.551L570.009 16.3832L571.882 8.94775H575.004L570.925 21.5502V31.1281H568.011V21.5502L563.681 8.94775H566.845V8.98976Z" fill="#FFEDD4"/>
</g>
<defs>
<clipPath id="clip0_3_108">
<rect width="677" height="41" fill="white"/>
</clipPath>
</defs>
</svg>
