<svg width="89" height="88" viewBox="0 0 89 88" fill="none" xmlns="http://www.w3.org/2000/svg">
<path d="M88.0375 1H1.60352V86.7628H88.0375V1Z" stroke="#C9A04F" stroke-width="1.5" stroke-miterlimit="10"/>
<path d="M73.4454 54.1441H16.1544V48.7145H73.4454V54.1441ZM17.7297 52.5811H71.9115V50.2365H17.7297V52.5811Z" fill="#C9A04F"/>
<path d="M70.4606 58.2163H18.9734V52.5811H70.4606V58.2163ZM20.5073 56.6532H68.8854V54.103H20.5073V56.6532Z" fill="#C9A04F"/>
<path d="M24.6527 53.3626H23.0774V56.6944H24.6527V53.3626Z" fill="#C9A04F"/>
<path d="M28.7982 53.3626H27.2229V56.6944H28.7982V53.3626Z" fill="#C9A04F"/>
<path d="M32.9852 53.3626H31.4099V56.6944H32.9852V53.3626Z" fill="#C9A04F"/>
<path d="M37.1307 53.3626H35.5554V56.6944H37.1307V53.3626Z" fill="#C9A04F"/>
<path d="M41.2762 53.3626H39.7009V56.6944H41.2762V53.3626Z" fill="#C9A04F"/>
<path d="M45.4218 53.3626H43.8464V56.6944H45.4218V53.3626Z" fill="#C9A04F"/>
<path d="M49.6087 53.3626H48.0334V56.6944H49.6087V53.3626Z" fill="#C9A04F"/>
<path d="M53.7542 53.3626H52.179V56.6944H53.7542V53.3626Z" fill="#C9A04F"/>
<path d="M57.8997 53.3626H56.3245V56.6944H57.8997V53.3626Z" fill="#C9A04F"/>
<path d="M62.0452 53.3626H60.47V56.6944H62.0452V53.3626Z" fill="#C9A04F"/>
<path d="M66.2322 53.3626H64.6569V56.6944H66.2322V53.3626Z" fill="#C9A04F"/>
<path d="M70.4606 72.6541H68.9268V58.2163H20.5487V72.6541H18.9734V56.6533H70.4606V72.6541Z" fill="#C9A04F"/>
<path d="M27.2229 76.5617H16.9421C16.5275 76.5617 16.1544 76.2327 16.1544 75.7802V71.708C16.1544 71.2967 16.4861 70.9265 16.9421 70.9265H22.124C24.0724 64.0161 30.332 61.7949 30.6222 61.6715C38.7474 60.0673 42.4784 66.5252 42.5199 66.6075C42.7272 66.9777 42.6028 67.4302 42.2297 67.6358C41.8566 67.8415 41.4006 67.7181 41.1519 67.3479C41.0275 67.1011 37.9598 61.7949 31.0368 63.1523C31.0368 63.1523 25.0672 65.3324 23.4919 71.8314C23.409 72.1605 23.0774 72.4073 22.7458 72.4073H17.7297V74.9575H26.5182C26.7255 73.0243 27.6375 67.9649 31.9488 66.4841C32.1561 66.4018 37.0478 64.8799 41.1104 69.4868C41.1933 69.5691 42.7686 71.9548 44.7999 71.8314C45.2559 71.7903 45.5876 72.1194 45.629 72.5307C45.629 72.942 45.3388 73.3122 44.9243 73.3533C42.1468 73.559 39.9911 70.5563 39.9082 70.4329C36.6332 66.6898 32.6536 67.8826 32.4877 67.9649C28.3008 69.4457 28.0935 75.7391 28.0935 75.7802C28.0935 76.1915 27.7204 76.5206 27.3059 76.5206L27.2229 76.5617Z" fill="#C9A04F"/>
<path d="M72.4919 76.5618H62.2111C61.7965 76.5618 61.4234 76.2327 61.4234 75.8214C61.4234 75.7391 61.2161 69.4457 56.9877 68.006C56.8633 67.9649 52.8837 66.772 49.5258 70.5563C49.5258 70.5974 47.3701 73.6413 44.5511 73.4356C44.1366 73.4356 43.8049 73.0243 43.8464 72.613C43.8464 72.2016 44.2195 71.8314 44.6755 71.9137C46.5824 72.0371 48.2821 69.6925 48.2821 69.6514C52.3862 64.9622 57.2779 66.4841 57.4852 66.5664C61.7965 68.0883 62.7085 73.1066 62.9158 75.081H71.7043V72.5307H66.6882C66.3151 72.5307 66.0249 72.2839 65.942 71.9548C64.3667 65.4146 58.3557 63.2346 58.3143 63.2346C51.5156 61.9183 48.4479 67.2245 48.3236 67.4713C48.1163 67.8415 47.6188 67.9649 47.2458 67.7592C46.8727 67.5536 46.7483 67.1011 46.9555 66.7309C46.9555 66.6486 50.7279 60.1907 58.7288 61.7538C59.1019 61.8772 65.3616 64.0984 67.31 71.0088H72.4919C72.9065 71.0088 73.2796 71.3378 73.2796 71.7903V75.8625C73.2796 76.2738 72.9479 76.644 72.4919 76.644V76.5618Z" fill="#C9A04F"/>
<path d="M45.5876 66.5252H43.8879V69.3223H45.5876V66.5252Z" fill="#C9A04F"/>
<path d="M51.9301 50.2365C51.5156 50.2365 51.1426 49.9074 51.1426 49.4549V36.2923C51.1426 35.881 51.4741 35.5108 51.9301 35.5108H53.2153V34.2768H51.0182C50.6036 34.2768 50.2305 33.9477 50.2305 33.4952V31.8088C50.2305 31.3974 50.5622 31.0273 51.0182 31.0273H53.2153V30.1635H51.9301C51.5156 30.1635 51.1426 29.8344 51.1426 29.3819V26.4203C51.1426 26.009 51.4741 25.6388 51.9301 25.6388H53.2153V16.7951H46.3752V25.4743H48.821C49.2356 25.4743 49.6087 25.8033 49.6087 26.2558V29.0529C49.6087 29.4642 49.277 29.8344 48.821 29.8344H46.3752V30.1223H48.821C49.2356 30.1223 49.6087 30.4514 49.6087 30.9038V33.4952C49.6087 33.9066 49.277 34.2768 48.821 34.2768H46.3752V35.881H48.821C49.2356 35.881 49.6087 36.21 49.6087 36.6625V49.4549C49.6087 49.8663 49.277 50.2365 48.821 50.2365C48.365 50.2365 48.0334 49.9074 48.0334 49.4549V37.444H45.5875C45.173 37.444 44.7999 37.115 44.7999 36.6625V33.4952C44.7999 33.0839 45.1315 32.7137 45.5875 32.7137H48.0334V31.6442H45.5875C45.173 31.6442 44.7999 31.3152 44.7999 30.8627V29.0117C44.7999 28.6004 45.1315 28.2302 45.5875 28.2302H48.0334V26.9962H45.5875C45.173 26.9962 44.7999 26.6671 44.7999 26.2147V16.0136C44.7999 15.6023 45.1315 15.2321 45.5875 15.2321H54.0029C54.4175 15.2321 54.7906 15.5612 54.7906 16.0136V26.4203C54.7906 26.8317 54.4589 27.2019 54.0029 27.2019H52.7178V28.6415H54.0029C54.4175 28.6415 54.7906 28.9706 54.7906 29.4231V31.8499C54.7906 32.2612 54.4589 32.6314 54.0029 32.6314H51.8058V32.7548H54.0029C54.4175 32.7548 54.7906 33.0839 54.7906 33.5364V36.3334C54.7906 36.7448 54.4589 37.115 54.0029 37.115H52.7178V49.4961C52.7178 49.9074 52.3862 50.2776 51.9301 50.2776V50.2365Z" fill="#C9A04F"/>
<path d="M40.4885 23.8701H37.1307C36.7161 23.8701 36.343 23.541 36.343 23.0885V18.6462C36.343 18.2348 36.6747 17.8646 37.1307 17.8646H40.4885C40.9031 17.8646 41.2762 18.1937 41.2762 18.6462V23.0885C41.2762 23.4999 40.9445 23.8701 40.4885 23.8701ZM37.9183 22.307H39.7009V19.3866H37.9183V22.307Z" fill="#C9A04F"/>
<path d="M72.6577 23.8701H43.8464C43.4318 23.8701 43.0587 23.541 43.0587 23.0885V18.6462C43.0587 18.2348 43.3904 17.8646 43.8464 17.8646H72.6577C73.0722 17.8646 73.4453 18.1937 73.4453 18.6462V23.0885C73.4453 23.4999 73.1137 23.8701 72.6577 23.8701ZM44.634 22.307H71.8701V19.3866H44.634V22.307Z" fill="#C9A04F"/>
<path d="M43.8879 17.7412H33.2339C32.8194 17.7412 32.4463 17.4122 32.4463 16.9597V14.3683C32.4463 13.957 32.7779 13.5868 33.2339 13.5868H43.8879C44.3025 13.5868 44.6755 13.9158 44.6755 14.3683V16.9597C44.6755 17.371 44.344 17.7412 43.8879 17.7412ZM34.0216 16.1782H43.1417V15.1087H34.0216V16.1782Z" fill="#C9A04F"/>
<path d="M53.9614 46.9047C53.9614 46.9047 53.5468 46.8224 53.4225 46.699C53.1323 46.4111 53.1323 45.9175 53.4225 45.5884L65.859 33.2485C66.1492 32.9605 66.6467 32.9605 66.9783 33.2485C67.2685 33.5364 67.2685 34.03 66.9783 34.359L54.5418 46.699C54.5418 46.699 54.1687 46.9047 54.0028 46.9047H53.9614Z" fill="#C9A04F"/>
<path d="M41.8151 46.9047C41.8151 46.9047 41.4005 46.8224 41.2762 46.699L31.0367 36.5391C30.7465 36.2512 30.7465 35.7576 31.0367 35.4285C31.3269 35.1406 31.8244 35.1406 32.156 35.4285L42.3955 45.5884C42.6856 45.8763 42.6856 46.3699 42.3955 46.699C42.2296 46.8635 42.0223 46.9047 41.8565 46.9047H41.8151Z" fill="#C9A04F"/>
</svg>
