<svg width="89" height="88" viewBox="0 0 89 88" fill="none" xmlns="http://www.w3.org/2000/svg">
<path d="M87.3017 1H0.867798V86.7628H87.3017V1Z" stroke="#C9A04F" stroke-width="1.5" stroke-miterlimit="10"/>
<path d="M73.0412 48.3032L44.1055 16.6718L14.8796 44.9714L12.8069 42.8325L44.2299 12.3939L75.2797 46.2877L73.0412 48.3032Z" fill="#C9A04F"/>
<path d="M21.3881 38.0199H18.4033V72.5718H21.3881V38.0199Z" fill="#C9A04F"/>
<path d="M69.3931 41.0226H66.4083V72.613H69.3931V41.0226Z" fill="#C9A04F"/>
<path d="M31.7933 73.7236H23.5438V62.8644C23.5438 61.0545 25.0361 59.5737 26.8602 59.5737H28.1867C30.1766 59.5737 31.7933 61.1779 31.7933 63.1523V73.7236ZM26.1554 71.5024H29.1402V63.1523C29.1402 62.4119 28.6427 61.7949 28.0624 61.7949H26.9845C26.5285 61.7949 26.114 62.2885 26.114 62.8644V71.4612L26.1554 71.5024Z" fill="#C9A04F"/>
<path d="M64.7916 73.7236H56.5421V62.8644C56.5421 61.0545 58.0344 59.5737 59.8584 59.5737H61.185C63.1749 59.5737 64.7916 61.1779 64.7916 63.1523V73.7236ZM59.1537 71.5024H62.1385V63.1523C62.1385 62.4119 61.641 61.7949 61.0606 61.7949H59.9828C59.5268 61.7949 59.1123 62.2885 59.1123 62.8644V71.4612L59.1537 71.5024Z" fill="#C9A04F"/>
<path d="M61.8068 67.7593H26.5286V57.4759C26.5286 53.6917 29.6377 50.6478 33.4101 50.6478H54.5522C58.5319 50.6478 61.7654 53.8562 61.7654 57.805V67.7593H61.8068ZM28.8086 65.5381H59.5683V57.805C59.5683 55.0902 57.3297 52.869 54.5937 52.869H33.4516C30.8813 52.869 28.8086 54.9257 28.8086 57.4759V65.5381Z" fill="#C9A04F"/>
<path d="M62.18 71.1322H26.1555V65.5381H62.18V71.1322ZM28.6842 68.7465H59.6927V67.9649H28.6842V68.7465Z" fill="#C9A04F"/>
<path d="M45.2248 52.252H42.9862V66.1962H45.2248V52.252Z" fill="#C9A04F"/>
<path d="M45.6808 19.0164H41.1622V23.4999H45.6808V19.0164Z" fill="#C9A04F"/>
<path d="M45.6808 30.9039H41.1622V35.3874H45.6808V30.9039Z" fill="#C9A04F"/>
<path d="M42.6546 24.9395H38.136V29.4231H42.6546V24.9395Z" fill="#C9A04F"/>
<path d="M36.6851 30.9039H32.1664V35.3874H36.6851V30.9039Z" fill="#C9A04F"/>
<path d="M30.6741 36.8682H26.1555V41.3517H30.6741V36.8682Z" fill="#C9A04F"/>
<path d="M42.6546 36.8682H38.136V41.3517H42.6546V36.8682Z" fill="#C9A04F"/>
<path d="M51.6918 36.8682H47.1732V41.3517H51.6918V36.8682Z" fill="#C9A04F"/>
<path d="M60.6876 36.8682H56.1689V41.3517H60.6876V36.8682Z" fill="#C9A04F"/>
<path d="M54.6766 42.8325H50.158V47.316H54.6766V42.8325Z" fill="#C9A04F"/>
<path d="M36.6851 42.8325H32.1664V47.316H36.6851V42.8325Z" fill="#C9A04F"/>
<path d="M24.6631 42.8325H20.1445V47.316H24.6631V42.8325Z" fill="#C9A04F"/>
<path d="M66.6985 42.8325H62.1799V47.316H66.6985V42.8325Z" fill="#C9A04F"/>
<path d="M57.6613 30.9039H53.1427V35.3874H57.6613V30.9039Z" fill="#C9A04F"/>
<path d="M51.6918 24.9395H47.1732V29.4231H51.6918V24.9395Z" fill="#C9A04F"/>
<path d="M45.6808 42.8325H41.1622V47.316H45.6808V42.8325Z" fill="#C9A04F"/>
</svg>
