<svg width="102" height="82" viewBox="0 0 102 82" fill="none" xmlns="http://www.w3.org/2000/svg">
<path d="M58.3324 69.9394H55.7622C55.472 69.9394 55.2233 69.816 55.0575 69.6103L42.082 54.8023H40.5896L39.802 57.8873C39.802 57.8873 39.6776 58.2164 39.5118 58.3809L26.9094 69.6926C26.9094 69.6926 26.4949 69.9394 26.2462 69.9394H21.6032C21.0643 69.9394 20.6497 69.528 20.6497 68.9933V62.4943C20.6497 62.2475 20.7741 61.9595 20.9399 61.795L34.3299 49.3728C34.3299 49.3728 34.7445 49.126 34.9932 49.126H37.5634L40.1751 47.3983C40.5482 47.1515 41.0871 47.1927 41.4187 47.5217L57.0059 63.9339L63.0169 57.9696C63.0169 57.9696 63.2656 57.8051 63.3899 57.7228L66.2504 56.7767C66.4991 56.6945 66.7893 56.7356 67.038 56.859C67.2867 56.9824 67.4526 57.2292 67.494 57.5171L68.1573 61.3014C68.1987 61.6305 68.0744 61.9595 67.8256 62.2063L58.8713 69.7748C58.8713 69.7748 58.4982 70.0216 58.2495 70.0216L58.3324 69.9394ZM56.1768 68.0472H57.9593L66.2504 61.0546L65.8773 58.9157L64.2605 59.4504L57.7106 65.9494C57.7106 65.9494 57.2546 66.2374 57.0059 66.2374C56.7571 66.2374 56.5084 66.114 56.3426 65.9494L40.6311 49.4139L38.434 50.8536C38.434 50.8536 38.1023 51.0181 37.895 51.0181H35.4077L22.5981 62.9056V68.0472H25.9145L38.0194 57.1469L38.89 53.6095C39.0143 53.1981 39.3874 52.8691 39.802 52.8691H42.4551C42.7453 52.8691 42.994 52.9925 43.1599 53.1981L56.1353 68.0061L56.1768 68.0472Z" fill="#C9A04F"/>
<path d="M57.0473 60.5198C56.7986 60.5198 56.5499 60.4375 56.3426 60.2319L30.4746 32.6726C30.4746 32.6726 30.1844 32.2201 30.2259 31.9733C30.2259 31.7265 30.3502 31.4797 30.5575 31.3152L38.89 24.3637C39.2631 24.0346 39.8434 24.0758 40.2165 24.446L66.3333 52.2932C66.3333 52.2932 66.6235 52.7456 66.582 53.0336C66.5405 53.3215 66.4162 53.5271 66.2089 53.6917L57.5862 60.3553C57.5862 60.3553 57.2131 60.561 57.0059 60.561L57.0473 60.5198ZM32.5888 32.0967L57.1717 58.2986L64.2605 52.8279L39.4703 26.4203L32.5888 32.1379V32.0967Z" fill="#C9A04F"/>
<path d="M65.67 53.157C65.4212 53.157 65.1725 53.0747 65.0067 52.8691C64.6336 52.4989 64.6336 51.8818 65.0067 51.5116L79.1014 37.4441V34.8938L77.1945 35.0172L66.3333 44.0665C66.0431 44.3133 65.6285 44.3545 65.2969 44.1899L63.307 43.1616C62.9754 42.9971 62.7681 42.668 62.7681 42.2978L62.851 38.637C62.851 38.3902 62.9754 38.1433 63.1412 37.9788L75.8679 25.8445V23.0886L73.5879 23.1709L60.571 34.6059C60.571 34.6059 60.1564 34.8527 59.9492 34.8527H57.1302C56.7571 34.8527 56.4255 34.647 56.2597 34.318L55.3062 32.4258C55.0989 32.0556 55.1818 31.6032 55.5135 31.3152L67.6598 19.5923V17.5356L65.0896 16.8775L51.5338 30.4515C51.3265 30.6982 50.9949 30.7805 50.6632 30.6982L47.3468 30.0401C47.0152 29.9578 46.725 29.7522 46.6421 29.4231L45.6886 26.5849C45.5642 26.2559 45.6886 25.8857 45.9373 25.5977L55.3476 16.2605L55.9695 13.9159H53.6894L41.5016 24.8162C41.0871 25.1864 40.5067 25.1453 40.1336 24.7339C39.7605 24.3637 39.802 23.7467 40.2165 23.3765L52.6945 12.2294C52.6945 12.2294 53.1091 11.9826 53.3163 11.9826H57.2131C57.5033 11.9826 57.7935 12.106 57.9593 12.3528C58.1251 12.5996 58.2081 12.8875 58.1251 13.1755L57.0888 16.9598C57.0888 16.9598 56.9644 17.2477 56.84 17.3711L47.6784 26.4615L48.2588 28.2303L50.5389 28.6827L64.0947 15.0676C64.3434 14.8208 64.6751 14.7385 65.0067 14.8208L68.8206 15.7669C69.2351 15.8903 69.5668 16.2605 69.5668 16.6718V19.8802C69.5668 20.127 69.4424 20.3738 69.2766 20.5795L57.3375 32.0968L57.7106 32.8372H59.5761L72.593 21.4021C72.593 21.4021 72.9661 21.1553 73.1733 21.1553L76.7799 20.9908C77.0287 20.9908 77.2774 21.0731 77.4847 21.2376C77.692 21.4021 77.7749 21.6489 77.7749 21.9369V26.0913C77.7749 26.3381 77.6505 26.5849 77.4847 26.7906L64.758 38.966V41.6397L65.5871 42.0921L76.1996 33.2485C76.1996 33.2485 76.5727 33.0428 76.7385 33.0428L80.0134 32.8372C80.2622 32.8372 80.5524 32.9194 80.7182 33.084C80.9255 33.2485 81.0084 33.4953 81.0084 33.7832V37.732C81.0084 37.9788 80.9255 38.2256 80.7182 38.3902L66.3333 52.7457C66.3333 52.7457 65.9187 53.0336 65.67 53.0336V53.157Z" fill="#C9A04F"/>
<path d="M57.0473 39.2951C56.5084 39.2951 56.0939 38.8838 56.0939 38.349V35.7988C56.0939 35.264 56.5084 34.8527 57.0473 34.8527C57.5863 34.8527 58.0008 35.264 58.0008 35.7988V38.349C58.0008 38.8838 57.5863 39.2951 57.0473 39.2951Z" fill="#C9A04F"/>
<path d="M100.7 1H1V80.963H100.7V1Z" stroke="#C9A04F" stroke-width="1.5" stroke-miterlimit="10"/>
</svg>
