<svg width="89" height="88" viewBox="0 0 89 88" fill="none" xmlns="http://www.w3.org/2000/svg">
<path d="M88.1695 1H1.7356V86.7628H88.1695V1Z" stroke="#C9A04F" stroke-width="1.5" stroke-miterlimit="10"/>
<path d="M77.1838 28.9706H37.0138V12.1471H77.1838V28.9706ZM38.133 27.86H76.0645V13.2577H38.133V27.86Z" fill="#C9A04F"/>
<path d="M77.1838 42.7091H37.0138V27.86H77.1838V42.7091ZM38.133 41.5985H76.0645V28.9706H38.133V41.5985Z" fill="#C9A04F"/>
<path d="M63.7108 12.723H61.4723V41.5574H63.7108V12.723Z" fill="#C9A04F"/>
<path d="M70.9655 28.4359H68.7269V41.5574H70.9655V28.4359Z" fill="#C9A04F"/>
<path d="M72.6237 22.5538H66.2396V24.775H72.6237V22.5538Z" fill="#C9A04F"/>
<path d="M57.1195 19.4688H44.4342V21.69H57.1195V19.4688Z" fill="#C9A04F"/>
<path d="M52.974 12.723H48.5383V28.4359H52.974V12.723Z" fill="#C9A04F"/>
<path d="M43.5636 32.5903H39.0865V38.5546H43.5636V32.5903Z" fill="#C9A04F"/>
<path d="M36.4749 47.5217V48.6323H64.2083V49.7429H75.5256V56.9H64.2083V59.1212H77.7641V47.5217H36.4749Z" fill="#C9A04F"/>
<path d="M36.4749 11.6124V48.6323H38.7134V13.8336H75.5256V74.176H64.2083V75.2866H36.4749V76.3972H77.7641V11.6124H36.4749Z" fill="#C9A04F"/>
<path d="M37.0552 41.5985V48.6323H64.2083V49.167H77.1838V41.5985H37.0138H37.0552ZM76.1059 48.0564H38.1745V42.7091H76.1059V48.0564Z" fill="#C9A04F"/>
<path d="M34.4022 22.4304H30.381V18.4816H27.9766V22.4304H23.9554V24.8573H27.9766V28.8061H30.381V24.8573H34.4022V22.4304Z" fill="#C9A04F"/>
<path d="M22.6286 37.3618H18.6489V33.413H16.2031V37.3618H12.2234V39.7886H16.2031V43.7374H18.6489V39.7886H22.6286V37.3618Z" fill="#C9A04F"/>
<path d="M66.2397 77.3021H12.1407V46.4522H66.2397V77.3021ZM14.3793 75.0809H64.0011V48.6323H14.3793V75.0809Z" fill="#C9A04F"/>
<path d="M18.9808 77.0553H12.348V56.1596H18.9808V77.0553ZM14.172 75.2866H17.1983V57.9695H14.172V75.2866Z" fill="#C9A04F"/>
<path d="M66.0739 77.0965H59.1509V56.1596H66.0739V77.0965ZM60.9749 75.2455H64.2084V57.9695H60.9749V75.2455Z" fill="#C9A04F"/>
<path d="M60.8919 69.0344H17.2811V61.0545H60.8919V69.0344ZM18.8979 67.389H59.2337V62.6587H18.8979V67.389Z" fill="#C9A04F"/>
<path d="M60.7261 73.1477H17.4055V67.5536H60.7261V73.1477ZM18.7321 71.8314H59.3581V68.911H18.7321V71.8314Z" fill="#C9A04F"/>
<path d="M41.6153 61.836H37.5942V68.2117H41.6153V61.836Z" fill="#C9A04F"/>
<path d="M35.2312 62.9466H23.1263V53.8151C23.1263 52.2109 24.4114 50.9357 26.0282 50.9357H32.3708C33.9876 50.9357 35.2727 52.2109 35.2727 53.8151V62.9466H35.2312ZM25.3235 60.7254H32.9927V53.7739C32.9927 53.4037 32.7025 53.1158 32.3294 53.1158H25.9868C25.6137 53.1158 25.3235 53.4037 25.3235 53.7739V60.7254Z" fill="#C9A04F"/>
<path d="M56.5806 62.9466H44.4757V53.8151C44.4757 52.2109 45.7609 50.9357 47.3776 50.9357H53.7202C55.337 50.9357 56.6221 52.2109 56.6221 53.8151V62.9466H56.5806ZM46.6728 60.7254H54.342V53.7739C54.342 53.4037 54.0518 53.1158 53.6788 53.1158H47.3361C46.963 53.1158 46.6728 53.4037 46.6728 53.7739V60.7254Z" fill="#C9A04F"/>
</svg>
