<svg width="41" height="41" viewBox="0 0 41 41" fill="none" xmlns="http://www.w3.org/2000/svg">
<path d="M39.5642 21.917C39.5642 21.917 39.172 22.179 38.9106 22.2227C38.1698 22.3537 37.5162 21.8734 37.3854 21.131C35.5553 10.7817 30.6312 5.06113 22.2648 3.62008C21.524 3.48907 21.0447 2.79038 21.1754 2.09169C21.3061 1.34934 22.0033 0.868986 22.7005 0.99999C32.2 2.61571 37.9955 9.25327 40 20.6506C40.0871 21.131 39.9128 21.5677 39.5642 21.8734V21.917ZM32.4614 20.3013C31.0234 13.7074 27.5374 9.77728 22.0905 8.59824C21.3933 8.42357 20.6525 8.90392 20.5217 9.60261C20.3474 10.3013 20.8268 11.0437 21.524 11.1747C25.9687 12.1354 28.6268 15.2358 29.8469 20.869C30.0212 21.5677 30.7184 22.048 31.4156 21.8734C31.6335 21.8297 31.8514 21.6987 31.9821 21.5677C32.3307 21.262 32.505 20.7817 32.4178 20.3013H32.4614ZM29.4547 28.5546C27.5374 26.8515 26.143 25.6288 24.3564 25.8035C23.0055 25.9782 21.829 26.8952 20.4346 28.9039C19.9988 29.5153 20.1731 30.345 20.7832 30.7817C21.3933 31.2183 22.2212 31.0437 22.6134 30.4323C23.7463 28.7729 24.3564 28.4672 24.6614 28.4672C25.2715 28.3799 26.4044 29.3843 27.6681 30.5196C28.3653 31.131 29.1061 31.786 29.9776 32.4847C30.9798 33.2707 31.4592 34.1004 31.4156 34.8428C31.372 36.1092 29.9776 37.3319 29.4547 37.6812C29.1061 37.8996 28.7139 38.0742 28.3217 38.2052C27.1452 38.5109 25.9251 38.2052 24.8357 37.8559C23.4413 37.3755 22.0905 36.6332 20.8268 35.8472C19.4324 34.9738 18.1251 33.9694 16.8614 32.9651C15.0312 31.4367 13.2446 29.821 11.6324 28.0742C11.6324 28.0742 11.5452 27.9869 11.5452 27.9432C9.80219 25.6725 8.14633 23.3144 6.70834 20.8253C5.92398 19.4279 5.1832 17.9432 4.61672 16.4148C4.13739 15.1048 3.70163 13.7511 3.70163 12.3537C3.70163 11.262 3.91951 10.083 4.66029 9.25327C5.09605 8.77292 6.49046 7.55021 7.75415 7.68121C8.5385 7.76855 9.23571 8.33623 9.88934 9.42794C10.4994 10.3886 11.0223 11.2183 11.5452 11.9607C12.5039 13.4017 13.3754 14.6244 13.2011 15.2358C13.1575 15.4978 12.7653 16.0655 10.9787 16.9825C10.3251 17.3319 10.0636 18.1179 10.4122 18.7729C10.7173 19.4279 11.5452 19.6899 12.1988 19.3406C14.3776 18.2052 15.467 17.2009 15.772 15.8472C16.2078 14.1004 15.162 12.572 13.7676 10.4323C13.2882 9.73361 12.7217 8.90392 12.1553 7.98689C11.0223 6.10916 9.62789 5.10479 7.97202 4.97379C5.13962 4.71178 2.91727 7.1572 2.6994 7.4192C2.17649 7.98689 1.78431 8.64191 1.52286 9.38427C0.999956 10.5633 0.956381 11.786 0.999956 12.9651C1.08711 14.3188 1.43571 15.6288 1.87146 16.8515C2.35079 18.2052 2.91727 19.5153 3.57091 20.7817C4.22454 22.0044 4.92174 23.2271 5.66253 24.4061C6.31616 25.4105 7.01336 26.4148 7.71057 27.3755C8.5385 28.5109 9.36644 29.6026 10.3251 30.607C11.1966 31.524 12.1117 32.3974 13.0268 33.2707C14.029 34.1878 15.0748 35.0611 16.1206 35.9345C17.2972 36.8515 18.4737 37.7249 19.7374 38.4672C20.9575 39.2096 22.2648 39.8646 23.6156 40.345C24.8357 40.7817 26.0994 41.0437 27.4067 41C28.6268 41 29.8033 40.607 30.8055 39.9083C31.1106 39.6899 33.8122 37.8122 33.943 34.9738C34.0301 33.3144 33.2022 31.786 31.5028 30.4323C30.6748 29.7336 29.934 29.1223 29.2804 28.5109L29.4547 28.5546Z" fill="url(#paint0_linear_3_598)"/>
<defs>
<linearGradient id="paint0_linear_3_598" x1="32.9843" y1="-25.8122" x2="-3.49966" y2="96.0666" gradientUnits="userSpaceOnUse">
<stop stop-color="#F9DF7B"/>
<stop offset="0.2" stop-color="#B57E10"/>
<stop offset="0.28" stop-color="#CB9E34"/>
<stop offset="0.44" stop-color="#F9DF7B"/>
<stop offset="0.56" stop-color="#DEB951"/>
<stop offset="0.68" stop-color="#C7992D"/>
<stop offset="0.78" stop-color="#BA8517"/>
<stop offset="0.84" stop-color="#B57E10"/>
<stop offset="0.95" stop-color="#E5C25B"/>
<stop offset="1" stop-color="#F9DF7B"/>
</linearGradient>
</defs>
</svg>
