<svg width="140" height="140" viewBox="0 0 140 140" fill="none" xmlns="http://www.w3.org/2000/svg">
<path d="M140 0H0V140H140V0Z" fill="#C9A04F"/>
<path fill-rule="evenodd" clip-rule="evenodd" d="M11.9629 50.3615H50.6543V11.6702H11.9629V50.3615ZM17.4843 44.8402H45.1329V17.1915H17.4843V44.8402Z" fill="#11263D"/>
<path fill-rule="evenodd" clip-rule="evenodd" d="M78.3029 39.3188H83.8242V11.6702H67.2601V17.1915H56.2174V22.7129H67.2601V28.2342H78.3029V39.277M72.7815 22.7129H78.3029V17.1915H72.7815V22.7129Z" fill="#11263D"/>
<path fill-rule="evenodd" clip-rule="evenodd" d="M89.3456 50.3615H128.037V11.6702H89.3456V50.3615ZM94.867 44.8402H122.516V17.1915H94.867V44.8402Z" fill="#11263D"/>
<path fill-rule="evenodd" clip-rule="evenodd" d="M23.0057 39.3188H28.527H34.0902H39.6116V33.7556V28.2342V22.7129H34.0902H28.527H23.0057V28.2342V33.7556V39.3188Z" fill="#11263D"/>
<path fill-rule="evenodd" clip-rule="evenodd" d="M100.388 39.3188H105.91H111.431H116.952V33.7556V28.2342V22.7129H111.431H105.91H100.388V28.2342V33.7556V39.3188Z" fill="#11263D"/>
<path fill-rule="evenodd" clip-rule="evenodd" d="M61.697 39.3188H67.2183V33.7556V28.2342H61.697H56.1756V33.7556H61.697V39.3188Z" fill="#11263D"/>
<path fill-rule="evenodd" clip-rule="evenodd" d="M56.1756 50.3615H61.697V44.8402V39.3188H56.1756V44.8402V50.3615Z" fill="#11263D"/>
<path fill-rule="evenodd" clip-rule="evenodd" d="M72.7397 44.8402H78.3029V39.3188H72.7397" fill="#11263D"/>
<path fill-rule="evenodd" clip-rule="evenodd" d="M67.2183 50.3615H72.7397V44.8402H67.2183" fill="#11263D"/>
<path fill-rule="evenodd" clip-rule="evenodd" d="M78.3028 50.3615H83.8242V44.8402H78.3028" fill="#11263D"/>
<path fill-rule="evenodd" clip-rule="evenodd" d="M61.6971 55.8829H67.2184V50.3615H61.6971" fill="#11263D"/>
<path fill-rule="evenodd" clip-rule="evenodd" d="M28.527 72.447H34.0902V66.9256V61.4042H39.6115V55.8829H34.0902H28.527H23.0056H17.4843H11.9629V61.4042H17.4843H23.0056V66.9256H28.527V72.447Z" fill="#11263D"/>
<path fill-rule="evenodd" clip-rule="evenodd" d="M78.3029 89.0529H83.8243V78.0102H94.867V72.4888H100.388V66.9674H94.867V61.4461H89.3456V55.9247H83.8243V61.4461H78.3029V55.9247H72.7816V61.4461H61.7388V55.9247H45.1747V61.4461H50.6961V66.9674H56.2175V78.0102H61.7388V66.9674H67.2602V72.4888H72.7816V66.9674H78.3029V72.4888H72.7816V78.0102H78.3029V89.0529ZM83.8243 72.4888H89.3456V66.9674H83.8243V72.4888Z" fill="#11263D"/>
<path fill-rule="evenodd" clip-rule="evenodd" d="M94.867 61.4042H100.388V55.8829H94.867" fill="#11263D"/>
<path fill-rule="evenodd" clip-rule="evenodd" d="M105.91 61.4042H111.431V55.8829H105.91" fill="#11263D"/>
<path fill-rule="evenodd" clip-rule="evenodd" d="M116.952 61.4042H122.474V55.8829H116.952" fill="#11263D"/>
<path fill-rule="evenodd" clip-rule="evenodd" d="M17.4843 77.9683H23.0057V72.447V66.9256H17.4843V72.447V77.9683Z" fill="#11263D"/>
<path fill-rule="evenodd" clip-rule="evenodd" d="M45.1329 72.447H50.6542V66.9256H45.1329" fill="#11263D"/>
<path fill-rule="evenodd" clip-rule="evenodd" d="M100.388 105.617H105.91H111.431V100.096H116.952H122.474H128.037V94.5742V89.0529V83.4897H122.474V89.0529V94.5742H116.952V89.0529V83.4897V77.9683H122.474H128.037V72.447H122.474V66.9256H116.952H111.431V72.447H105.91V77.9683V83.4897H111.431V89.0529V94.5742H105.91V89.0529H100.388V94.5742H94.867V100.096H100.388V105.617Z" fill="#11263D"/>
<path fill-rule="evenodd" clip-rule="evenodd" d="M34.0902 77.9683H39.6116V72.447H34.0902" fill="#11263D"/>
<path fill-rule="evenodd" clip-rule="evenodd" d="M11.9629 83.4897H17.4843V77.9683H11.9629" fill="#11263D"/>
<path fill-rule="evenodd" clip-rule="evenodd" d="M23.0057 83.4897H28.527V77.9683H23.0057" fill="#11263D"/>
<path fill-rule="evenodd" clip-rule="evenodd" d="M39.6115 83.4897H45.1328H50.6542V77.9683H45.1328H39.6115V83.4897Z" fill="#11263D"/>
<path fill-rule="evenodd" clip-rule="evenodd" d="M61.6971 83.4897H67.2184H72.7398V77.9683H67.2184H61.6971V83.4897Z" fill="#11263D"/>
<path fill-rule="evenodd" clip-rule="evenodd" d="M94.867 89.0529H100.388V83.4897V77.9683H94.867V83.4897V89.0529Z" fill="#11263D"/>
<path fill-rule="evenodd" clip-rule="evenodd" d="M56.1756 127.702H61.697V122.181H78.2611V127.702H83.7824V122.181H94.8252V116.66H100.347V105.617H89.3038V100.096H83.7824V105.617H78.2611V100.096H72.7397V94.5743H67.2183V89.0529H61.697V83.5315H56.1756V94.5743H61.697V100.096H56.1756V127.744M67.2183 116.702H78.2611V111.18H72.7397V105.659H67.2183V116.702ZM83.7824 116.702H89.3038V111.18H83.7824V116.702Z" fill="#11263D"/>
<path fill-rule="evenodd" clip-rule="evenodd" d="M11.9629 127.702H50.6543V89.0111H11.9629V127.702ZM17.4843 122.181H45.1329V94.5324H17.4843V122.181Z" fill="#11263D"/>
<path fill-rule="evenodd" clip-rule="evenodd" d="M72.7397 94.5742H78.3029V89.0529H72.7397" fill="#11263D"/>
<path fill-rule="evenodd" clip-rule="evenodd" d="M83.8242 94.5742H89.3456V89.0529H83.8242" fill="#11263D"/>
<path fill-rule="evenodd" clip-rule="evenodd" d="M23.0057 116.66H28.527H34.0902H39.6116V111.138V105.617V100.096H34.0902H28.527H23.0057V105.617V111.138V116.66Z" fill="#11263D"/>
<path fill-rule="evenodd" clip-rule="evenodd" d="M111.766 111.138H117.287V105.617H111.766" fill="#11263D"/>
<path fill-rule="evenodd" clip-rule="evenodd" d="M106.244 116.66H111.766V111.138H106.244" fill="#11263D"/>
<path fill-rule="evenodd" clip-rule="evenodd" d="M122.808 122.181H128.33V116.66H122.808" fill="#11263D"/>
<path fill-rule="evenodd" clip-rule="evenodd" d="M100.681 127.702H106.244H111.766H117.287V122.181H111.766H106.244H100.681V127.702Z" fill="#11263D"/>
</svg>
