<svg width="103" height="82" viewBox="0 0 103 82" fill="none" xmlns="http://www.w3.org/2000/svg">
<path d="M101.399 1H1.69958V80.963H101.399V1Z" stroke="#C9A04F" stroke-width="1.5" stroke-miterlimit="10"/>
<path d="M37.268 50.8947C34.4906 51.306 31.6716 51.5528 28.8527 51.594C26.1995 51.594 23.5879 51.306 20.9762 50.7713C20.686 50.689 20.3544 50.8947 20.3129 51.1826C20.23 51.4706 20.4373 51.7996 20.7275 51.8407C23.3806 52.4166 26.1166 52.7045 28.8527 52.7045C31.7545 52.7045 34.6149 52.4577 37.4753 52.0053C37.7655 51.9641 38.0143 51.6762 37.9313 51.3471C37.8899 51.0592 37.5997 50.8536 37.268 50.8947Z" fill="#C9A04F"/>
<path d="M88.0091 43.2439C87.3458 38.8838 86.3924 37.115 86.3509 37.0328C86.2265 36.8271 85.9778 36.7037 85.7705 36.7448L63.7579 40.6525C63.6335 40.2411 63.5506 40.0355 63.5091 39.9944C63.4262 39.7476 63.136 39.583 62.8873 39.6241L55.301 40.817C55.0108 40.8581 54.8036 41.1461 54.8036 41.434C54.8036 41.8042 55.0523 42.8325 55.3425 44.3956L47.2587 45.7941L47.1344 45.0126C47.0929 44.7247 46.8442 44.519 46.554 44.5601L42.1183 44.7658C41.455 42.5857 38.8019 39.9943 38.0971 39.2951V35.264C38.0971 34.4414 38.3873 33.6598 38.9677 33.084C40.2943 31.7677 42.7816 31.6032 43.4034 31.6032L44.4398 32.2202C44.4398 32.2202 44.73 32.3024 44.8958 32.2613L48.2122 31.2741C48.2122 31.2741 48.5853 31.0273 48.6268 30.8216C48.6682 30.5337 48.7097 30.2046 48.7511 29.8344L63.0117 29.711L64.9601 30.4103C65.2503 30.5337 65.5819 30.3692 65.7063 30.0812C65.7063 29.999 65.7063 29.9578 65.7063 29.8756V25.7211C65.7063 25.392 65.4575 25.1452 65.1259 25.1452C65.1259 25.1452 65.043 25.1452 65.0015 25.1452L63.0117 25.5566L48.6268 24.7339C48.6268 24.2815 48.5438 23.9935 48.5438 23.9524C48.5438 23.7467 48.4195 23.5822 48.2537 23.4999C48.0049 23.3765 41.911 20.3738 30.0134 20.3738C16.043 20.3738 15.6285 26.0502 15.6285 26.6672C15.6285 28.0246 15.6285 30.3692 18.323 31.6854C19.4009 32.1379 20.23 33.084 20.4787 34.2357V39.1717C18.8205 40.817 17.3696 42.7092 16.2088 44.7247C15.131 46.6991 14.675 47.6451 14.675 50.1954V54.8023C14.675 55.1725 15.0066 55.5427 15.587 55.8718L14.7579 56.859C14.5506 57.1058 14.4263 57.4348 14.4677 57.7639C14.4677 58.093 14.675 58.3809 14.9237 58.5866C16.2917 59.6149 20.0227 61.3425 29.1843 61.3425C38.3459 61.3425 42.0768 59.6149 43.4449 58.5866C43.6936 58.3809 43.8594 58.093 43.9009 57.7639C43.9009 57.4348 43.818 57.1058 43.6107 56.859L43.4034 56.6533L48.5024 56.3654C48.834 56.3654 49.0413 56.0774 49.0413 55.7484C49.0413 55.7484 49.0413 55.7072 49.0413 55.6661L48.9169 54.9668L56.9178 53.6506C57.0836 54.7612 57.208 55.8718 57.3323 56.859C57.3323 57.1469 57.6225 57.3526 57.9127 57.3526H57.9956L65.7063 56.0774C65.9964 56.0363 66.2037 55.7484 66.1623 55.4604C66.1623 55.4604 66.1623 55.2136 66.1208 54.8023L88.092 50.9769C88.3822 50.9358 88.548 50.689 88.548 50.4011C88.5066 47.9742 88.2993 45.5473 87.9262 43.1205M64.5041 29.0118L63.5921 28.6827V26.5438L64.5041 26.3381V29.0118ZM62.4313 26.626V28.5182L48.7097 28.6416C48.7097 27.6955 48.7097 26.6672 48.6682 25.8445L62.4313 26.626ZM41.7866 22.6361C39.7968 23.0475 35.0709 23.2942 27.6919 23.2942H27.153C23.7122 23.2942 22.3442 23.212 20.6031 22.8418C22.6344 22.0602 25.6192 21.4844 29.9305 21.4844C33.9102 21.4844 37.8899 21.8546 41.7452 22.6773M19.0278 23.6233C21.598 24.3226 22.8417 24.446 27.153 24.446H28.0235C30.3865 24.446 34.0346 24.446 37.1851 24.2815C41.2892 24.0758 42.9474 23.6645 43.5692 23.1297C44.8543 23.4588 46.1394 23.8701 47.3831 24.4049C47.4246 24.8984 47.5075 26.009 47.5489 27.1608C45.3103 27.3253 36.4389 27.86 30.2207 27.86C25.7021 27.86 21.1835 27.531 16.7063 26.9551C16.7063 26.8728 16.7063 26.7906 16.7063 26.6672C16.7063 25.8445 17.3281 24.6516 19.0692 23.6233M18.8205 30.6982C17.7427 30.2458 16.9965 29.2586 16.8307 28.1068C21.3078 28.6827 25.785 28.9706 30.2621 29.0118C36.4389 29.0118 45.2274 28.477 47.5904 28.3125C47.5904 28.9706 47.5489 29.6288 47.466 30.2458L44.73 31.0684L43.7765 30.4926C43.7765 30.4926 43.6107 30.4103 43.4863 30.4103C43.3205 30.4103 39.9626 30.4103 38.0971 32.2202C37.3095 33.0017 36.8535 34.0711 36.895 35.1817V39.1717C36.3146 39.5007 34.3662 40.3234 29.5159 40.3234C24.6657 40.3234 22.3027 39.4596 21.598 39.1306V34.2357C21.3493 32.6726 20.2715 31.3564 18.8205 30.6982ZM21.142 40.1589C22.0126 40.5702 24.4999 41.4751 29.5574 41.4751C34.6149 41.4751 36.6048 40.6525 37.4339 40.2C38.5117 41.2695 40.543 43.4495 41.0405 45.0537C40.2114 45.5473 37.1437 46.8636 29.2672 46.8636C21.9297 46.8636 18.6132 45.465 17.5354 44.8892C18.5303 43.1616 19.774 41.5986 21.1835 40.1589M42.823 57.6816L43.279 57.3114L42.823 57.7639C41.7866 58.5454 38.4288 60.3141 29.2258 60.3141C20.0227 60.3141 16.6649 58.5454 15.6285 57.7639V57.6816L16.6649 56.4888C19.1522 57.5171 23.7951 58.3398 29.3916 58.3398C36.4389 58.3398 39.0921 57.2703 39.7139 56.9824L42.1183 56.859L42.8645 57.7228L42.823 57.6816ZM39.5066 55.8306C39.5066 55.8306 39.3408 55.8306 39.2579 55.9129C39.2579 55.9129 36.9779 57.188 29.3916 57.188C20.6445 57.188 16.3747 55.337 15.8772 54.8023V50.3188C15.7943 48.7557 16.1674 47.2338 16.9965 45.9175C18.2401 46.6168 21.7638 48.0153 29.2672 48.0153C38.0972 48.0153 41.1648 46.4111 41.911 45.9175L46.1395 45.7119L47.922 55.3782L39.5481 55.8718L39.5066 55.8306ZM48.7926 53.9385L47.5075 46.8636L55.5912 45.465C55.9643 47.4806 56.4618 50.072 56.8349 52.5811L48.7926 53.9385ZM58.4931 56.2008C58.0785 52.2932 57.0836 47.2338 56.5032 44.1488C56.3374 43.1616 56.1716 42.3389 56.0887 41.8042L62.6386 40.7759C63.2604 42.668 63.7164 44.6013 64.0481 46.5757C64.587 49.8252 64.9601 53.6917 65.0844 55.0902L58.4931 56.2008ZM66.0794 53.7328C65.9135 51.8818 65.5819 48.9614 65.1259 46.4111C64.8772 44.8069 64.5041 43.2439 64.0895 41.6808L85.5218 37.8965C86.1851 39.6653 86.6411 41.4751 86.8898 43.3673C87.2215 45.5473 87.3873 47.7685 87.4702 49.9897L66.0794 53.6917V53.7328Z" fill="#C9A04F"/>
<path d="M24.3755 41.722C24.0853 41.5986 23.7536 41.722 23.6293 42.0099L22.3027 44.9304C22.1784 45.2183 22.3027 45.5474 22.5929 45.6708C22.8831 45.7942 23.2147 45.6708 23.3391 45.3828L24.6657 42.4624C24.79 42.1744 24.6657 41.8454 24.3755 41.722Z" fill="#C9A04F"/>
<path d="M26.8213 42.0921C26.5312 42.0098 26.1995 42.2155 26.1581 42.5446L25.5362 45.4239C25.4533 45.7119 25.6606 46.0409 25.9922 46.082C25.9922 46.082 26.0751 46.082 26.1166 46.082C26.3653 46.082 26.6141 45.8764 26.6555 45.6296L27.2773 42.7503C27.3602 42.4623 27.153 42.1332 26.8213 42.0921Z" fill="#C9A04F"/>
<path d="M29.9305 45.7118V42.7091C29.9305 42.38 29.6817 42.1332 29.3501 42.1332C29.0184 42.1332 28.7697 42.38 28.7697 42.7091V45.7118C28.7697 46.0409 29.0184 46.2877 29.3501 46.2877C29.6817 46.2877 29.9305 46.0409 29.9305 45.7118Z" fill="#C9A04F"/>
<path d="M32.0033 45.6707C32.0447 45.9175 32.2934 46.1232 32.5422 46.1232C32.5836 46.1232 32.6251 46.1232 32.6665 46.1232C32.9567 46.0409 33.164 45.753 33.0811 45.4239L32.4178 42.6269C32.3349 42.3389 32.0447 42.1333 31.7131 42.2155C31.4229 42.2978 31.2156 42.5857 31.2985 42.9148L31.9618 45.7119L32.0033 45.6707Z" fill="#C9A04F"/>
<path d="M35.3196 45.4651C35.444 45.753 35.7756 45.8764 36.0658 45.7941C36.356 45.6707 36.4804 45.3417 36.3975 45.0537L35.2367 42.2156C35.1124 41.9276 34.7807 41.7631 34.4905 41.8865C34.2003 42.0099 34.076 42.339 34.1589 42.6269L35.3196 45.4651Z" fill="#C9A04F"/>
<path d="M23.5464 38.349C25.4533 38.8015 27.4017 39.0072 29.3501 38.966C31.2985 38.966 33.2469 38.7604 35.1538 38.2668C35.4025 38.1845 35.5683 37.9788 35.5683 37.732V33.5776C35.5683 33.2485 35.3196 33.0017 34.988 33.0017H34.9051C33.0396 33.2896 31.1327 33.4131 29.2257 33.4131C27.4017 33.4131 25.6191 33.2485 23.8366 33.0017C23.6707 33.0017 23.5049 33.0017 23.3806 33.1251C23.2562 33.2485 23.1733 33.3719 23.1733 33.5776V37.7732C23.1733 38.02 23.3391 38.2668 23.5878 38.3079M24.2926 34.2357C25.9093 34.4414 27.5675 34.5648 29.2257 34.5648C30.9668 34.5648 32.708 34.4414 34.4491 34.2357V37.2796C32.7909 37.6498 31.0912 37.8143 29.3915 37.8143C27.6919 37.8143 25.9922 37.6498 24.334 37.3207V34.2357H24.2926Z" fill="#C9A04F"/>
<path d="M38.4702 44.8892C38.636 45.136 38.9677 45.2594 39.2579 45.0949C39.5066 44.9303 39.631 44.6013 39.4652 44.3133L37.8069 41.6808C37.6411 41.434 37.268 41.3517 37.0193 41.5163C36.7706 41.6808 36.6877 42.0099 36.8535 42.2978L38.5117 44.9303L38.4702 44.8892Z" fill="#C9A04F"/>
<path d="M22.054 41.2695C21.8053 41.105 21.4322 41.1461 21.2664 41.3929L19.3594 44.1077C19.1936 44.3545 19.2351 44.7247 19.5253 44.8892C19.774 45.0537 20.1471 45.0126 20.3129 44.7658L22.2199 42.051C22.3857 41.8042 22.3442 41.434 22.0955 41.2695" fill="#C9A04F"/>
</svg>
