<svg width="102" height="82" viewBox="0 0 102 82" fill="none" xmlns="http://www.w3.org/2000/svg">
<path d="M101.099 1H1.39911V80.963H101.099V1Z" stroke="#C9A04F" stroke-width="1.5" stroke-miterlimit="10"/>
<path d="M26.9355 29.7521H23.2045C22.7485 29.7521 22.3754 29.3819 22.3754 28.9295V21.5255C22.3754 21.073 22.7485 20.7028 23.2045 20.7028H26.9355C27.3915 20.7028 27.7646 21.073 27.7646 21.5255V28.9295C27.7646 29.3819 27.3915 29.7521 26.9355 29.7521ZM23.2045 21.4021C23.2045 21.4021 23.0802 21.4432 23.0802 21.5255V28.9295C23.0802 28.9295 23.1216 29.0529 23.2045 29.0529H26.9355C26.9355 29.0529 27.0599 29.0117 27.0599 28.9295V21.5255C27.0599 21.5255 27.0184 21.4021 26.9355 21.4021H23.2045Z" fill="#C9A04F"/>
<path d="M41.9008 40.9815V39.1306H40.0353V41.7219L44.5539 46.2054C44.5539 46.2054 44.6783 46.4111 44.6783 46.5345V61.3425C44.6783 61.3425 44.6783 61.7538 44.3881 62.0418C43.4347 63.1935 40.1597 63.9339 34.8534 64.1395C29.5472 63.9339 26.2308 63.1935 25.2773 62.0418C25.0286 61.7127 24.9871 61.4659 24.9871 61.3425V46.5345C24.9871 46.5345 25.0286 46.2877 25.1115 46.2054L29.6301 41.7219V39.1306H27.7646V40.9815C27.7646 40.9815 27.7232 41.2283 27.6403 41.3106L23.5776 45.3417V63.8516C30.625 66.7309 38.3771 66.7309 46.0049 63.8516V45.3417L41.9423 41.3106C41.9423 41.3106 41.8179 41.1049 41.8179 40.9815" fill="#C9A04F"/>
<path d="M37.5895 33.9066H32.2003V27.4487L32.3247 27.3253C32.6149 27.0785 33.6098 26.6671 34.8949 26.6671C36.18 26.6671 37.175 27.0373 37.4651 27.3253L37.5895 27.4487V33.9066ZM32.905 33.2073H36.8433V27.8189C36.5531 27.6955 35.8484 27.4487 34.8534 27.4487C33.8585 27.4487 33.1538 27.6955 32.8636 27.8189V33.2073H32.905Z" fill="#C9A04F"/>
<path d="M54.8762 40.4056H52.1816C51.4769 40.4056 50.8965 39.8298 50.8965 39.1305V33.0839L52.2646 33.2073L54.8762 40.4468V40.4056ZM51.6013 33.8243V39.0894C51.6013 39.4184 51.85 39.6652 52.1816 39.6652H53.8399L51.7256 33.8243H51.6013Z" fill="#C9A04F"/>
<path d="M43.7663 38.5546H26.0235C25.5675 38.5546 25.1944 38.1844 25.1944 37.732V34.9349C25.1944 34.4824 25.5675 34.1122 26.0235 34.1122H43.7663C44.2223 34.1122 44.5954 34.4824 44.5954 34.9349V37.732C44.5954 38.1844 44.2223 38.5546 43.7663 38.5546ZM26.0235 34.8526C26.0235 34.8526 25.8992 34.8938 25.8992 34.976V37.7731C25.8992 37.7731 25.9406 37.8965 26.0235 37.8965H43.7663C43.7663 37.8965 43.8907 37.8554 43.8907 37.7731V34.976C43.8907 34.976 43.8492 34.8526 43.7663 34.8526H26.0235Z" fill="#C9A04F"/>
<path d="M64.3281 57.5582C63.0844 57.5582 62.0895 56.571 62.0895 55.337C62.0895 54.103 63.0844 53.1158 64.3281 53.1158C65.5717 53.1158 66.5666 54.103 66.5666 55.337C66.5666 56.571 65.5717 57.5582 64.3281 57.5582ZM64.3281 53.8562C63.499 53.8562 62.8357 54.5143 62.8357 55.337C62.8357 56.1596 63.499 56.8178 64.3281 56.8178C65.1572 56.8178 65.8204 56.1596 65.8204 55.337C65.8204 54.5143 65.1572 53.8562 64.3281 53.8562Z" fill="#C9A04F"/>
<path d="M40.5742 27.9012H37.7967V27.531C37.7967 27.0374 36.5116 26.5027 34.8949 26.5027C33.2781 26.5027 31.993 27.0785 31.993 27.531V27.9012H28.0133V22.5538H40.2426L40.1597 23.0063C40.0353 23.6233 39.9524 24.1992 39.9524 24.775C39.9524 25.68 40.1182 26.5438 40.4084 27.4076L40.5742 27.9012ZM38.46 27.2019H39.5793C39.3306 26.4204 39.2477 25.5977 39.2477 24.775C39.2477 24.2814 39.2891 23.7878 39.372 23.2942H28.7181V27.2019H31.3297C31.6614 26.297 33.3196 25.8034 34.8949 25.8034C36.4702 25.8034 38.1284 26.297 38.46 27.2019Z" fill="#C9A04F"/>
<path d="M49.4871 15.8491V14.574C49.4871 13.8747 50.0675 13.2988 50.7722 13.2988H56.3687C56.8247 13.2988 57.1978 13.5045 57.4465 13.9158L57.7367 14.3683L49.4457 15.8902L49.4871 15.8491ZM50.7722 13.9981C50.4406 13.9981 50.1919 14.2449 50.1919 14.574V15.0264L55.6225 14.0392H50.7722V13.9981Z" fill="#C9A04F"/>
<path d="M30.6665 39.1306V41.9276C30.6665 41.9276 30.625 42.1744 30.5421 42.2567L26.0235 46.7402V49.784H33.4854V39.1306H30.6665Z" fill="#C9A04F"/>
<path d="M35.3924 39.1306H34.4389V49.784H35.3924V39.1306Z" fill="#C9A04F"/>
<path d="M43.7663 46.7402L39.2477 42.2567C39.2477 42.2567 39.1233 42.051 39.1233 41.9276V39.1306H36.3044V49.784H43.7663V46.7402Z" fill="#C9A04F"/>
<path d="M26.0235 61.3836C26.0235 61.3836 26.8112 62.9055 34.9364 63.2346C43.0201 62.9055 43.7663 61.507 43.8077 61.3836V50.689H26.0235V61.3425V61.3836Z" fill="#C9A04F"/>
<path d="M73.6969 16.3838H73.2408V30.2868H73.6969C73.9456 30.2868 74.1529 30.0812 74.1529 29.8344V16.8363C74.1529 16.5895 73.9456 16.3838 73.6969 16.3838Z" fill="#C9A04F"/>
<path d="M57.7781 22.4715V24.1991C57.7781 27.572 60.7214 30.2868 64.328 30.2868H72.2874V16.3838H64.328C60.7214 16.3838 57.7781 19.0986 57.7781 22.4715ZM70.8779 28.4358H62.4625C62.2138 28.4358 62.0065 28.2302 62.0065 27.9834C62.0065 27.7366 62.2138 27.5309 62.4625 27.5309H70.8779C71.1266 27.5309 71.3339 27.7366 71.3339 27.9834C71.3339 28.2302 71.1266 28.4358 70.8779 28.4358ZM70.8779 26.1324H62.4625C62.2138 26.1324 62.0065 25.9267 62.0065 25.6799C62.0065 25.4331 62.2138 25.2274 62.4625 25.2274H70.8779C71.1266 25.2274 71.3339 25.4331 71.3339 25.6799C71.3339 25.9267 71.1266 26.1324 70.8779 26.1324ZM70.8779 23.8289H62.4625C62.2138 23.8289 62.0065 23.6233 62.0065 23.3765C62.0065 23.1297 62.2138 22.924 62.4625 22.924H70.8779C71.1266 22.924 71.3339 23.1297 71.3339 23.3765C71.3339 23.6233 71.1266 23.8289 70.8779 23.8289ZM70.8779 21.5254H62.4625C62.2138 21.5254 62.0065 21.3198 62.0065 21.073C62.0065 20.8262 62.2138 20.6205 62.4625 20.6205H70.8779C71.1266 20.6205 71.3339 20.8262 71.3339 21.073C71.3339 21.3198 71.1266 21.5254 70.8779 21.5254ZM71.3339 18.7284C71.3339 18.9752 71.1266 19.1809 70.8779 19.1809H62.4625C62.2138 19.1809 62.0065 18.9752 62.0065 18.7284C62.0065 18.4816 62.2138 18.2759 62.4625 18.2759H70.8779C71.1266 18.2759 71.3339 18.4816 71.3339 18.7284Z" fill="#C9A04F"/>
<path d="M74.1529 68.1294L74.4016 67.5124C74.6089 67.0599 74.6918 66.5252 74.6918 66.0316C74.6918 65.4969 74.5674 64.9622 74.3602 64.4686L74.1115 63.8927L80.1224 64.7565V66.8954L74.1529 68.1706V68.1294ZM75.2722 64.7565C75.3966 65.1678 75.438 65.5791 75.438 66.0316C75.438 66.4018 75.3966 66.8132 75.2722 67.1834L79.3762 66.3196V65.3735L75.2307 64.7976L75.2722 64.7565Z" fill="#C9A04F"/>
<path d="M69.9245 34.4002C69.9245 34.4002 69.6343 34.4002 69.4684 34.4002L47.0412 32.5492C43.0201 31.9322 40.0768 28.6416 40.0768 24.7339C40.0768 20.8262 43.103 17.0831 46.9998 16.5072L69.3856 12.3528C73.1994 12.0648 78.7959 15.3555 79.5835 19.222L79.7079 19.7979C79.9981 21.1553 80.1224 21.7312 80.0395 23.3765C80.081 24.9396 79.9981 25.5154 79.7079 26.8728L79.5835 27.4898C78.8373 31.1507 73.5311 34.3591 69.8416 34.3591M69.8416 13.0109C69.8416 13.0109 69.5928 13.0109 69.427 13.0109L47.0412 17.1654C43.4761 17.7001 40.6986 21.0319 40.6986 24.6928C40.6986 28.3536 43.3517 31.2329 46.9998 31.7677L69.3856 33.5775C72.7849 33.8243 78.0911 30.7805 78.7958 27.2841L78.9202 26.6671C79.2104 25.3097 79.2933 24.8573 79.2519 23.3353C79.2933 21.7312 79.2519 21.2787 78.9202 19.8802L78.7958 19.3043C78.1326 15.9725 73.1994 12.9698 69.8001 12.9698M73.5311 31.5209H64.1622C59.8509 31.5209 56.3272 28.2302 56.3272 24.158V22.4304C56.3272 18.3582 59.8509 15.0676 64.1622 15.0676H73.5311C74.4845 15.0676 75.3136 15.8491 75.3136 16.7952V29.7933C75.3136 30.7393 74.526 31.562 73.5311 31.562M64.1622 15.808C60.224 15.808 57.0319 18.8107 57.0319 22.4716V24.1991C57.0319 27.86 60.224 30.8627 64.1622 30.8627H73.5311C74.1114 30.8627 74.5674 30.4103 74.5674 29.8344V16.8363C74.5674 16.2604 74.1114 15.808 73.5311 15.808H64.1622Z" fill="#C9A04F"/>
<path d="M70.8779 69.6513H55.9126C54.1301 69.6513 52.5962 68.3351 52.306 66.5664V66.155H74.526V66.5664C74.1943 68.3351 72.6605 69.6513 70.8779 69.6513ZM53.1352 66.8543C53.5082 68.0472 54.6275 68.9109 55.9126 68.9109H70.8779C72.163 68.9109 73.3238 68.0472 73.6554 66.8543H53.1352Z" fill="#C9A04F"/>
<path d="M70.7121 62.2063H58.7731L56.949 45.5885L52.4719 33.1662L69.427 34.5647C70.5049 34.647 71.7485 34.4413 73.0336 33.9889L73.9871 33.6598L73.4482 34.5236C72.9922 35.264 72.4532 36.0455 71.79 36.9504C69.883 39.6652 67.8932 42.4623 68.3492 44.6835L70.6292 62.2063H70.7121ZM59.4363 61.507H69.883L67.7273 44.8069C67.2299 42.3389 69.3026 39.4185 71.2925 36.5803C71.707 36.0044 72.0801 35.4697 72.3703 35.0172C71.334 35.3051 70.2976 35.4285 69.427 35.3463L53.5497 34.03L57.6123 45.3828C57.6123 45.3828 57.6123 45.5062 57.6538 45.5885L59.3949 61.5481L59.4363 61.507ZM64.3695 58.5043C62.6284 58.5043 61.2189 57.1058 61.2189 55.3782C61.2189 53.6506 62.6284 52.252 64.3695 52.252C66.1106 52.252 67.5201 53.6506 67.5201 55.3782C67.5201 57.1058 66.1106 58.5043 64.3695 58.5043ZM64.3695 52.9513C63.0015 52.9513 61.9236 54.0208 61.9236 55.3782C61.9236 56.7356 63.0015 57.805 64.3695 57.805C65.7375 57.805 66.8153 56.7356 66.8153 55.3782C66.8153 54.0208 65.7375 52.9513 64.3695 52.9513ZM62.048 44.6012C60.3069 44.6012 58.8974 43.2027 58.8974 41.4751C58.8974 39.7475 60.3069 38.349 62.048 38.349C63.7891 38.349 65.1986 39.7475 65.1986 41.4751C65.1986 43.2027 63.7891 44.6012 62.048 44.6012ZM62.048 39.0483C60.68 39.0483 59.6021 40.1177 59.6021 41.4751C59.6021 42.8325 60.68 43.902 62.048 43.902C63.416 43.902 64.4939 42.8325 64.4939 41.4751C64.4939 40.1177 63.416 39.0483 62.048 39.0483Z" fill="#C9A04F"/>
<path d="M74.526 65.9082H52.2646V65.4969C52.5962 63.7282 54.1301 62.4119 55.9126 62.4119H70.8779C72.6605 62.4119 74.1943 63.7282 74.4845 65.4969V65.9082H74.526ZM53.1351 65.209H73.6554C73.2823 64.0161 72.163 63.1523 70.8779 63.1523H55.9126C54.6275 63.1523 53.4668 64.0161 53.1351 65.209Z" fill="#C9A04F"/>
</svg>
