<svg width="89" height="88" viewBox="0 0 89 88" fill="none" xmlns="http://www.w3.org/2000/svg">
<path d="M87.4339 1H1V86.7628H87.4339V1Z" stroke="#C9A04F" stroke-width="1.5" stroke-miterlimit="10"/>
<path d="M38.6413 49.0848C38.6413 49.0848 38.3097 49.0848 38.1438 49.0848C37.0246 48.9614 36.0296 48.3855 35.3249 47.5217L32.5474 44.0254C31.8427 43.1616 31.5525 42.051 31.6768 40.9404C31.8012 39.8298 32.3816 38.8426 33.2521 38.1433L55.6379 20.6206C56.5085 19.9213 57.6277 19.6334 58.747 19.7568C59.8663 19.8802 60.8612 20.456 61.566 21.3198L64.3435 24.8162C65.0482 25.68 65.3384 26.7906 65.214 27.9011C65.0897 29.0117 64.5093 29.9989 63.6387 30.6982L41.253 48.221C40.5068 48.7968 39.5948 49.1259 38.6413 49.1259V49.0848ZM58.2081 21.9368C57.7521 21.9368 57.3376 22.1014 57.0059 22.3482L34.6202 39.8709C34.2056 40.2 33.9569 40.6525 33.874 41.1461C33.8325 41.6397 33.9569 42.1744 34.2885 42.5857L37.066 46.082C37.3977 46.4934 37.8537 46.7402 38.3511 46.8224C38.89 46.8636 39.3875 46.7402 39.802 46.4111L62.1878 28.8883C62.6024 28.5593 62.8511 28.1068 62.934 27.6132C62.9755 27.1196 62.8511 26.5849 62.5195 26.1736L59.742 22.6772C59.4103 22.2659 58.9543 22.0191 58.4569 21.9368C58.3739 21.9368 58.291 21.9368 58.2081 21.9368Z" fill="#C9A04F"/>
<path d="M38.6413 49.455C38.6413 49.455 38.2682 49.455 38.1024 49.455C36.9002 49.3316 35.8223 48.7146 35.0347 47.7685L32.2572 44.2722C31.511 43.3261 31.1379 42.1332 31.3037 40.9404C31.4281 39.7475 32.0499 38.678 33.0034 37.8965L55.3892 20.3738C56.3426 19.6334 57.5448 19.2632 58.747 19.4277C59.9492 19.5511 61.027 20.1681 61.8147 21.1142L64.5922 24.6105C65.3384 25.5565 65.7115 26.7494 65.5457 27.9423C65.4213 29.1351 64.7995 30.2046 63.846 30.9861L41.4602 48.5089C40.6311 49.167 39.6777 49.4961 38.6413 49.4961V49.455ZM58.2081 20.0858C57.379 20.0858 56.5499 20.3738 55.8452 20.9085L33.4594 38.4312C32.6717 39.0482 32.1328 39.9532 32.0085 40.9815C31.8841 42.0098 32.1743 42.997 32.7961 43.7786L35.5736 47.2749C36.1954 48.0564 37.1074 48.5912 38.1438 48.7146C39.1387 48.838 40.1751 48.55 40.9628 47.933L63.3485 30.4103C64.1362 29.7933 64.6751 28.8883 64.7995 27.86C64.9238 26.8728 64.6336 25.8445 64.0118 25.0629L61.2343 21.5666C60.6125 20.7851 59.7005 20.2504 58.6641 20.127C58.4983 20.127 58.3739 20.127 58.2081 20.127V20.0858ZM38.6413 47.2338C38.6413 47.2338 38.4755 47.2338 38.3511 47.2338C37.7293 47.1515 37.1904 46.8636 36.7758 46.37L33.9983 42.8736C33.6252 42.38 33.4594 41.8042 33.5008 41.1872C33.5838 40.5702 33.8739 40.0354 34.3714 39.6652L56.7572 22.1425C57.2546 21.7723 57.835 21.5666 58.4568 21.6489C59.0787 21.7312 59.6176 22.0191 60.0321 22.5127L62.8096 26.009C63.1827 26.5026 63.3485 27.0785 63.3071 27.6955C63.2242 28.3125 62.934 28.8472 62.4365 29.2174L40.0508 46.7402C39.6362 47.0692 39.1387 47.2338 38.5998 47.2338H38.6413ZM58.2081 22.3481C57.835 22.3481 57.5034 22.4715 57.2546 22.6772L34.8689 40.2C34.5372 40.4468 34.3299 40.817 34.2885 41.2283C34.247 41.6396 34.3714 42.051 34.6201 42.38L37.3976 45.8764C37.6464 46.2054 38.0195 46.4111 38.434 46.4522C38.89 46.4934 39.2631 46.37 39.5947 46.1232L61.9805 28.6004C62.3122 28.3536 62.5194 27.9834 62.5609 27.5721C62.6023 27.1607 62.478 26.7494 62.2292 26.4203L59.4518 22.924C59.203 22.5949 58.8299 22.3893 58.4154 22.3481C58.3739 22.3481 58.291 22.3481 58.2081 22.3481Z" fill="#C9A04F"/>
<path d="M70.8105 71.2144C69.6497 71.2144 68.5305 70.6797 67.7843 69.6925L58.6227 57.4348C58.0423 56.6121 57.7936 55.6249 57.9179 54.6377C58.0838 53.6505 58.5812 52.7867 59.4103 52.1697L59.7834 51.8818C61.4416 50.6478 63.8046 51.018 65.0482 52.6633L74.2098 64.9211C74.7902 65.7437 75.0389 66.7309 74.9145 67.7181C74.7487 68.7053 74.2513 69.5691 73.4222 70.1861L73.0491 70.474C72.3858 70.9676 71.5981 71.2144 70.8105 71.2144ZM68.9036 68.8698C69.6912 69.8982 71.1836 70.145 72.22 69.3634L72.5931 69.0755C73.0905 68.7053 73.4222 68.1294 73.5465 67.5124C73.6294 66.8954 73.5051 66.2784 73.0905 65.7437L63.9289 53.486C63.1413 52.4577 61.6489 52.2109 60.6125 52.9924L60.2394 53.2803C59.742 53.6505 59.4103 54.1853 59.286 54.8434C59.2031 55.4604 59.3689 56.0774 59.742 56.6121L68.9036 68.8698Z" fill="#C9A04F"/>
<path d="M70.8105 71.5846C69.4839 71.5846 68.2403 70.9676 67.4526 69.9393L58.291 57.6816C57.6277 56.8178 57.3376 55.7072 57.5034 54.6377C57.6692 53.5271 58.2496 52.5811 59.1201 51.923L59.4932 51.635C60.3638 50.9769 61.4831 50.689 62.5609 50.8535C63.6802 51.018 64.6337 51.5939 65.2969 52.4577L74.4585 64.7154C75.1218 65.5792 75.412 66.6898 75.2462 67.7592C75.0803 68.8698 74.5 69.8159 73.588 70.474L73.2149 70.762C72.5101 71.2967 71.6396 71.5846 70.7276 71.5846H70.8105ZM62.022 51.5528C61.3172 51.5528 60.6125 51.7995 59.9907 52.2109L59.6176 52.4988C58.8714 53.0335 58.4154 53.8151 58.291 54.72C58.1667 55.6249 58.3739 56.4887 58.9128 57.2291L68.0744 69.4868C68.6963 70.3506 69.7326 70.8442 70.8105 70.8442C71.5567 70.8442 72.2614 70.5974 72.8418 70.1861L73.2149 69.8982C73.9611 69.3634 74.4171 68.5819 74.5414 67.677C74.6658 66.772 74.4585 65.9083 73.9196 65.1679L64.758 52.9101C64.2191 52.1697 63.4315 51.7173 62.5194 51.5939C62.3536 51.5939 62.1878 51.5939 62.022 51.5939V51.5528ZM70.8105 70.1861C70.8105 70.1861 70.5203 70.1861 70.3959 70.1861C69.6497 70.0627 69.0279 69.6925 68.5719 69.1166L59.4103 56.8589C58.9543 56.2831 58.7885 55.5427 58.9128 54.8434C59.0372 54.103 59.4103 53.486 59.9907 53.0335L60.3638 52.7456C60.9441 52.3343 61.6903 52.1286 62.3951 52.252C63.1413 52.3754 63.7631 52.7456 64.1776 53.3215L73.3392 65.5792C73.7952 66.155 73.9611 66.8954 73.8367 67.5947C73.7123 68.294 73.3392 68.9521 72.7589 69.4046L72.3858 69.6925C71.8883 70.0627 71.3494 70.2272 70.769 70.2272L70.8105 70.1861ZM62.022 52.9101C61.6074 52.9101 61.1929 53.0335 60.8198 53.2803L60.4467 53.5683C60.0321 53.8973 59.742 54.3498 59.659 54.8845C59.5761 55.4193 59.7005 55.9129 60.0321 56.3653L69.1937 68.623C69.5254 69.0344 69.9814 69.3223 70.5203 69.4046C71.0592 69.4868 71.5981 69.3634 72.0127 69.0344L72.3858 68.7464C72.8418 68.4174 73.0905 67.9649 73.1734 67.4302C73.2563 66.8954 73.132 66.3607 72.8003 65.9494L63.6387 53.6917C63.3071 53.2803 62.8511 52.9924 62.3122 52.9101C62.2293 52.9101 62.1049 52.9101 62.022 52.9101Z" fill="#C9A04F"/>
<path d="M43.4915 61.7538C43.4915 61.7538 43.1599 61.7538 43.0355 61.7538C40.714 61.4659 39.2631 58.9979 39.0973 58.7511L32.7961 51.4294C31.5525 50.1954 31.3452 48.8791 31.3866 48.0153C31.5525 45.6707 33.6252 43.9842 33.8739 43.8197L35.242 45.5884C34.8274 45.9175 33.7081 47.0281 33.6252 48.1798C33.6252 48.7968 33.8325 49.3316 34.4129 49.9074L40.9213 57.4348C41.2944 58.0518 42.2893 59.4092 43.3257 59.5326C43.4915 59.5326 44.0304 59.6149 44.8181 58.8333L53.8139 49.9074C54.7259 49.0025 56.7157 48.221 58.4154 49.9074L60.571 51.9641L59.0372 53.5683L56.8401 51.5116C56.3841 51.0592 55.8866 51.0592 55.3892 51.5116L46.3934 60.4375C45.3156 61.507 44.2377 61.7949 43.4501 61.7949L43.4915 61.7538Z" fill="#C9A04F"/>
<path d="M43.4915 62.124C43.4915 62.124 43.1599 62.124 42.9941 62.124C40.5068 61.7949 38.9729 59.2035 38.8071 58.9156L32.5474 51.6762C31.1379 50.2776 31.0136 48.7968 31.055 48.0153C31.2208 45.5062 33.418 43.7374 33.6667 43.5318L33.9569 43.3261L35.7809 45.6707L35.4907 45.9175C35.1176 46.2054 34.0812 47.2338 34.0398 48.221C34.0398 48.7146 34.2471 49.167 34.7445 49.6606L41.253 57.2291C41.709 57.9284 42.621 59.0801 43.4086 59.2035C43.5745 59.2035 43.9476 59.2447 44.6108 58.6277L53.6066 49.7018C54.643 48.6734 56.8401 47.8508 58.747 49.7018L61.1929 52.0052L59.1201 54.1442L56.6743 51.7996C56.3426 51.4705 56.0939 51.4705 55.7623 51.7996L46.7665 60.7255C45.5643 61.9183 44.3621 62.2063 43.533 62.2063L43.4915 62.124ZM33.8325 44.3133C33.2521 44.848 31.8841 46.2466 31.8012 48.0153C31.7597 48.7968 31.9256 49.9897 33.0863 51.1414L39.4289 58.4631C39.4289 58.4631 40.9628 61.0545 43.1185 61.3425C43.2428 61.3425 43.3672 61.3425 43.533 61.3425C44.4865 61.3425 45.3985 60.9311 46.2276 60.1085L55.2233 51.1826C55.8866 50.5656 56.5914 50.6067 57.2132 51.1826L59.1201 52.9924L60.1565 51.923L58.2496 50.1131C56.7572 48.6323 55.0161 49.2904 54.187 50.1131L45.1912 59.039C44.2792 59.9439 43.6159 59.8617 43.3672 59.8205C42.0821 59.656 41.0042 58.0518 40.6726 57.5582L34.2056 50.072C33.5838 49.455 33.2936 48.7968 33.335 48.0564C33.418 46.9047 34.33 45.8764 34.8274 45.4239L33.9154 44.231L33.8325 44.3133Z" fill="#C9A04F"/>
<path d="M20.1523 17.1654H14.1413V21.6489H20.1523V17.1654Z" fill="#C9A04F"/>
<path d="M27.6557 30.5748H15.6337V35.0583H27.6557V30.5748Z" fill="#C9A04F"/>
<path d="M47.1396 17.1654H22.6396V21.6489H47.1396V17.1654Z" fill="#C9A04F"/>
</svg>
