<svg width="89" height="88" viewBox="0 0 89 88" fill="none" xmlns="http://www.w3.org/2000/svg">
<path d="M87.7357 1H1.30176V86.7628H87.7357V1Z" stroke="#C9A04F" stroke-width="1.5" stroke-miterlimit="10"/>
<path d="M43.5446 68.9933L18.5886 50.401L20.3712 48.0153L43.4202 65.1679L66.5107 45.0948L68.4591 47.3572L43.5446 68.9933Z" fill="#C9A04F"/>
<path d="M70.4904 54.8023H67.5056V46.4522L58.4684 47.6862L58.0538 44.7658L70.4904 43.0382V54.8023Z" fill="#C9A04F"/>
<path d="M31.564 41.763C31.564 41.763 31.3153 41.763 31.1909 41.763C27.7916 41.6396 25.0141 39.5419 24.0607 36.4569C22.9414 32.8371 24.4337 29.0117 25.6359 26.4615C25.6359 26.3792 30.0716 18.3582 31.3567 18.276H32.02L32.3517 18.8107C33.1393 20.0858 33.8855 21.2787 34.5903 22.3482C38.1139 27.8189 40.6427 31.7677 38.487 37.115C37.3263 39.9943 34.6731 41.7219 31.5226 41.7219L31.564 41.763ZM31.3982 21.4432C30.1131 23.4176 27.916 26.9551 27.7087 27.4075C26.6723 29.6287 25.3458 32.9194 26.2163 35.7987C27.004 38.3901 29.4498 39.4185 31.2738 39.5007C33.1808 39.6241 35.4193 38.8015 36.4143 36.3335C38.1554 32.0556 36.1241 28.8472 32.7248 23.5822C32.3102 22.924 31.8542 22.1836 31.3982 21.4432Z" fill="#C9A04F"/>
<path d="M46.5708 50.7301C46.5708 50.7301 46.405 50.7301 46.3221 50.7301C43.7518 50.6067 41.6376 49.0436 40.9329 46.699C40.1038 43.9842 41.1816 41.146 42.0936 39.2951C42.0936 39.2539 45.2442 33.2896 46.4879 33.2073H47.1512L47.4828 33.7421C48.0217 34.647 48.5607 35.5108 49.0996 36.2923C51.5869 40.1589 53.5353 43.2027 51.9185 47.2338C51.048 49.3727 48.9752 50.7301 46.6122 50.7301H46.5708ZM46.4879 36.4157C45.5759 37.8554 44.2908 39.9121 44.1249 40.2823C42.9642 42.7502 42.6326 44.5601 43.0886 46.082C43.6275 47.8096 45.2028 48.4678 46.4464 48.5089C47.6486 48.5912 49.1825 48.0564 49.8458 46.4111C51.048 43.4495 49.597 41.2283 47.2341 37.5263C47.0268 37.1561 46.7781 36.7859 46.5293 36.4157H46.4879Z" fill="#C9A04F"/>
<path d="M68.998 65.9494H17.1791V68.1706H68.998V65.9494Z" fill="#C9A04F"/>
</svg>
