<svg xmlns="http://www.w3.org/2000/svg" width="46.5" height="46.5" viewBox="0 0 46.5 46.5">
  <g id="Group_74" data-name="Group 74" transform="translate(0.25 0.25)">
    <path id="Path_384" data-name="Path 384" d="M.535.535h44.93v44.93H.535ZM0,46H46V0H0Z" fill="#C9A04F" stroke="#C9A04F" stroke-width="0.5"/>
    <path id="Path_385" data-name="Path 385" d="M85.018,178.264H61.013V171.8H85.018Zm-23-1.009H84.009v-4.441H62.022Z" transform="translate(-49.926 -140.585)" fill="#C9A04F"/>
    <path id="Path_386" data-name="Path 386" d="M110.008,178.264H99.672V171.8h10.336Zm-9.327-1.009H109v-4.441h-8.317Z" transform="translate(-81.56 -140.585)" fill="#C9A04F"/>
    <rect id="Rectangle_124" data-name="Rectangle 124" width="6.645" height="1.575" transform="translate(27.943 33.542)" fill="#C9A04F"/>
    <rect id="Rectangle_125" data-name="Rectangle 125" width="6.645" height="1.575" transform="translate(12.014 33.542)" fill="#C9A04F"/>
    <rect id="Rectangle_126" data-name="Rectangle 126" width="3.997" height="0.969" transform="translate(12.44 37.175)" fill="#C9A04F"/>
    <rect id="Rectangle_127" data-name="Rectangle 127" width="3.997" height="0.969" transform="translate(30.591 37.175)" fill="#C9A04F"/>
    <path id="Path_387" data-name="Path 387" d="M73.027,57.927H42.458V53.163H73.027Zm-29.56-1.009h28.55V54.172H43.467Z" transform="translate(-34.743 -43.502)" fill="#C9A04F"/>
    <path id="Path_388" data-name="Path 388" d="M197.14,91.131h-3.006V90.122h2V87.5h-2V86.489h3.006Z" transform="translate(-158.856 -70.772)" fill="#C9A04F"/>
    <path id="Path_389" data-name="Path 389" d="M46.232,91.131H42.457V86.489h3.775V87.5H43.467v2.624h2.766Z" transform="translate(-34.742 -70.772)" fill="#C9A04F"/>
    <path id="Path_390" data-name="Path 390" d="M197.14,122.457h-3.006v-1.009h2v-2.625h-2v-1.009h3.006Z" transform="translate(-158.856 -96.404)" fill="#C9A04F"/>
    <path id="Path_391" data-name="Path 391" d="M46.232,122.457H42.457v-4.644h3.775v1.009H43.467v2.625h2.766Z" transform="translate(-34.742 -96.404)" fill="#C9A04F"/>
    <path id="Path_392" data-name="Path 392" d="M197.14,159.34h-2v-1.009h.988v-2.624h-2V154.7h3.006Z" transform="translate(-158.856 -126.586)" fill="#C9A04F"/>
    <path id="Path_393" data-name="Path 393" d="M45.223,159.34H42.458V154.7h3.775v1.009H43.467v2.624h1.757Z" transform="translate(-34.742 -126.586)" fill="#C9A04F"/>
    <path id="Path_394" data-name="Path 394" d="M88.292,106.639H65.679V93.155H88.292Zm-21.6-1.009H87.282V94.164H66.688Z" transform="translate(-53.744 -76.227)" fill="#C9A04F"/>
    <path id="Path_395" data-name="Path 395" d="M100.681,77.84V74.832h5.531V77.84h1.009V73.823H99.672V77.84Z" transform="translate(-81.56 -60.408)" fill="#C9A04F"/>
    <rect id="Rectangle_128" data-name="Rectangle 128" width="7.549" height="0.504" transform="translate(18.112 29.908)" fill="#C9A04F"/>
    <rect id="Rectangle_129" data-name="Rectangle 129" width="11.385" height="1.817" transform="translate(17.527 29.908)" fill="#C9A04F"/>
    <path id="Path_396" data-name="Path 396" d="M66.183,90.316V77.84h.5V74.832h5.168V77.84h1.009V73.823H65.678v17h7.187v-.5Z" transform="translate(-53.743 -60.408)" fill="#C9A04F"/>
    <path id="Path_397" data-name="Path 397" d="M136.671,77.84V74.832h5.1V77.84h1.009V73.823h-7.118V77.84Z" transform="translate(-111.009 -60.408)" fill="#C9A04F"/>
    <rect id="Rectangle_130" data-name="Rectangle 130" width="7.118" height="0.504" transform="translate(24.652 29.908)" fill="#C9A04F"/>
  </g>
</svg>
