<svg width="89" height="88" viewBox="0 0 89 88" fill="none" xmlns="http://www.w3.org/2000/svg">
<path d="M87.6036 1H1.16968V86.7628H87.6036V1Z" stroke="#C9A04F" stroke-width="1.5" stroke-miterlimit="10"/>
<path d="M42.832 70.145H17.3785V10.0905H62.5647V37.2795H60.5748V12.0237H19.3684V68.1706H42.832V70.145Z" fill="#C9A04F"/>
<path d="M42.832 69.9393H22.9336V22.5538C22.9336 19.7568 25.2136 17.4944 28.0326 17.4944H50.3769C52.8227 17.4944 54.854 19.4688 54.854 21.9368V37.9788H53.2787V21.9368C53.2787 20.3326 51.9522 19.0575 50.3769 19.0575H28.0326C26.0842 19.0575 24.5088 20.6206 24.5088 22.5538V68.4174H42.832V69.9805V69.9393Z" fill="#C9A04F"/>
<path d="M66.6687 79.1943C66.4199 79.1943 66.1712 79.1943 65.9639 79.112C63.2279 78.5773 61.4868 75.2455 60.2017 72.8186L55.8904 64.7154C54.1493 65.7437 49.6721 68.3351 49.6306 68.3763C48.7601 68.8699 46.9361 68.6642 46.2313 68.4174C44.8633 67.9238 44.3658 67.06 44.1586 66.4019C43.8684 65.3324 44.2 64.0161 45.1535 62.8233C45.6095 62.2474 46.1484 61.7538 46.6873 61.4247C48.2212 60.4787 49.755 59.5326 51.2889 58.5865L61.4453 52.3754C61.6526 52.252 61.9013 52.0875 62.1501 51.923C63.4352 51.0592 65.0519 49.9897 66.793 50.401C67.705 50.6478 68.4513 51.1826 68.9487 52.0052C69.7778 53.3626 69.7364 55.1314 69.4047 56.3654L69.3218 56.6944L62.6475 60.5198L66.5858 66.1962C66.7931 66.5253 67.1247 66.9366 67.4978 67.3891C69.6949 70.1861 73.343 74.9164 70.068 77.7135C68.9073 78.7007 67.7465 79.1943 66.6272 79.1943H66.6687ZM56.5122 62.5765L61.5697 72.1194C62.6475 74.1349 64.2228 77.2199 66.2127 77.5901C67.0832 77.7546 68.0367 77.4256 69.0731 76.5206C71.0629 74.8342 68.6586 71.4201 66.2542 68.3351C65.8811 67.8415 65.5494 67.4302 65.3007 67.06L60.409 60.0262L67.9953 55.7072C68.1611 54.8023 68.1196 53.6506 67.6222 52.8279C67.332 52.3754 66.9589 52.0464 66.4199 51.923C65.3836 51.635 64.1399 52.4988 63.0207 53.2392C62.7719 53.4038 62.4817 53.5683 62.2744 53.7328L52.1179 59.9439C50.5841 60.89 49.0503 61.8361 47.5164 62.7821C47.1019 63.0289 46.7288 63.3991 46.3557 63.8105C45.7339 64.592 45.4437 65.4147 45.6095 65.9905C45.7339 66.4019 46.1069 66.7309 46.7288 66.9777C47.2677 67.1834 48.5113 67.2245 48.8015 67.06C48.9259 66.9777 55.766 62.9878 55.766 62.9878L56.4707 62.5765H56.5122Z" fill="#C9A04F"/>
<path d="M49.0918 61.7127C48.843 61.7127 48.5943 61.5893 48.4699 61.3836L39.3498 48.3444C39.184 48.1387 39.1839 47.8508 39.2669 47.604C39.3912 47.3572 39.5985 47.1926 39.8472 47.1515L44.283 46.4934L45.4851 43.4084C45.6095 43.1204 45.8997 42.9148 46.1899 42.9148H48.5943L50.3354 39.7064C50.5012 39.3773 50.8743 39.2128 51.2474 39.3362L53.6518 40.0354L54.8125 37.6086C54.9369 37.4029 55.1442 37.2384 55.3929 37.1973C55.6416 37.1561 55.8904 37.1973 56.0562 37.4029L58.2948 39.5418C58.2948 39.5418 58.3777 39.6241 58.4192 39.7064L65.3007 50.7301C65.508 51.1003 65.425 51.5528 65.0519 51.7996L54.398 58.5043C54.0664 58.7099 53.6104 58.6277 53.3616 58.2986L46.4801 48.838V49.167L52.9056 58.4631C52.9056 58.4631 53.0714 58.8333 53.03 59.039C52.9885 59.2447 52.8642 59.4092 52.6983 59.5326L49.5478 61.507C49.5478 61.507 49.2576 61.6304 49.1332 61.6304L49.0918 61.7127ZM41.3396 48.5089L49.3405 59.9028L51.206 58.7511L45.0706 49.9486C45.0706 49.9486 44.9462 49.6606 44.9462 49.4961V48.0153L41.3811 48.55L41.3396 48.5089ZM46.1899 45.9175C46.1899 45.9175 46.2728 45.9998 46.3143 46.0409L54.1493 56.8178L55.0613 56.2419L48.7187 47.1104C48.7187 47.1104 48.5943 46.8224 48.5943 46.6579V44.4778H46.7288L46.1899 45.8764V45.9175ZM50.1696 46.4522L56.222 55.1725L56.5951 54.9257L50.1696 46.082V46.4111V46.4522ZM50.1696 43.4084L58.1289 54.3498L59.1653 53.6917L52.9471 44.7246C52.9471 44.7246 52.8227 44.4367 52.8227 44.2722V41.434L51.4547 41.0226L50.1696 43.4084ZM54.3565 44.0254L60.409 52.7456L60.7821 52.4988L54.3565 43.6552V43.9842V44.0254ZM54.6882 41.4751L62.1916 51.7584L63.5596 50.8946L57.1341 40.5702L55.766 39.2539L54.8125 41.3106C54.8125 41.3106 54.7296 41.434 54.6882 41.4751Z" fill="#C9A04F"/>
<path d="M34.541 39.9532H32.5512V37.9788H30.7686V39.9532H28.7373V41.7219H30.7686V43.6963H32.5512V41.7219H34.541V39.9532Z" fill="#C9A04F"/>
</svg>
