<svg width="1124" height="757" viewBox="0 0 1124 757" fill="none" xmlns="http://www.w3.org/2000/svg">
<mask id="mask0_57_13" style="mask-type:luminance" maskUnits="userSpaceOnUse" x="0" y="-1" width="1124" height="759">
<path d="M1124 -0.118164H0V757.118H1124V-0.118164Z" fill="white"/>
</mask>
<g mask="url(#mask0_57_13)">
<path d="M1035.26 751.066L1034.09 749.897L922.774 638.578L923.943 637.409L1035.26 526.09L1036.43 527.259L1147.75 638.578L1146.58 639.747L1035.26 751.066ZM927.49 638.578L1035.26 746.349L1143.03 638.578L1035.26 530.807L927.49 638.578Z" fill="#D09940"/>
<path d="M1023.46 581.968L925.708 679.719L1023.46 777.47L1121.21 679.719L1023.46 581.968Z" fill="#BE9042"/>
<path d="M0.333481 181.573L-0.83522 180.405L-161.031 20.209L0.333481 -141.156L1.50218 -139.987L161.698 20.209L160.529 21.3777L0.333481 181.573ZM-156.314 20.209L0.333481 176.857L156.981 20.209L0.333481 -136.439L-156.314 20.209Z" fill="#D09940"/>
<path d="M22.9797 -34.07L-53.9639 42.8735L22.9797 119.817L99.9232 42.8735L22.9797 -34.07Z" fill="#BE9042"/>
</g>
</svg>
