<svg width="1124" height="757" viewBox="0 0 1124 757" fill="none" xmlns="http://www.w3.org/2000/svg">
<mask id="mask0_56_113" style="mask-type:luminance" maskUnits="userSpaceOnUse" x="0" y="0" width="1124" height="758">
<path d="M1124 0H0V757.236H1124V0Z" fill="white"/>
</mask>
<g mask="url(#mask0_56_113)">
<path d="M1043.99 851.358L1042.82 850.19L869.85 677.221L1043.99 503.085L1218.12 677.221L1043.99 851.358ZM874.566 677.221L1043.99 846.642L1213.41 677.221L1043.99 507.801L874.566 677.221Z" fill="#D09940"/>
<path d="M1017.77 584.086L898.417 703.441L1017.77 822.796L1137.13 703.441L1017.77 584.086Z" fill="#BE9042"/>
<path d="M122.297 209.407L121.128 208.238L-98.7131 -11.6032L122.297 -232.613L123.466 -231.445L343.307 -11.6032L122.297 209.407ZM-93.9966 -11.6032L122.297 204.69L338.59 -11.6032L122.297 -227.897L-93.9966 -11.6032Z" fill="#D09940"/>
<path d="M138.667 -115.999L32.8291 -10.1606L138.667 95.6773L244.505 -10.1606L138.667 -115.999Z" fill="#BE9042"/>
</g>
</svg>
