<svg width="716" height="43" viewBox="0 0 716 43" fill="none" xmlns="http://www.w3.org/2000/svg">
<path d="M716 0.396484H694.382L642.516 43.0059H664.134L716 0.396484Z" fill="#BE9042"/>
<path d="M0 0V43.006H629.087L680.909 0.396571L0 0Z" fill="#BE9042"/>
<path d="M74.3651 9.42969L77.6673 26.2619H77.7114L77.7994 25.2925L78.724 19.6965L80.7494 9.42969H83.4351L85.5926 32.7393H82.5986L82.0262 24.0588L81.8501 19.7405L81.8061 16.6561H81.718L81.1897 20.0049L78.8121 32.7393H76.6547L73.6607 16.6561H73.6167L72.7361 32.7393H69.7861L71.7234 9.42969H74.3651Z" fill="white"/>
<path d="M89.7312 9.42969L92.5491 20.2252H92.6371L93.1214 17.2289L95.1028 9.42969H98.4049L94.0901 22.6928V32.7393H91.0081V22.6928L86.385 9.42969H89.7312Z" fill="white"/>
<path d="M114.167 9.42969V12.1176H108.972V19.4321H113.639V22.12H108.972V30.0514H114.167V32.7393H105.89V9.42969H114.167Z" fill="white"/>
<path d="M118.746 9.42969L120.243 13.5717C120.728 14.9817 121.212 16.3917 121.476 17.8458H121.52L122.357 14.6292L123.986 9.42969H127.156L122.885 20.8862L127.156 32.6952H123.986L122.577 28.5973C122.048 27.0991 121.52 25.5569 121.3 23.9706H121.256C121.256 24.896 120.948 25.7772 120.684 26.6585L118.79 32.6952H115.444L119.847 20.8862L115.708 9.42969H118.746Z" fill="white"/>
<path d="M129.753 32.7393V9.42969H133.452C136.094 9.42969 139.484 9.69407 139.484 15.6426C139.484 20.3574 137.635 22.5606 132.835 22.3843V32.6952H129.753V32.7393ZM132.835 12.0735V19.7846C135.477 19.9609 136.226 18.5068 136.226 15.907C136.226 13.792 135.609 12.0294 133.276 12.0294H132.835V12.0735Z" fill="white"/>
<path d="M150.007 9.42969V12.1176H144.767V19.4321H149.434V22.12H144.767V30.0514H150.007V32.7393H141.685V9.42969H150.007Z" fill="white"/>
<path d="M152.385 9.42969H156.083C158.328 9.42969 161.851 9.56188 161.851 15.3783C161.851 17.5814 161.19 20.8862 158.637 21.3709L162.907 32.6952H159.693L155.511 21.3268H155.467V32.6952H152.385V9.42969ZM158.593 16.0833C158.593 13.8801 158.328 12.0294 155.951 12.0735H155.467V19.7405C157.756 19.8727 158.593 18.4186 158.593 16.0833Z" fill="white"/>
<path d="M173.21 9.42969V12.1176H169.732V32.7393H166.65V12.1176H163.04V9.42969H173.21Z" fill="white"/>
<path d="M178.053 9.42969H174.971V32.6952H178.053V9.42969Z" fill="white"/>
<path d="M188.973 13.0427C188.18 12.4699 187.388 12.0733 186.331 12.0733C184.614 12.0733 183.601 13.4834 183.601 15.0697C183.601 16.0831 183.865 16.7881 184.482 17.5813L186.815 20.137C188.929 22.252 190.117 23.7942 190.117 26.9668C190.117 30.1394 188.092 33.0476 184.658 33.0476C183.469 33.0476 182.236 32.6951 181.268 31.946V28.8175C182.192 29.4784 183.117 30.0072 184.306 30.0072C186.243 30.0072 187.035 28.509 187.035 26.7465C187.035 22.1198 180.519 21.1945 180.519 15.0697C180.519 11.809 182.236 9.12109 185.714 9.12109C186.903 9.12109 188.004 9.29735 188.973 9.91424V13.0427Z" fill="white"/>
<path d="M201.037 9.42969V12.1176H195.797V19.4321H200.464V22.12H195.797V30.0514H201.037V32.7393H192.715V9.42969H201.037Z" fill="white"/>
<path d="M213.233 23.574H207.729V25.9093H213.233V23.574Z" fill="white"/>
<path d="M229.876 9.42969V12.1176H226.397V32.7393H223.315V12.1176H219.661V9.42969H229.876Z" fill="white"/>
<path d="M231.637 9.42969H235.335C237.581 9.42969 241.103 9.56188 241.103 15.3783C241.103 17.5814 240.443 20.8862 237.889 21.3709L242.16 32.6952H238.946L234.763 21.3268H234.719V32.6952H231.637V9.42969ZM237.845 16.0833C237.845 13.8801 237.581 12.0294 235.203 12.0735H234.719V19.7405C237.008 19.8727 237.845 18.4186 237.845 16.0833Z" fill="white"/>
<path d="M250.173 9.42969L255.148 32.6952H252.022L251.141 28.1567H246.518L245.638 32.6952H242.6L247.663 9.42969H250.085H250.173ZM250.129 22.3843L248.94 13.9242H248.896L247.047 25.7332H250.745L250.129 22.3843Z" fill="white"/>
<path d="M260.3 9.42969H257.218V32.6952H260.3V9.42969Z" fill="white"/>
<path d="M266.684 16.3477L267.124 24.1469V32.7393H264.042V9.42969H266.992L272.452 27.1432L272.496 27.0551L271.747 17.7577V9.42969H274.829V32.7393H271.967L266.552 14.8054L266.464 14.8495L266.684 16.3477Z" fill="white"/>
<path d="M286.893 9.42969V12.1176H281.654V19.4321H286.321V22.12H281.654V30.0514H286.893V32.7393H278.572V9.42969H286.893Z" fill="white"/>
<path d="M292.749 9.42969C296.403 9.42969 300.498 9.69407 300.498 21.459C300.498 32.2105 296.932 32.6952 291.384 32.6952H289.271V9.42969H292.705H292.749ZM292.397 12.0735V30.0955C297.46 30.2276 297.284 25.4247 297.284 21.5031C297.284 17.9339 297.636 11.7651 292.397 12.0735Z" fill="white"/>
<path d="M315.16 9.42969L320.135 32.6952H317.009L316.128 28.1567H311.505L310.625 32.6952H307.587L312.65 9.42969H315.072H315.16ZM315.116 22.3843L313.927 13.9242H313.883L312.034 25.7332H315.732L315.116 22.3843Z" fill="white"/>
<path d="M329.821 9.42969V12.1176H326.343V32.7393H323.261V12.1176H319.607V9.42969H329.821Z" fill="white"/>
<path d="M337.13 32.7393V9.42969H341.005C345.188 9.42969 346.376 11.7651 346.376 15.6426C346.376 17.9339 345.892 20.1371 343.427 20.7981C346.068 21.6793 346.685 23.7503 346.685 26.306C346.685 30.5802 345.1 32.6511 340.829 32.6511H337.13V32.7393ZM340.565 12.0735H340.036V19.6965C342.898 19.8287 343.294 18.0221 343.294 15.5545C343.294 13.7479 342.678 12.0294 340.565 12.0735ZM340.036 30.0955C342.722 30.2276 343.382 28.8176 343.382 26.2619C343.382 23.7063 342.854 22.12 340.036 22.164V30.0955Z" fill="white"/>
<path d="M358.308 9.42969V12.1176H353.113V19.4321H357.78V22.12H353.113V30.0514H358.308V32.7393H350.031V9.42969H358.308Z" fill="white"/>
<path d="M366.454 9.42969L371.429 32.6952H368.303L367.422 28.1567H362.799L361.919 32.6952H358.881L363.944 9.42969H366.366H366.454ZM366.41 22.3843L365.221 13.9242H365.177L363.328 25.7332H367.026L366.41 22.3843Z" fill="white"/>
<path d="M376.184 9.42969V26.4823C376.184 29.4786 377.065 30.0955 378.342 30.0955C380.455 30.0955 380.675 28.7295 380.675 26.8348V9.42969H383.757V25.9535C383.757 28.9939 383.757 33.0036 378.43 33.0036C373.542 33.0036 373.102 29.6548 373.102 25.4688V9.42969H376.184Z" fill="white"/>
<path d="M395.733 9.42969V12.1176H392.21V32.7393H389.128V12.1176H385.518V9.42969H395.733Z" fill="white"/>
<path d="M400.532 9.42969H397.45V32.6952H400.532V9.42969Z" fill="white"/>
<path d="M412.64 9.42969V12.1176H407.401V19.4321H412.156V22.12H407.401V32.7393H404.319V9.42969H412.64Z" fill="white"/>
<path d="M417.924 9.42969V26.4823C417.924 29.4786 418.804 30.0955 420.081 30.0955C422.194 30.0955 422.415 28.7295 422.415 26.8348V9.42969H425.497V25.9535C425.497 28.9939 425.497 33.0036 420.169 33.0036C415.282 33.0036 414.842 29.6548 414.842 25.4688V9.42969H417.924Z" fill="white"/>
<path d="M432.321 9.42969V30.0514H437.516V32.7393H429.239V9.42969H432.321Z" fill="white"/>
<path d="M448.083 9.42969V18.5068H452.751V9.42969H455.833V32.7393H452.751V21.1946H448.083V32.7393H445.001V9.42969H448.083Z" fill="white"/>
<path d="M471.111 21.0623C471.111 25.2483 471.067 33.0035 465.079 33.0035C459.091 33.0035 459.047 25.2483 459.047 21.0623C459.047 16.8763 459.091 9.12109 465.079 9.12109C471.067 9.12109 471.111 16.8763 471.111 21.0623ZM462.305 21.0623C462.305 25.9974 462.657 30.0953 465.079 30.0953C467.5 30.0953 467.852 25.9974 467.852 21.0623C467.852 16.1272 467.5 12.0293 465.079 12.0293C462.657 12.0293 462.305 16.1272 462.305 21.0623Z" fill="white"/>
<path d="M477.671 9.42969L480.973 26.2619H481.061L481.149 25.2925L482.074 19.6965L484.055 9.42969H486.785L488.942 32.7393H485.904L485.376 24.0588L485.2 19.7405L485.112 16.6561H485.068L484.54 20.0049L482.118 32.7393H480.005L477.011 16.6561H476.967L476.042 32.7393H473.136L475.029 9.42969H477.671Z" fill="white"/>
<path d="M499.862 9.42969V12.1176H494.622V19.4321H499.289V22.12H494.622V30.0514H499.862V32.7393H491.54V9.42969H499.862Z" fill="white"/>
<path d="M509.416 13.0427C508.623 12.4699 507.831 12.0733 506.774 12.0733C505.057 12.0733 504.044 13.4834 504.044 15.0697C504.044 16.0831 504.308 16.7881 504.925 17.5813L507.258 20.137C509.372 22.252 510.56 23.7942 510.56 26.9668C510.56 30.1394 508.535 33.0476 505.101 33.0476C503.912 33.0476 502.679 32.6951 501.711 31.946V28.8175C502.635 29.4784 503.56 30.0072 504.749 30.0072C506.686 30.0072 507.478 28.509 507.478 26.7465C507.478 22.1198 500.962 21.1945 500.962 15.0697C500.962 11.809 502.679 9.12109 506.158 9.12109C507.346 9.12109 508.447 9.29735 509.416 9.91424V13.0427Z" fill="white"/>
<path d="M524.65 9.42969L529.625 32.6952H526.499L525.619 28.1567H520.995L520.115 32.6952H517.077L522.14 9.42969H524.562H524.65ZM524.606 22.3843L523.417 13.9242H523.373L521.524 25.7332H525.222L524.606 22.3843Z" fill="white"/>
<path d="M540.5 12.6462C539.884 12.3377 539.223 12.0734 538.519 12.0734C534.204 12.0734 534.16 18.3744 534.16 21.2826C534.16 24.3671 534.424 30.1834 538.651 30.1834C539.311 30.1834 539.928 30.0512 540.5 29.6987V32.4307C539.708 32.9154 538.915 33.0916 538.035 33.0916C531.738 33.0916 530.902 26.394 530.902 21.5029C530.902 16.6119 531.474 9.20923 537.814 9.20923C538.871 9.20923 539.62 9.34142 540.5 9.87018V12.6902V12.6462Z" fill="white"/>
<path d="M548.602 9.42969L553.577 32.6952H550.451L549.57 28.1567H544.947L544.111 32.6952H541.073L546.136 9.42969H548.558H548.602ZM548.558 22.3843L547.369 13.9242H547.325L545.476 25.7332H549.174L548.558 22.3843Z" fill="white"/>
<path d="M559.081 9.42969C562.735 9.42969 566.83 9.69407 566.83 21.459C566.83 32.2105 563.263 32.6952 557.716 32.6952H555.602V9.42969H559.081ZM558.728 12.0735V30.0955C563.792 30.2276 563.616 25.4247 563.616 21.5031C563.616 17.9339 563.968 11.7651 558.728 12.0735Z" fill="white"/>
<path d="M578.277 9.42969V12.1176H573.082V19.4321H577.749V22.12H573.082V30.0514H578.277V32.7393H570V9.42969H578.277Z" fill="white"/>
<path d="M584.089 9.42969L587.391 26.2619H587.479L587.567 25.2925L588.492 19.6965L590.473 9.42969H593.203L595.361 32.7393H592.323L591.794 24.0588L591.574 19.7405L591.53 16.6561H591.486L590.958 20.0049L588.536 32.7393H586.423L583.429 16.6561H583.341L582.46 32.7393H579.554L581.447 9.42969H584.089Z" fill="white"/>
<path d="M599.499 9.42969L602.317 20.2252H602.361L602.89 17.2289L604.871 9.42969H608.129L603.814 22.6928V32.7393H600.732V22.6928L596.153 9.42969H599.499Z" fill="white"/>
</svg>
