<svg width="538" height="42" viewBox="0 0 538 42" fill="none" xmlns="http://www.w3.org/2000/svg">
<path d="M537.498 1.36353H517.004L467.835 41.7255H488.37L537.498 1.36353Z" fill="#BE9042"/>
<path d="M0.144775 0.987549V41.7252H455.104L504.231 1.36319L0.144775 0.987549Z" fill="#BE9042"/>
<path d="M70.0162 9.83569H67.0945V31.8741H70.0162V9.83569Z" fill="white"/>
<path d="M79.5745 31.8741V9.83569H83.0806C85.585 9.83569 88.7989 10.0861 88.7989 15.721C88.7989 20.1871 87.0458 22.274 82.4962 22.1071V31.8741H79.5745ZM82.4962 12.2983V19.6027C85.0006 19.7697 85.7102 18.3923 85.7102 15.9297C85.7102 13.9262 85.1258 12.2566 82.9136 12.2566H82.4962V12.2983Z" fill="white"/>
<path d="M90.8862 9.83569H94.3924C96.5211 9.83569 99.8602 9.96094 99.8602 15.4705C99.8602 17.5575 99.2341 20.688 96.8132 21.1471L100.862 31.8741H97.815L93.8497 21.1053H93.808V31.8741H90.8862V9.83569ZM96.7715 16.1383C96.7715 14.0513 96.5211 12.2983 94.2671 12.3401H93.808V19.6027C95.9785 19.7279 96.7715 18.3505 96.7715 16.1383Z" fill="white"/>
<path d="M113.968 20.8556C113.968 24.8208 113.926 32.167 108.25 32.167C102.573 32.167 102.531 24.8208 102.531 20.8556C102.531 16.8903 102.573 9.54419 108.25 9.54419C113.926 9.54419 113.968 16.8903 113.968 20.8556ZM105.62 20.8556C105.62 25.5304 105.954 29.4122 108.25 29.4122C110.545 29.4122 110.879 25.5304 110.879 20.8556C110.879 16.1808 110.545 12.299 108.25 12.299C105.954 12.299 105.62 16.1808 105.62 20.8556Z" fill="white"/>
<path d="M118.142 9.83569L120.647 26.4062H120.688L120.855 25.0288L122.024 17.5992L123.36 9.83569H126.156L121.815 31.8741H119.478L115.22 9.83569H118.142Z" fill="white"/>
<path d="M131.039 9.83569H128.117V31.8741H131.039V9.83569Z" fill="white"/>
<path d="M137.842 9.83569C141.307 9.83569 145.23 10.0861 145.23 21.2305C145.23 31.4149 141.849 31.8741 136.59 31.8741H134.587V9.83569H137.842ZM137.508 12.3401V29.4115C142.35 29.5367 142.141 24.9871 142.141 21.2723C142.141 17.8914 142.475 12.0479 137.508 12.3401Z" fill="white"/>
<path d="M156.041 9.83569V12.3818H151.116V19.3106H155.54V21.8567H151.116V29.328H156.041V31.8741H148.194V9.83569H156.041Z" fill="white"/>
<path d="M172.195 9.83569V12.3818H167.27V19.3106H171.652V21.8567H167.27V29.328H172.195V31.8741H164.348V9.83569H172.195Z" fill="white"/>
<path d="M176.535 9.83569L177.954 13.7592C178.413 15.0949 178.872 16.4305 179.123 17.8079H179.165L179.958 14.7609L181.502 9.83569H184.507L180.458 20.688L184.507 31.8741H181.502L180.166 27.9924C179.665 26.5732 179.123 25.1123 178.956 23.6097H178.914C178.914 24.4862 178.622 25.321 178.372 26.1558L176.577 31.8741H173.405L177.578 20.688L173.655 9.83569H176.535Z" fill="white"/>
<path d="M194.942 12.8416C194.358 12.5494 193.732 12.299 193.064 12.299C188.973 12.299 188.932 18.2677 188.932 21.0225C188.932 23.9442 189.182 29.4539 193.189 29.4539C193.815 29.4539 194.4 29.3286 194.942 28.9947V31.5826C194.191 32.0417 193.44 32.2087 192.605 32.2087C186.636 32.2087 185.843 25.8643 185.843 21.2312C185.843 16.5981 186.386 9.58594 192.396 9.58594C193.398 9.58594 194.107 9.71113 194.942 10.212V12.8833V12.8416Z" fill="white"/>
<path d="M205.043 9.83569V12.3818H200.118V19.3106H204.542V21.8567H200.118V29.328H205.043V31.8741H197.196V9.83569H205.043Z" fill="white"/>
<path d="M210.26 9.83569V29.328H215.185V31.8741H207.338V9.83569H210.26Z" fill="white"/>
<path d="M219.944 9.83569V29.328H224.827V31.8741H217.022V9.83569H219.944Z" fill="white"/>
<path d="M234.553 9.83569V12.3818H229.586V19.3106H234.011V21.8567H229.586V29.328H234.553V31.8741H226.665V9.83569H234.553Z" fill="white"/>
<path d="M239.311 16.3888L239.728 23.7766V31.8741H236.807V9.83569H239.603L244.779 26.5732L244.821 26.5314L244.111 17.7244V9.83569H247.033V31.8741H244.32L239.186 14.8862L239.102 14.9696L239.311 16.3888Z" fill="white"/>
<path d="M258.386 9.83569V12.3818H255.089V31.8741H252.167V12.3818H248.703V9.83569H258.386Z" fill="white"/>
<path d="M273.245 9.83569V12.3818H268.236V19.3106H272.744V21.8567H268.236V31.8741H265.315V9.83569H273.245Z" fill="white"/>
<path d="M278.254 9.83569H275.332V31.8741H278.254V9.83569Z" fill="white"/>
<path d="M284.307 16.3888L284.724 23.7766V31.8741H281.802V9.83569H284.599L289.774 26.5732L289.816 26.5314L289.107 17.7244V9.83569H292.028V31.8741H289.315L284.181 14.8862L284.098 14.9696L284.307 16.3888Z" fill="white"/>
<path d="M298.498 9.83569H295.576V31.8741H298.498V9.83569Z" fill="white"/>
<path d="M308.849 13.2172C308.097 12.6746 307.346 12.299 306.344 12.299C304.758 12.299 303.756 13.6347 303.756 15.1373C303.756 16.0973 304.007 16.7651 304.591 17.5164L306.803 19.9373C308.765 21.9408 309.934 23.4017 309.934 26.4069C309.934 29.4121 308.014 32.167 304.758 32.167C303.631 32.167 302.463 31.833 301.544 31.1235V28.16C302.421 28.786 303.297 29.2869 304.424 29.2869C306.219 29.2869 307.012 27.8678 307.012 26.1982C307.012 21.8156 300.835 20.9391 300.835 15.1373C300.835 12.0486 302.463 9.50244 305.76 9.50244C306.845 9.50244 307.93 9.66943 308.849 10.2538V13.2172Z" fill="white"/>
<path d="M315.36 9.83569V18.434H319.743V9.83569H322.706V31.8741H319.743V20.9801H315.36V31.8741H312.438V9.83569H315.36Z" fill="white"/>
<path d="M339.319 9.83569V12.3818H336.021V31.8741H333.099V12.3818H329.635V9.83569H339.319Z" fill="white"/>
<path d="M343.91 9.83569V18.434H348.292V9.83569H351.214V31.8741H348.292V20.9801H343.91V31.8741H340.988V9.83569H343.91Z" fill="white"/>
<path d="M354.804 9.83569H358.31C360.439 9.83569 363.778 9.96094 363.778 15.4705C363.778 17.5575 363.152 20.688 360.731 21.1471L364.78 31.8741H361.733L357.767 21.1053H357.726V31.8741H354.804V9.83569ZM360.689 16.1383C360.689 14.0513 360.439 12.2983 358.185 12.3401H357.726V19.6027C359.896 19.7279 360.689 18.3505 360.689 16.1383Z" fill="white"/>
<path d="M377.845 20.8556C377.845 24.8208 377.803 32.167 372.126 32.167C366.45 32.167 366.408 24.8208 366.408 20.8556C366.408 16.8903 366.45 9.54419 372.126 9.54419C377.803 9.54419 377.845 16.8903 377.845 20.8556ZM369.497 20.8556C369.497 25.5304 369.831 29.4122 372.126 29.4122C374.422 29.4122 374.756 25.5304 374.756 20.8556C374.756 16.1808 374.422 12.299 372.126 12.299C369.831 12.299 369.497 16.1808 369.497 20.8556Z" fill="white"/>
<path d="M383.771 9.83569V25.9888C383.771 28.8271 384.606 29.4115 385.816 29.4115C387.82 29.4115 388.028 28.1175 388.028 26.3227V9.83569H390.95V25.488C390.95 28.368 390.95 32.208 385.9 32.208C381.266 32.208 380.849 29.0358 380.849 25.0705V9.87741H383.771V9.83569Z" fill="white"/>
<path d="M405.058 20.2295V20.5634C405.058 24.7791 405.684 32.1252 399.799 32.1252C394.582 32.1252 393.956 27.0747 393.956 20.8556C393.956 14.6364 394.456 9.50244 399.549 9.50244C402.679 9.50244 404.182 11.0885 404.933 14.0103L402.136 15.1373C401.844 13.6764 401.427 12.2573 399.632 12.2573C397.253 12.2573 397.044 15.5129 397.044 20.8556C397.044 28.4939 398.338 29.4121 399.632 29.4121C400.843 29.4121 402.136 29.2452 402.136 23.986V22.7756H399.674V20.2295H405.058Z" fill="white"/>
<path d="M410.859 9.83569V18.434H415.284V9.83569H418.206V31.8741H415.284V20.9801H410.859V31.8741H407.938V9.83569H410.859Z" fill="white"/>
</svg>
