<svg width="679" height="41" viewBox="0 0 679 41" fill="none" xmlns="http://www.w3.org/2000/svg">
<path d="M678.911 0.50415H658.417L609.248 40.8661H629.742L678.911 0.50415Z" fill="#BE9042"/>
<path d="M0.144775 0.128418V40.8661H596.517L645.644 0.504089L0.144775 0.128418Z" fill="#BE9042"/>
<path d="M70.6427 9.10303L73.7731 25.0057H73.8149L73.8983 24.0875L74.7748 18.7866L76.6949 9.10303H79.241L81.3279 31.1414H78.4479L77.9053 22.9188L77.7383 18.8283L77.6966 15.9483H77.6131L77.1123 19.0787L74.8583 31.1414H72.8131L70.0166 15.9483H69.9331L69.0983 31.1414H66.3018L68.1383 9.10303H70.6427Z" fill="white"/>
<path d="M85.2095 9.10303L87.9226 19.2874H87.9643L88.4235 16.4492L90.3017 9.10303H93.4322L89.3417 21.6248V31.1414H86.42V21.6248L82.0374 9.10303H85.2095Z" fill="white"/>
<path d="M108.375 9.10303V11.6491H103.45V18.5779H107.874V21.124H103.45V28.5953H108.375V31.1414H100.528V9.10303H108.375Z" fill="white"/>
<path d="M112.757 9.10303L114.176 13.0265C114.635 14.3622 115.094 15.6979 115.345 17.0753H115.386L116.18 14.0283L117.724 9.10303H120.729L116.68 19.9553L120.729 31.1414H117.724L116.388 27.2597C115.887 25.8405 115.386 24.3797 115.178 22.877H115.136C115.136 23.7536 114.844 24.5884 114.593 25.4231L112.799 31.1414H109.626L113.8 19.9553L109.877 9.10303H112.757Z" fill="white"/>
<path d="M123.15 31.1414V9.10303H126.656C129.161 9.10303 132.375 9.35348 132.375 14.9883C132.375 19.4544 130.621 21.5414 126.072 21.3744V31.1414H123.15ZM126.072 11.5657V18.8701C128.576 19.037 129.286 17.6596 129.286 15.197C129.286 13.1935 128.701 11.5239 126.489 11.5239H126.072V11.5657Z" fill="white"/>
<path d="M142.351 9.10303V11.6491H137.384V18.5779H141.808V21.124H137.384V28.5953H142.351V31.1414H134.462V9.10303H142.351Z" fill="white"/>
<path d="M144.605 9.10303H148.111C150.24 9.10303 153.579 9.22824 153.579 14.7378C153.579 16.8248 152.953 19.9553 150.532 20.4144L154.581 31.1414H151.534L147.568 20.3727H147.527V31.1414H144.605V9.10303ZM150.49 15.4057C150.49 13.3187 150.24 11.5656 147.986 11.6074H147.527V18.8701C149.697 18.9953 150.49 17.6179 150.49 15.4057Z" fill="white"/>
<path d="M164.347 9.10303V11.6491H161.05V31.1414H158.128V11.6491H154.705V9.10303H164.347Z" fill="white"/>
<path d="M168.938 9.10303H166.016V31.1414H168.938V9.10303Z" fill="white"/>
<path d="M179.29 12.4831C178.539 11.9405 177.787 11.5649 176.786 11.5649C175.158 11.5649 174.198 12.9005 174.198 14.4032C174.198 15.3632 174.448 16.031 175.033 16.7823L177.245 19.2032C179.248 21.2066 180.375 22.6675 180.375 25.6728C180.375 28.678 178.455 31.4328 175.2 31.4328C174.073 31.4328 172.904 31.0989 171.986 30.3893V27.4258C172.862 28.0519 173.739 28.5528 174.866 28.5528C176.702 28.5528 177.454 27.1336 177.454 25.4641C177.454 21.0814 171.276 20.2049 171.276 14.4032C171.276 11.3144 172.904 8.76831 176.201 8.76831C177.328 8.76831 178.372 8.93527 179.29 9.51962V12.4831Z" fill="white"/>
<path d="M190.727 9.10303V11.6491H185.76V18.5779H190.184V21.124H185.76V28.5953H190.727V31.1414H182.838V9.10303H190.727Z" fill="white"/>
<path d="M202.288 22.4595H197.071V24.6717H202.288V22.4595Z" fill="white"/>
<path d="M218.065 9.10303V11.6491H214.768V31.1414H211.846V11.6491H208.382V9.10303H218.065Z" fill="white"/>
<path d="M219.736 9.10303H223.242C225.371 9.10303 228.71 9.22824 228.71 14.7378C228.71 16.8248 228.084 19.9553 225.663 20.4144L229.712 31.1414H226.665L222.699 20.3727H222.658V31.1414H219.736V9.10303ZM225.621 15.4057C225.621 13.3187 225.371 11.5656 223.117 11.6074H222.658V18.8701C224.828 18.9953 225.621 17.6179 225.621 15.4057Z" fill="white"/>
<path d="M237.308 9.10303L242.025 31.1414H239.061L238.226 26.8423H233.844L233.009 31.1414H230.129L234.929 9.10303H237.225H237.308ZM237.266 21.3744L236.139 13.3605H236.098L234.345 24.5466H237.851L237.266 21.3744Z" fill="white"/>
<path d="M246.907 9.10303H243.985V31.1414H246.907V9.10303Z" fill="white"/>
<path d="M252.96 15.6561L253.377 23.044V31.1414H250.455V9.10303H253.252L258.428 25.8405L258.469 25.7988L257.76 16.95V9.10303H260.681V31.1414H257.968L252.834 14.1535L252.751 14.1952L252.96 15.6561Z" fill="white"/>
<path d="M272.119 9.10303V11.6491H267.152V18.5779H271.576V21.124H267.152V28.5953H272.119V31.1414H264.23V9.10303H272.119Z" fill="white"/>
<path d="M277.669 9.10303C281.134 9.10303 285.015 9.35348 285.015 20.4979C285.015 30.6823 281.634 31.1414 276.375 31.1414H274.372V9.10303H277.628H277.669ZM277.335 11.6074V28.6788C282.135 28.804 281.968 24.2544 281.968 20.5396C281.968 17.1587 282.302 11.3152 277.335 11.6074Z" fill="white"/>
<path d="M298.915 9.10303L303.632 31.1414H300.668L299.833 26.8423H295.451L294.616 31.1414H291.736L296.536 9.10303H298.832H298.915ZM298.873 21.3744L297.746 13.3605H297.705L295.952 24.5466H299.458L298.873 21.3744Z" fill="white"/>
<path d="M312.814 9.10303V11.6491H309.517V31.1414H306.595V11.6491H303.131V9.10303H312.814Z" fill="white"/>
<path d="M319.743 31.1414V9.10303H323.416C327.382 9.10303 328.509 11.3152 328.509 14.9883C328.509 17.1587 328.05 19.2457 325.712 19.8718C328.216 20.7066 328.801 22.6683 328.801 25.0892C328.801 29.1379 327.298 31.0997 323.25 31.0997H319.743V31.1414ZM322.999 11.5657H322.498V18.7866C325.211 18.9118 325.587 17.2005 325.587 14.8631C325.587 13.1517 325.003 11.5239 322.999 11.5657ZM322.498 28.6371C325.044 28.7623 325.67 27.4266 325.67 25.0057C325.67 22.5848 325.169 21.0822 322.498 21.124V28.6371Z" fill="white"/>
<path d="M339.819 9.10303V11.6491H334.894V18.5779H339.319V21.124H334.894V28.5953H339.819V31.1414H331.972V9.10303H339.819Z" fill="white"/>
<path d="M347.541 9.10303L352.258 31.1414H349.295L348.46 26.8423H344.077L343.242 31.1414H340.362L345.162 9.10303H347.458H347.541ZM347.5 21.3744L346.373 13.3605H346.331L344.578 24.5466H348.084L347.5 21.3744Z" fill="white"/>
<path d="M356.766 9.10303V25.2562C356.766 28.0945 357.601 28.6788 358.811 28.6788C360.815 28.6788 361.023 27.3849 361.023 25.5901V9.10303H363.945V24.7553C363.945 27.6353 363.945 31.4336 358.895 31.4336C354.262 31.4336 353.844 28.2614 353.844 24.2962V9.10303H356.766Z" fill="white"/>
<path d="M375.298 9.10303V11.6491H371.959V31.1414H369.037V11.6491H365.615V9.10303H375.298Z" fill="white"/>
<path d="M379.848 9.10303H376.926V31.1414H379.848V9.10303Z" fill="white"/>
<path d="M391.368 9.10303V11.6491H386.359V18.5779H390.867V21.124H386.359V31.1414H383.438V9.10303H391.368Z" fill="white"/>
<path d="M396.334 9.10303V25.2562C396.334 28.0945 397.169 28.6788 398.38 28.6788C400.383 28.6788 400.592 27.3849 400.592 25.5901V9.10303H403.514V24.7553C403.514 27.6353 403.513 31.4336 398.463 31.4336C393.83 31.4336 393.413 28.2614 393.413 24.2962V9.10303H396.334Z" fill="white"/>
<path d="M409.984 9.10303V28.5953H414.909V31.1414H407.062V9.10303H409.984Z" fill="white"/>
<path d="M424.926 9.10303V17.7013H429.351V9.10303H432.272V31.1414H429.351V20.2474H424.926V31.1414H422.005V9.10303H424.926Z" fill="white"/>
<path d="M446.756 20.1219C446.756 24.0872 446.714 31.4333 441.038 31.4333C435.361 31.4333 435.319 24.0872 435.319 20.1219C435.319 16.1567 435.361 8.81055 441.038 8.81055C446.714 8.81055 446.756 16.1567 446.756 20.1219ZM438.408 20.1219C438.408 24.7967 438.742 28.6785 441.038 28.6785C443.333 28.6785 443.667 24.7967 443.667 20.1219C443.667 15.4471 443.333 11.5654 441.038 11.5654C438.742 11.5654 438.408 15.4471 438.408 20.1219Z" fill="white"/>
<path d="M452.975 9.10303L456.105 25.0057H456.189L456.272 24.0875L457.149 18.7866L459.027 9.10303H461.615L463.66 31.1414H460.78L460.279 22.9188L460.112 18.8283L460.029 15.9483H459.987L459.486 19.0787L457.191 31.1414H455.187L452.349 15.9483H452.307L451.431 31.1414H448.676L450.471 9.10303H452.975Z" fill="white"/>
<path d="M474.011 9.10303V11.6491H469.044V18.5779H473.469V21.124H469.044V28.5953H474.011V31.1414H466.123V9.10303H474.011Z" fill="white"/>
<path d="M483.069 12.4831C482.318 11.9405 481.567 11.5649 480.565 11.5649C478.937 11.5649 477.977 12.9005 477.977 14.4032C477.977 15.3632 478.228 16.031 478.812 16.7823L481.024 19.2032C483.028 21.2066 484.155 22.6675 484.155 25.6728C484.155 28.678 482.235 31.4328 478.979 31.4328C477.852 31.4328 476.683 31.0989 475.765 30.3893V27.4258C476.642 28.0519 477.518 28.5528 478.645 28.5528C480.482 28.5528 481.233 27.1336 481.233 25.4641C481.233 21.0814 475.055 20.2049 475.055 14.4032C475.055 11.3144 476.683 8.76831 479.981 8.76831C481.108 8.76831 482.151 8.93527 483.069 9.51962V12.4831Z" fill="white"/>
<path d="M497.511 9.10303L502.227 31.1414H499.264L498.429 26.8423H494.047L493.212 31.1414H490.332L495.132 9.10303H497.427H497.511ZM497.469 21.3744L496.342 13.3605H496.3L494.547 24.5466H498.054L497.469 21.3744Z" fill="white"/>
<path d="M512.537 12.1077C511.953 11.8155 511.327 11.5651 510.659 11.5651C506.568 11.5651 506.527 17.5338 506.527 20.2886C506.527 23.2104 506.777 28.72 510.784 28.72C511.41 28.72 511.995 28.5948 512.537 28.2609V30.8487C511.786 31.3078 511.035 31.4748 510.2 31.4748C504.231 31.4748 503.438 25.1304 503.438 20.4973C503.438 15.8643 503.981 8.85205 509.991 8.85205C510.993 8.85205 511.702 8.97728 512.537 9.47815V12.1495V12.1077Z" fill="white"/>
<path d="M520.217 9.10303L524.933 31.1414H521.97L521.135 26.8423H516.752L515.959 31.1414H513.079L517.879 9.10303H520.175H520.217ZM520.175 21.3744L519.048 13.3605H519.006L517.253 24.5466H520.759L520.175 21.3744Z" fill="white"/>
<path d="M530.151 9.10303C533.615 9.10303 537.497 9.35348 537.497 20.4979C537.497 30.6823 534.116 31.1414 528.857 31.1414H526.854V9.10303H530.151ZM529.817 11.6074V28.6788C534.617 28.804 534.45 24.2544 534.45 20.5396C534.45 17.1587 534.784 11.3152 529.817 11.6074Z" fill="white"/>
<path d="M548.349 9.10303V11.6491H543.424V18.5779H547.849V21.124H543.424V28.5953H548.349V31.1414H540.502V9.10303H548.349Z" fill="white"/>
<path d="M553.858 9.10303L556.989 25.0057H557.072L557.156 24.0875L558.032 18.7866L559.911 9.10303H562.498L564.544 31.1414H561.664L561.163 22.9188L560.996 18.8283L560.912 15.9483H560.871L560.37 19.0787L558.074 31.1414H556.071L553.232 15.9483H553.191L552.314 31.1414H549.559L551.354 9.10303H553.858Z" fill="white"/>
<path d="M568.467 9.10303L571.139 19.2874H571.18L571.681 16.4492L573.56 9.10303H576.648L572.558 21.6248V31.1414H569.636V21.6248L565.295 9.10303H568.467Z" fill="white"/>
</svg>
